<svg width="222" height="247" viewBox="0 0 222 247" fill="none" xmlns="http://www.w3.org/2000/svg">
<path d="M193.948 189.051C192.403 188.593 191.388 187.417 191.848 185.877L192.233 184.594C192.693 183.055 194.851 180.397 196.395 180.855C197.94 181.313 198.288 184.714 197.828 186.253L197.443 187.536C196.988 189.076 195.492 189.509 193.948 189.051Z" fill="#8043F9"/>
<path d="M191.794 195.682C189.636 195.076 188.112 193.776 188.551 192.228L188.915 190.941C189.354 189.393 191.964 186.847 194.126 187.454C196.284 188.06 197.174 191.593 196.735 193.14L196.371 194.428C195.931 195.975 193.952 196.289 191.794 195.682Z" fill="#8043F9"/>
<path d="M189.441 202.578C187.321 201.848 185.879 200.461 186.405 198.943L186.844 197.68C187.375 196.161 190.129 193.772 192.249 194.502C194.37 195.233 195.049 198.815 194.519 200.329L194.08 201.592C193.554 203.111 191.562 203.309 189.441 202.578Z" fill="#8043F9"/>
<path d="M187.967 210.2C185.755 209.833 184.098 208.707 184.363 207.122L184.583 205.801C184.848 204.217 187.163 201.398 189.379 201.769C191.591 202.137 192.862 205.554 192.597 207.138L192.378 208.459C192.113 210.044 190.179 210.568 187.967 210.2Z" fill="#8043F9"/>
<path d="M187.52 213.621C187.499 213.621 187.474 213.621 187.453 213.617C187.23 213.58 187.072 213.37 187.109 213.143C188.199 206.453 189.735 199.772 191.67 193.293C193.003 188.832 194.225 185.258 195.762 181.342C195.845 181.131 196.085 181.024 196.3 181.107C196.511 181.189 196.619 181.429 196.536 181.643C195.008 185.539 193.79 189.092 192.465 193.528C190.539 199.974 189.015 206.618 187.93 213.275C187.896 213.481 187.718 213.621 187.52 213.621Z" fill="#B678FD"/>
<path d="M179.642 181.103C177.579 181.115 175.898 180.05 175.889 177.991L175.881 176.278C175.869 174.223 177.521 170.171 179.588 170.158C181.651 170.146 183.345 174.182 183.357 176.241L183.365 177.954C183.374 180.013 181.709 181.094 179.642 181.103Z" fill="#8043F9"/>
<path d="M180.719 190.025C177.848 190.082 175.5 189.055 175.459 186.996L175.425 185.283C175.384 183.228 177.633 179.138 180.503 179.08C183.374 179.023 185.78 183.022 185.821 185.081L185.855 186.793C185.896 188.848 183.589 189.967 180.719 190.025Z" fill="#8043F9"/>
<path d="M180.408 199.343C177.538 199.232 175.256 198.068 175.334 196.013L175.401 194.3C175.483 192.245 177.969 188.296 180.835 188.407C183.705 188.519 185.871 192.649 185.792 194.705L185.726 196.417C185.647 198.472 183.278 199.454 180.408 199.343Z" fill="#8043F9"/>
<path d="M181.448 209.227C178.598 209.594 176.154 208.83 175.885 206.788L175.666 205.087C175.401 203.049 177.186 198.74 180.035 198.369C182.885 198.002 185.714 201.712 185.979 203.754L186.198 205.455C186.468 207.497 184.297 208.859 181.448 209.227Z" fill="#8043F9"/>
<path d="M182.019 213.489C181.816 213.489 181.638 213.341 181.609 213.13C180.45 204.538 179.841 195.794 179.791 187.14C179.758 181.185 179.924 176.357 180.346 170.996C180.363 170.769 180.565 170.6 180.793 170.617C181.021 170.633 181.191 170.831 181.174 171.062C180.756 176.402 180.59 181.21 180.623 187.14C180.669 195.757 181.278 204.468 182.433 213.023C182.462 213.25 182.305 213.456 182.077 213.485C182.057 213.489 182.04 213.489 182.019 213.489Z" fill="#B678FD"/>
<path d="M167.929 189.331C169.47 188.853 170.472 187.664 169.991 186.129L169.594 184.85C169.113 183.315 166.922 180.678 165.378 181.156C163.837 181.635 163.526 185.044 164.007 186.583L164.404 187.862C164.889 189.393 166.388 189.81 167.929 189.331Z" fill="#8043F9"/>
<path d="M170.17 195.947C172.323 195.311 173.835 193.995 173.375 192.451L172.994 191.164C172.539 189.62 169.892 187.099 167.734 187.73C165.58 188.366 164.731 191.915 165.187 193.458L165.568 194.746C166.028 196.289 168.012 196.582 170.17 195.947Z" fill="#8043F9"/>
<path d="M172.609 202.826C174.726 202.067 176.155 200.664 175.604 199.149L175.148 197.886C174.601 196.372 171.81 194.007 169.697 194.766C167.581 195.526 166.943 199.12 167.49 200.635L167.945 201.897C168.492 203.412 170.493 203.585 172.609 202.826Z" fill="#8043F9"/>
<path d="M174.175 210.448C176.386 210.052 178.031 208.905 177.745 207.32L177.509 205.999C177.223 204.415 174.871 201.621 172.659 202.017C170.447 202.413 169.213 205.847 169.499 207.431L169.735 208.752C170.021 210.337 171.963 210.844 174.175 210.448Z" fill="#8043F9"/>
<path d="M174.659 213.869C174.46 213.869 174.287 213.729 174.253 213.527C173.09 206.874 171.478 200.238 169.474 193.797C168.095 189.369 166.831 185.82 165.253 181.936C165.166 181.726 165.27 181.487 165.481 181.4C165.692 181.313 165.933 181.416 166.019 181.627C167.606 185.531 168.873 189.1 170.261 193.549C172.278 200.024 173.893 206.697 175.065 213.382C175.102 213.605 174.953 213.82 174.73 213.861C174.705 213.869 174.684 213.869 174.659 213.869Z" fill="#B678FD"/>
<path d="M186.087 235.002H176.192C171.847 235.002 168.322 231.49 168.322 227.161V211.876H193.956V227.161C193.956 231.49 190.431 235.002 186.087 235.002Z" fill="#A17FFD"/>
<path d="M125.227 66.6553L94.0558 74.0216L91.3098 74.6694C90.5312 74.851 89.7484 74.9418 88.9656 74.9418C86.5965 74.9418 84.2729 74.1123 82.4215 72.5566C79.9654 70.4932 78.6359 67.3857 78.8389 64.1875L81.1044 28.8501L101.362 30.1376L101.035 35.2301L99.9662 51.8402L118.02 47.5773L116.455 51.6339L121.375 50.4702L125.227 66.6553Z" fill="#FFD3CF"/>
<path d="M125.227 66.6552L94.0559 74.0215C93.476 73.5923 92.9376 73.1012 92.453 72.5482C89.9762 69.7255 89.2721 65.768 90.6182 62.2685L101.035 35.23L99.9662 51.8402L118.02 47.5772L116.455 51.6338L121.375 50.4701L125.227 66.6552Z" fill="#D6B1AE"/>
<ellipse cx="108.855" cy="240.602" rx="82.8151" ry="6.0168" fill="#E8E7EC"/>
<path d="M3.59087 121.566C3.48319 121.566 3.37964 121.525 3.29681 121.446C3.13528 121.285 3.13528 121.025 3.29681 120.864L7.67468 116.502C7.83621 116.341 8.09714 116.341 8.25867 116.502C8.4202 116.663 8.4202 116.923 8.25867 117.084L3.8808 121.446C3.80625 121.525 3.69856 121.566 3.59087 121.566Z" fill="#FF2D3D"/>
<path d="M7.9729 121.566C7.86521 121.566 7.76167 121.525 7.67883 121.446L3.30096 117.084C3.13943 116.923 3.13943 116.663 3.30096 116.502C3.46249 116.341 3.72342 116.341 3.88495 116.502L8.26282 120.864C8.42435 121.025 8.42435 121.285 8.26282 121.446C8.18413 121.525 8.07644 121.566 7.9729 121.566Z" fill="#FF2D3D"/>
<path d="M47.5808 46.9047C47.4276 46.9047 47.2826 46.8221 47.208 46.6736L46.1022 44.4575C45.9986 44.2553 46.0856 44.0077 46.2886 43.9045C46.4957 43.8013 46.7442 43.888 46.8436 44.0902L47.9494 46.3063C48.053 46.5085 47.966 46.7561 47.763 46.8593C47.7051 46.8882 47.6429 46.9047 47.5808 46.9047Z" fill="#E8E7EC"/>
<path d="M44.2425 40.2027C44.0893 40.2027 43.9443 40.1202 43.8698 39.9716L41.6373 35.49C41.5338 35.2836 41.6208 35.036 41.8237 34.937C42.0308 34.8338 42.2793 34.9205 42.3787 35.1227L44.6111 39.6043C44.7147 39.8107 44.6277 40.0583 44.4248 40.1573C44.3668 40.1903 44.3047 40.2027 44.2425 40.2027Z" fill="#E8E7EC"/>
<path d="M39.7777 31.2394C39.6245 31.2394 39.4795 31.1569 39.4049 31.0083L38.2991 28.7922C38.1955 28.59 38.2825 28.3424 38.4855 28.2392C38.6884 28.1361 38.9369 28.2227 39.0405 28.4249L40.1463 30.641C40.2499 30.8432 40.1629 31.0908 39.9599 31.194C39.902 31.227 39.8398 31.2394 39.7777 31.2394Z" fill="#E8E7EC"/>
<path d="M148.094 8.01402C147.936 8.01402 147.783 7.92324 147.717 7.77055L144.987 1.67533C144.892 1.46899 144.987 1.22139 145.199 1.1306C145.406 1.03568 145.654 1.1306 145.745 1.34106L148.475 7.43628C148.57 7.64262 148.475 7.89022 148.264 7.98101C148.206 8.00577 148.152 8.01402 148.094 8.01402Z" fill="#A17FFD"/>
<path d="M159.277 7.41984C159.252 7.41984 159.223 7.41571 159.198 7.41158C158.974 7.36619 158.825 7.1516 158.871 6.92875L160.155 0.379595C160.2 0.15675 160.416 0.00818699 160.639 0.0535813C160.863 0.0989756 161.012 0.313567 160.967 0.536412L159.683 7.08557C159.645 7.28365 159.471 7.41984 159.277 7.41984Z" fill="#A17FFD"/>
<path d="M168.919 11.2246C168.836 11.2246 168.753 11.1999 168.683 11.1503C168.496 11.0183 168.447 10.7624 168.579 10.5767L172.402 5.09639C172.535 4.91069 172.791 4.8653 172.978 4.99323C173.164 5.12528 173.214 5.38114 173.081 5.56684L169.258 11.0472C169.176 11.1627 169.047 11.2246 168.919 11.2246Z" fill="#A17FFD"/>
<path d="M175.322 17.9762C175.16 17.9762 175.007 17.8813 174.941 17.7203C174.854 17.5099 174.953 17.2664 175.165 17.1797L181.348 14.6129C181.559 14.5262 181.8 14.6253 181.891 14.8357C181.978 15.0462 181.878 15.2897 181.667 15.3763L175.483 17.9432C175.425 17.9638 175.372 17.9762 175.322 17.9762Z" fill="#A17FFD"/>
<path d="M36.6382 115.722C36.5637 115.722 36.485 115.702 36.4146 115.656C36.2199 115.532 36.1661 115.277 36.2903 115.087L37.6281 112.999C37.7524 112.809 38.0092 112.751 38.1997 112.875C38.3944 112.999 38.4482 113.254 38.3239 113.444L36.9861 115.532C36.9116 115.656 36.7749 115.722 36.6382 115.722Z" fill="#E8E7EC"/>
<path fill-rule="evenodd" clip-rule="evenodd" d="M50.2026 94.1435C50.273 94.1889 50.3517 94.2095 50.4263 94.2095C50.563 94.2095 50.6955 94.1435 50.7742 94.0197L53.2634 90.1364C53.3876 89.9466 53.3338 89.6907 53.1391 89.5669C52.9486 89.4431 52.6918 89.4968 52.5676 89.6907L50.0784 93.574C49.9541 93.7638 50.0079 94.0197 50.2026 94.1435ZM45.4437 101.98C45.3691 101.98 45.2905 101.96 45.22 101.914C45.0254 101.79 44.9715 101.535 45.0958 101.345L47.585 97.4614C47.7093 97.2716 47.966 97.2138 48.1566 97.3376C48.3512 97.4614 48.4051 97.7173 48.2808 97.9071L45.7916 101.79C45.7171 101.914 45.5804 101.98 45.4437 101.98ZM40.4653 109.751C40.3907 109.751 40.312 109.73 40.2416 109.685C40.0469 109.561 39.9931 109.305 40.1174 109.115L42.6066 105.232C42.7308 105.042 42.9876 104.984 43.1781 105.108C43.3728 105.232 43.4266 105.488 43.3024 105.678L40.8132 109.561C40.7386 109.685 40.6019 109.751 40.4653 109.751Z" fill="#E8E7EC"/>
<path d="M55.4047 86.4388C55.3302 86.4388 55.2515 86.4182 55.1811 86.3728C54.9864 86.249 54.9326 85.9931 55.0568 85.8033L56.3946 83.7152C56.5189 83.5212 56.7757 83.4675 56.9662 83.5914C57.1608 83.7152 57.2147 83.971 57.0904 84.1608L55.7526 86.249C55.6739 86.3728 55.5414 86.4388 55.4047 86.4388Z" fill="#E8E7EC"/>
<ellipse cx="48.024" cy="186.822" rx="6.64343" ry="6.61932" fill="#FFBC00"/>
<path d="M49.4571 192.175L49.2459 191.378C50.1074 191.151 50.886 190.681 51.4949 190.025C52.3522 189.1 52.7995 187.899 52.7498 186.641C52.7001 185.382 52.1617 184.218 51.2381 183.364C49.3246 181.598 46.3259 181.713 44.5532 183.62C44.1805 184.02 43.8823 184.478 43.671 184.978L42.9089 184.656C43.1574 184.07 43.5095 183.533 43.9444 183.063C46.0277 180.822 49.5482 180.686 51.7972 182.762C52.8865 183.764 53.5161 185.134 53.574 186.612C53.632 188.089 53.106 189.501 52.0996 190.586C51.383 191.358 50.4718 191.906 49.4571 192.175Z" fill="#BD8B00"/>
<path d="M47.6927 188.844C47.3779 188.824 47.1211 188.778 46.9265 188.716C46.7318 188.654 46.5827 188.597 46.4874 188.543L46.7111 187.92C46.8519 187.99 47.0217 188.052 47.2205 188.11C47.4193 188.168 47.6471 188.196 47.9039 188.196C48.2063 188.196 48.4175 188.151 48.5335 188.06C48.6494 187.969 48.7074 187.85 48.7074 187.701C48.7074 187.602 48.6826 187.511 48.6329 187.437C48.5832 187.363 48.5169 187.297 48.4299 187.239C48.3429 187.181 48.2394 187.128 48.1151 187.082C47.995 187.033 47.8625 186.983 47.7175 186.929C47.5809 186.88 47.4442 186.826 47.3116 186.764C47.1791 186.703 47.0549 186.628 46.9472 186.537C46.8395 186.447 46.7525 186.339 46.6862 186.211C46.62 186.084 46.5868 185.931 46.5868 185.745C46.5868 185.444 46.6779 185.184 46.856 184.973C47.0341 184.763 47.3116 184.623 47.6885 184.561V183.826H48.3761V184.536C48.5873 184.552 48.7778 184.581 48.9435 184.627C49.1092 184.668 49.2417 184.709 49.3411 184.746L49.1754 185.398C49.047 185.349 48.8979 185.304 48.724 185.262C48.55 185.217 48.3512 185.196 48.1276 185.196C47.8915 185.196 47.7134 185.238 47.5933 185.324C47.4732 185.411 47.4152 185.526 47.4152 185.675C47.4152 185.762 47.4318 185.836 47.469 185.894C47.5063 185.951 47.556 186.005 47.6264 186.05C47.6968 186.096 47.7838 186.141 47.8832 186.183C47.9826 186.224 48.0986 186.269 48.227 186.31C48.4092 186.381 48.579 186.455 48.7364 186.529C48.8979 186.608 49.0346 186.694 49.1547 186.797C49.2748 186.901 49.366 187.02 49.4364 187.161C49.5068 187.301 49.5399 187.466 49.5399 187.66C49.5399 187.949 49.4488 188.196 49.2707 188.407C49.0885 188.617 48.7944 188.754 48.3802 188.815V189.637H47.6927V188.844Z" fill="#BD8B00"/>
<ellipse cx="32.8402" cy="87.7099" rx="6.64343" ry="6.61932" fill="#FFBC00"/>
<path d="M32.8486 93.248C32.6539 93.248 32.4592 93.2397 32.2646 93.2191C30.7901 93.0664 29.4606 92.3483 28.5245 91.2011C27.5885 90.0539 27.1577 88.6095 27.311 87.1404C27.4642 85.6713 28.1849 84.3466 29.3363 83.4139C30.4877 82.4813 31.9374 82.0521 33.4118 82.2048C34.4597 82.3121 35.4496 82.7124 36.2738 83.3603L35.7602 84.0082C35.0603 83.4593 34.2195 83.1168 33.3249 83.026C32.0658 82.894 30.8356 83.2612 29.854 84.0536C28.8724 84.8459 28.2595 85.9725 28.1311 87.2229C27.9985 88.4733 28.3671 89.7031 29.1624 90.6811C29.9576 91.6592 31.0883 92.2699 32.3433 92.3979C32.89 92.4556 33.4325 92.4185 33.9627 92.2906L34.1615 93.0912C33.7349 93.1943 33.2917 93.248 32.8486 93.248Z" fill="#BD8B00"/>
<path d="M32.6787 87.3013H33.8508V87.9451H32.6787C32.6787 88.1349 32.6704 88.333 32.6538 88.5476C32.6372 88.7581 32.6165 88.9603 32.5834 89.1501H34.3975V89.8186H31.6929C31.8254 89.1501 31.8917 88.5228 31.8917 87.9451H31.2994V87.3013H31.8917V86.868C31.8917 86.5337 31.929 86.2614 32.0035 86.0427C32.0781 85.8239 32.1816 85.6548 32.3142 85.5268C32.4467 85.3989 32.6041 85.3081 32.7905 85.2586C32.9769 85.2049 33.1757 85.1802 33.3952 85.1802C33.5816 85.1802 33.7431 85.1967 33.8881 85.2338C34.0289 85.2668 34.1697 85.3164 34.3022 85.37L34.1034 86.0138C33.8963 85.9189 33.6685 85.8652 33.4242 85.8611C33.3082 85.8611 33.2047 85.8735 33.1135 85.9024C33.0224 85.9312 32.9437 85.9808 32.8775 86.055C32.8153 86.1293 32.7656 86.2242 32.7284 86.3522C32.6911 86.476 32.6745 86.6328 32.6745 86.8226V87.3013H32.6787Z" fill="#BD8B00"/>
<ellipse cx="189.661" cy="53.3959" rx="6.64343" ry="6.61931" fill="#FFBC00"/>
<path d="M186.273 57.7828C185.768 57.3949 185.333 56.9244 184.985 56.3838C184.185 55.1375 183.916 53.656 184.235 52.2117C184.55 50.7673 185.416 49.5293 186.666 48.7328C187.917 47.9364 189.404 47.6681 190.854 47.9859C192.303 48.3036 193.546 49.162 194.345 50.4083C194.913 51.2914 195.219 52.3107 195.223 53.3548L194.395 53.3589C194.391 52.4717 194.13 51.605 193.645 50.8498C192.962 49.7893 191.91 49.0588 190.676 48.7906C189.441 48.5224 188.174 48.7493 187.114 49.4261C186.049 50.107 185.316 51.1552 185.047 52.385C184.778 53.6148 185.006 54.8734 185.685 55.934C185.983 56.3962 186.352 56.7965 186.782 57.1266L186.273 57.7828Z" fill="#BD8B00"/>
<path d="M188.178 52.3727C188.29 51.8692 188.497 51.4895 188.808 51.2378C189.118 50.9861 189.516 50.8582 189.996 50.8582C190.191 50.8582 190.352 50.8705 190.489 50.8994C190.622 50.9242 190.758 50.9613 190.895 51.0108L190.725 51.6546C190.622 51.6133 190.51 51.5845 190.394 51.5597C190.278 51.5349 190.145 51.5226 189.996 51.5226C189.698 51.5226 189.466 51.5968 189.309 51.7495C189.147 51.9022 189.035 52.1086 188.977 52.3685H190.473L190.369 52.9257H188.899C188.895 52.9793 188.89 53.0288 188.89 53.0742C188.89 53.1196 188.89 53.1691 188.89 53.2145C188.89 53.2599 188.89 53.3012 188.89 53.3383C188.89 53.3796 188.89 53.4209 188.899 53.4704H190.266L190.154 54.0358H188.973C189.044 54.3618 189.164 54.5846 189.338 54.7167C189.512 54.8446 189.727 54.9106 189.988 54.9106C190.154 54.9106 190.307 54.8941 190.448 54.8652C190.589 54.8363 190.721 54.7909 190.85 54.7332L191.015 55.3687C190.916 55.4182 190.771 55.4636 190.584 55.509C190.398 55.5544 190.187 55.5792 189.951 55.5792C189.421 55.5792 189.011 55.443 188.725 55.1706C188.439 54.8982 188.253 54.5186 188.166 54.0358H187.631V53.4704H188.112C188.108 53.4209 188.104 53.3796 188.104 53.3383C188.104 53.2971 188.104 53.2558 188.104 53.2145C188.104 53.165 188.104 53.1196 188.104 53.0701C188.104 53.0206 188.104 52.9752 188.112 52.9257H187.631V52.3685H188.178V52.3727Z" fill="#BD8B00"/>
<path d="M191.135 128.136L184.885 127.649C184.658 127.632 184.488 127.434 184.504 127.203C184.521 126.972 184.724 126.807 184.952 126.823L191.081 127.302L197.302 125.94H210.109L215.775 124.566C215.998 124.512 216.222 124.648 216.276 124.871C216.33 125.094 216.193 125.317 215.969 125.371L210.159 126.77H197.348L191.135 128.136Z" fill="#E8E7EC"/>
<path d="M205.578 102.55H195.786C195.559 102.55 195.372 102.364 195.372 102.137C195.372 101.91 195.559 101.724 195.786 101.724H205.578C205.806 101.724 205.992 101.91 205.992 102.137C205.992 102.364 205.806 102.55 205.578 102.55Z" fill="#E8E7EC"/>
<path d="M184.914 132.733C184.227 132.733 183.672 132.18 183.672 131.495V122.977C183.672 122.292 184.227 121.739 184.914 121.739C185.602 121.739 186.157 122.292 186.157 122.977V131.495C186.157 132.18 185.602 132.733 184.914 132.733Z" fill="#A17FFD"/>
<path d="M191.106 136.86C190.419 136.86 189.864 136.307 189.864 135.622V122.977C189.864 122.292 190.419 121.739 191.106 121.739C191.794 121.739 192.349 122.292 192.349 122.977V135.622C192.349 136.307 191.79 136.86 191.106 136.86Z" fill="#A17FFD"/>
<path d="M203.486 136.859C202.799 136.859 202.244 136.306 202.244 135.621V118.85C202.244 118.165 202.799 117.612 203.486 117.612C204.174 117.612 204.729 118.165 204.729 118.85V135.621C204.729 136.306 204.169 136.859 203.486 136.859Z" fill="#A17FFD"/>
<path d="M209.674 133.971C208.986 133.971 208.431 133.418 208.431 132.733V120.914C208.431 120.229 208.986 119.676 209.674 119.676C210.361 119.676 210.916 120.229 210.916 120.914V132.733C210.916 133.418 210.361 133.971 209.674 133.971Z" fill="#A17FFD"/>
<path d="M215.866 129.844C215.178 129.844 214.623 129.291 214.623 128.606V121.326C214.623 120.641 215.178 120.088 215.866 120.088C216.553 120.088 217.108 120.641 217.108 121.326V128.606C217.108 129.291 216.553 129.844 215.866 129.844Z" fill="#A17FFD"/>
<path d="M197.294 131.495C196.607 131.495 196.052 130.942 196.052 130.257V122.977C196.052 122.292 196.607 121.739 197.294 121.739C197.982 121.739 198.537 122.292 198.537 122.977V130.257C198.537 130.942 197.982 131.495 197.294 131.495Z" fill="#A17FFD"/>
<path d="M205.578 110.708H195.786C195.559 110.708 195.372 110.523 195.372 110.296C195.372 110.069 195.559 109.883 195.786 109.883H205.578C205.806 109.883 205.992 110.069 205.992 110.296C205.992 110.523 205.806 110.708 205.578 110.708Z" fill="#E8E7EC"/>
<rect x="187.544" y="99.1907" width="5.91449" height="5.89301" fill="#B678FD"/>
<rect x="187.544" y="107.349" width="5.91449" height="5.89301" fill="#8043F9"/>
<path d="M221.727 102.95H220.898V96.7145H216.081V95.8892H221.727V102.95Z" fill="#E8E7EC"/>
<path d="M177.153 102.95H176.324V95.8892H181.965V96.7145H177.153V102.95Z" fill="#E8E7EC"/>
<path d="M181.965 142.051H176.324V134.99H177.153V141.226H181.965V142.051Z" fill="#E8E7EC"/>
<path d="M221.727 142.051H216.081V141.226H220.898V134.99H221.727V142.051Z" fill="#E8E7EC"/>
<path d="M134.621 32.9604L138.713 26.0316C139.421 24.711 138.92 23.052 137.59 22.3422L137.449 22.268C136.124 21.5623 134.459 22.0616 133.747 23.3863L129.655 30.3151C128.946 31.6357 129.448 33.2946 130.777 34.0044L130.918 34.0787C132.243 34.7844 133.908 34.2809 134.621 32.9604Z" fill="#FFD3CF"/>
<path d="M130.984 28.4458C130.794 28.2312 129.199 26.502 126.979 26.7166C124.742 26.9312 122.783 29.0318 122.605 31.7884C122.481 32.3579 122.369 33.1874 122.493 34.1737C122.696 35.7584 123.4 36.8891 123.806 37.4462C125.297 38.8287 126.527 39.1341 127.435 39.0969C127.435 39.0969 129.323 39.0268 134.616 32.9604" fill="#FFD3CF"/>
<path d="M107.923 24.3849L112.015 17.4561C112.723 16.1356 112.222 14.4766 110.892 13.7668L110.751 13.6925C109.426 12.9868 107.761 13.4862 107.049 14.8109L102.957 21.7397C102.248 23.0602 102.75 24.7192 104.079 25.429L104.22 25.5033C105.549 26.209 107.214 25.7055 107.923 24.3849Z" fill="#FFD3CF"/>
<path d="M104.29 19.8703C104.1 19.6557 102.505 17.9266 100.285 18.1412C98.0485 18.3558 96.0894 20.4563 95.9113 23.213C95.7871 23.7825 95.6753 24.612 95.7995 25.5982C96.0025 27.1829 96.7066 28.3137 97.1125 28.8708C98.6035 30.2532 99.8336 30.5586 100.741 30.5215C100.741 30.5215 102.629 30.4513 107.923 24.385" fill="#FFD3CF"/>
<path d="M139.541 226.736C138.622 228.119 137.313 229.761 135.486 231.305C131.262 234.874 126.743 235.823 124.436 236.125C124.216 236.314 123.487 236.983 123.251 238.159C123.003 239.389 123.454 240.346 123.583 240.602H146.197V236.772H151.047V240.602H157.019V226.736C151.192 226.736 145.364 226.736 139.541 226.736Z" fill="#1B0E41"/>
<path d="M75.219 192.418C74.2996 193.8 72.9908 195.443 71.1642 196.986C66.9396 200.556 62.4209 201.505 60.1139 201.806C59.8944 201.996 59.1655 202.665 58.9294 203.841C58.6809 205.071 59.1323 206.028 59.2607 206.284H81.8749V202.454H86.7249V206.284H92.6974V192.418C86.8699 192.418 81.0465 192.418 75.219 192.418Z" fill="#1B0E41"/>
<path d="M95.286 33.406L83.7552 30.6287C81.0962 29.9891 79.4478 27.2984 80.0939 24.6532L83.2748 11.5507C83.9168 8.90137 86.6172 7.25892 89.2721 7.9027L100.803 10.68C103.462 11.3197 105.11 14.0103 104.464 16.6555L101.283 29.758C100.641 32.4032 97.9409 34.0457 95.286 33.406Z" fill="#FFD3CF"/>
<path d="M123.318 68.8631L118.944 46.979L137.437 43.3103C140.8 42.6417 144.072 44.8207 144.743 48.1716L146.69 57.9149C147.361 61.2658 145.174 64.5259 141.811 65.1945L123.318 68.8631Z" fill="#8043F9"/>
<path d="M157.595 32.4526L151.921 27.2736L147.394 24.0052L144.006 23.122C143.72 22.5567 142.519 20.027 143.422 16.9278C144.246 14.101 146.284 12.6318 146.86 12.2439C147.916 11.6786 149.705 10.9068 152.024 10.7996C156.543 10.5891 159.736 13.0569 160.606 13.7749C161.343 13.7419 164.123 13.7089 166.5 15.7145C167.825 16.8329 168.484 18.1245 168.795 18.8839C171.213 19.4864 172.957 21.3558 173.164 23.4934C173.346 25.3711 172.278 26.7825 171.98 27.1539C175.26 28.6808 177.302 31.7965 177.161 35.0071C177.033 37.9495 175.115 39.8808 174.585 40.3801C176.382 41.9731 177.617 43.793 177.811 45.8687C178.085 48.8111 176.043 49.8882 176.262 53.1359C176.461 56.07 178.225 56.6024 178.706 59.3508C179.029 61.2037 178.756 64.0017 175.769 67.8808C173.616 70.2537 171.984 70.654 170.87 70.555C168.84 70.3734 167.863 68.4792 166.111 68.896C164.727 69.2261 164.653 70.5715 163.369 70.6953C162.159 70.8108 161.803 69.6553 159.944 68.6401C157.193 67.1421 155.57 68.3554 154.543 67.0018C153.379 65.4667 154.22 62.2684 154.22 62.2684C152.273 62.19 150.662 60.8736 150.301 59.1569C149.867 57.0935 151.465 55.5501 151.552 55.4675C151.055 54.4895 150.471 53.1483 150.016 51.4976C150.016 51.4976 149.39 49.2114 149.295 47.0448C149.158 43.6526 151.995 37.8711 157.595 32.4526Z" fill="#1B0E41"/>
<path d="M168.997 56.1815L167.548 66.6015L163.104 98.522L118.095 95.8231L121.947 75.961L126.167 54.18L126.987 49.9501C128.006 46.0833 131.73 43.5577 135.71 44.0241L156.005 46.4176H156.009L161.973 47.1191C166.45 47.6474 169.619 51.7328 168.997 56.1815Z" fill="#8043F9"/>
<path d="M153.441 29.6341C151.142 29.0357 148.769 30.4182 148.168 32.7127L145.145 44.2346C144.544 46.5249 145.932 48.8896 148.235 49.4879C150.533 50.0863 152.907 48.7039 153.507 46.4094L156.531 34.8875C157.131 32.5971 155.74 30.2325 153.441 29.6341Z" fill="#FFD3CF"/>
<path d="M157.794 27.7524C157.794 27.7524 159.939 25.8541 161.716 28.7924C163.497 31.7306 159.02 33.8064 159.02 33.8064C158.916 33.8435 158.262 34.0581 157.607 33.6908C157.123 33.4185 156.928 32.9893 156.87 32.849C157.181 31.1487 157.487 29.4526 157.794 27.7524Z" fill="#FFD3CF"/>
<path d="M146.528 38.9854L145.803 41.7379C146.636 42.0475 148.231 42.5179 150.239 42.3157C152.658 42.0722 154.344 40.9869 155.073 40.4504C155.628 38.3292 156.183 36.2122 156.742 34.0911L146.528 38.9854Z" fill="#D6B1AE"/>
<path d="M146.18 39.7405C141.508 38.5231 138.684 33.7195 139.905 29.0604L141.148 24.3312C142.37 19.6762 147.191 16.8618 151.867 18.0791C156.539 19.2965 159.364 24.1001 158.142 28.7592L156.899 33.4884C155.677 38.1434 150.852 40.9579 146.18 39.7405Z" fill="#FFD3CF"/>
<ellipse cx="149.854" cy="26.9023" rx="0.952614" ry="0.949152" fill="#1B0E41"/>
<ellipse cx="145.356" cy="25.7302" rx="0.952606" ry="0.949153" fill="#1B0E41"/>
<path d="M151.697 25.7922C151.598 25.7922 151.498 25.755 151.42 25.6849C151.076 25.3712 150.658 25.1402 150.214 25.0122C149.842 24.9049 149.452 24.8719 149.063 24.9132C148.835 24.9338 148.632 24.7729 148.607 24.5459C148.583 24.3189 148.748 24.1167 148.976 24.092C149.473 24.0424 149.966 24.0837 150.442 24.2199C151.01 24.3808 151.54 24.678 151.979 25.0782C152.149 25.2309 152.161 25.4909 152.008 25.6601C151.925 25.7468 151.813 25.7922 151.697 25.7922Z" fill="#1B0E41"/>
<path d="M147.265 24.4798C147.183 24.4798 147.096 24.455 147.021 24.4014C146.644 24.1249 146.205 23.9392 145.75 23.8608C145.368 23.7947 144.975 23.803 144.594 23.8855C144.37 23.9351 144.151 23.7906 144.101 23.5678C144.051 23.3449 144.196 23.1262 144.42 23.0767C144.909 22.9735 145.402 22.9611 145.89 23.0437C146.47 23.1427 147.029 23.3821 147.51 23.7287C147.696 23.8649 147.733 24.1208 147.601 24.3065C147.518 24.422 147.39 24.4798 147.265 24.4798Z" fill="#1B0E41"/>
<path d="M145.443 33.3606C146.826 33.7197 148.239 32.8943 148.603 31.516L143.596 30.2119C143.231 31.5902 144.06 33.0016 145.443 33.3606Z" fill="white"/>
<path d="M149.03 17.3405C149.03 17.3405 150.484 25.2762 157.794 27.7523C165.108 30.2283 162.727 22.404 162.727 22.404C162.727 22.404 160.043 17.5221 159.008 17.0186C157.972 16.5151 153.292 15.9952 152.712 15.3803C152.132 14.7654 149.03 17.3405 149.03 17.3405Z" fill="#1B0E41"/>
<path d="M161.973 47.1193L156.009 46.4177H156.005L142.942 49.0093L143.173 50.1648L126.167 54.1801L121.947 75.9612L147.137 70.0063L147.315 70.8935L165.808 67.2248C166.434 67.101 167.014 66.8864 167.548 66.6017L168.998 56.1816C169.619 51.733 166.45 47.6475 161.973 47.1193Z" fill="#6838CC"/>
<path d="M141.289 26.2709L66.1484 28.9904L69.5033 0.165039L141.794 21.9295C142.705 22.3917 143.219 23.3822 143.066 24.3685C142.921 25.2887 142.217 26.048 141.289 26.2709Z" fill="#BDBDBD"/>
<path d="M75.6083 15.5001C74.6847 23.4441 70.4476 29.4857 66.1484 28.9864C61.8493 28.4912 59.1115 21.6449 60.0352 13.7009C60.9588 5.75688 65.1958 -0.284693 69.495 0.214644C73.7983 0.709855 76.5319 7.55614 75.6083 15.5001Z" fill="#E8E7EC"/>
<path d="M132.326 29.0728L137.213 15.793C137.768 14.2784 136.977 12.5906 135.461 12.0376L135.3 11.9798C133.78 11.4268 132.086 12.2151 131.531 13.7254L126.643 27.0053C126.088 28.5199 126.88 30.2077 128.395 30.7607L128.557 30.8185C130.077 31.3756 131.775 30.5874 132.326 29.0728Z" fill="#FFD3CF"/>
<path d="M126.656 28.1815L131.543 14.9016C132.098 13.3871 131.307 11.6992 129.791 11.1462L129.63 11.0885C128.11 10.5355 126.416 11.3237 125.861 12.8341L120.969 26.114C120.414 27.6285 121.205 29.3163 122.721 29.8693L122.883 29.9271C124.407 30.4801 126.101 29.696 126.656 28.1815Z" fill="#FFD3CF"/>
<path d="M116.823 25.9696L121.715 12.6897C122.27 11.1752 121.479 9.48732 119.963 8.93433L119.801 8.87656C118.281 8.32357 116.587 9.11178 116.032 10.6222L111.141 23.9021C110.586 25.4166 111.377 27.1044 112.893 27.6574L113.054 27.7152C114.574 28.2682 116.272 27.48 116.823 25.9696Z" fill="#FFD3CF"/>
<path d="M121.445 27.0096L126.337 13.7297C126.892 12.2152 126.101 10.5274 124.585 9.97437L124.423 9.9166C122.903 9.36361 121.209 10.1518 120.654 11.6622L115.763 24.9421C115.208 26.4566 115.999 28.1445 117.515 28.6975L117.676 28.7552C119.196 29.3082 120.895 28.52 121.445 27.0096Z" fill="#FFD3CF"/>
<path d="M123.123 39.6786L112.015 35.5313C109.455 34.5739 108.146 31.7058 109.103 29.1554L113.849 16.5358C114.81 13.9855 117.689 12.6814 120.249 13.6347L131.357 17.7821C133.916 18.7395 135.225 21.6076 134.269 24.1579L129.522 36.7775C128.561 39.3279 125.683 40.6361 123.123 39.6786Z" fill="#FFD3CF"/>
<path d="M104.787 14.1258L106.369 7.99754C106.734 6.42937 105.748 4.84882 104.174 4.48154L104.009 4.4444C102.435 4.08125 100.848 5.06341 100.48 6.63158L98.8977 12.7598C98.5332 14.328 99.5189 15.9085 101.093 16.2758L101.259 16.3129C102.837 16.6761 104.423 15.6939 104.787 14.1258Z" fill="#FFD3CF"/>
<path d="M99.0509 13.4861L100.633 7.35789C100.997 5.78972 100.012 4.20917 98.4379 3.84189L98.2722 3.80475C96.6983 3.4416 95.112 4.42377 94.7434 5.99193L93.1612 12.1202C92.7968 13.6883 93.7825 15.2689 95.3564 15.6362L95.522 15.6733C97.1001 16.0406 98.6864 15.0543 99.0509 13.4861Z" fill="#FFD3CF"/>
<path d="M94.0849 13.4861L95.6671 7.35789C96.0316 5.78972 95.0458 4.20917 93.4719 3.84189L93.3063 3.80475C91.7324 3.4416 90.1461 4.42377 89.7775 5.99193L88.1953 12.1202C87.8308 13.6883 88.8166 15.2689 90.3904 15.6362L90.5561 15.6733C92.1341 16.0406 93.7204 15.0543 94.0849 13.4861Z" fill="#FFD3CF"/>
<path d="M89.0236 13.0198L90.6058 6.89158C90.9703 5.32341 89.9845 3.74287 88.4106 3.37558L88.245 3.33844C86.6711 2.97529 85.0848 3.95746 84.7162 5.52562L83.134 11.6539C82.7695 13.222 83.7553 14.8026 85.3292 15.1698L85.4948 15.207C87.0687 15.5743 88.655 14.588 89.0236 13.0198Z" fill="#FFD3CF"/>
<path d="M93.2648 34.6151C92.598 34.6151 91.9725 34.4377 91.5045 34.1117C91.3181 33.9796 91.1525 33.8063 91.0241 33.6123C90.2951 34.0168 89.5413 34.153 88.7792 34.0126C87.2385 33.7279 86.0581 32.4032 85.3415 31.3426C85.2131 31.1528 85.2628 30.8969 85.4534 30.769C85.6439 30.6411 85.9007 30.6906 86.0291 30.8804C86.9196 32.1969 87.9467 33.0181 88.9283 33.1997C89.5247 33.3111 90.1253 33.1873 90.7134 32.8365C90.6969 32.7416 90.6886 32.6467 90.6844 32.5518C90.6679 32.0401 90.8584 31.5985 91.2229 31.3014C91.3678 31.1817 91.5169 31.1157 91.6702 31.0992C92.2625 31.029 92.4613 31.3096 92.5275 31.4829C92.7264 32.0029 92.0802 32.7416 91.695 33.1171C91.7737 33.2451 91.8731 33.3565 91.9891 33.439C92.4406 33.7568 93.1322 33.8723 93.8405 33.7362C94.5197 33.6082 95.0955 33.2698 95.3854 32.8324C95.5096 32.6426 95.7664 32.5889 95.9569 32.7127C96.1475 32.8365 96.2013 33.0924 96.0771 33.2822C95.6629 33.9136 94.9049 34.3717 93.9937 34.545C93.7452 34.5945 93.5009 34.6151 93.2648 34.6151Z" fill="#8F7676"/>
<path d="M106.788 73.9019C103.897 73.9019 101.101 72.668 99.1503 70.4479C96.6735 67.6252 95.9652 63.6676 97.3155 60.1681L111.526 23.2791L130.475 30.5256L123.152 49.5335L144.925 44.3874L149.61 64.0638L109.132 73.6255C108.353 73.8112 107.566 73.9019 106.788 73.9019Z" fill="#FFD3CF"/>
<path d="M146.392 65.7474L142.018 43.8632L160.511 40.1946C163.874 39.526 167.146 41.7049 167.817 45.0559L169.764 54.7991C170.435 58.1501 168.248 61.4102 164.885 62.0787L146.392 65.7474Z" fill="#8043F9"/>
<path d="M121.197 55.0386C121.147 55.0386 121.098 55.0303 121.048 55.0097C120.833 54.9271 120.729 54.6878 120.808 54.4773L124.921 43.7601C125.003 43.5455 125.239 43.4424 125.455 43.5208C125.67 43.6033 125.774 43.8427 125.695 44.0531L121.582 54.7703C121.52 54.9395 121.363 55.0386 121.197 55.0386Z" fill="#8F7676"/>
<path d="M124.85 17.9184C124.805 17.9184 124.763 17.9101 124.718 17.8978C124.502 17.8235 124.386 17.5924 124.457 17.3737L126.312 11.9016C126.387 11.687 126.623 11.5714 126.838 11.6416C127.054 11.7159 127.169 11.947 127.099 12.1657L125.244 17.6378C125.186 17.807 125.024 17.9184 124.85 17.9184Z" fill="#8F7676"/>
<path d="M129.746 19.5402C129.7 19.5402 129.659 19.532 129.613 19.5196C129.398 19.4453 129.282 19.2142 129.352 18.9955L131.208 13.5234C131.282 13.3088 131.514 13.1933 131.734 13.2634C131.949 13.3377 132.065 13.5688 131.995 13.7875L130.139 19.2596C130.077 19.4288 129.916 19.5402 129.746 19.5402Z" fill="#8F7676"/>
<path d="M119.872 16.5275C119.826 16.5275 119.785 16.5193 119.739 16.5069C119.524 16.4326 119.408 16.2015 119.478 15.9828L121.334 10.5107C121.408 10.2961 121.644 10.1806 121.86 10.2507C122.075 10.325 122.191 10.5561 122.121 10.7748L120.265 16.2469C120.207 16.4161 120.046 16.5275 119.872 16.5275Z" fill="#8F7676"/>
<path d="M89.5662 11.328C89.5413 11.328 89.5124 11.3238 89.4875 11.3197C89.2638 11.2743 89.1147 11.0597 89.1603 10.8369L90.3366 4.82833C90.3821 4.60548 90.5975 4.45692 90.8212 4.50231C91.0448 4.54771 91.1939 4.7623 91.1484 4.98514L89.9721 10.9937C89.9348 11.1918 89.7609 11.328 89.5662 11.328Z" fill="#8F7676"/>
<path d="M94.2008 11.4559C94.176 11.4559 94.147 11.4518 94.1221 11.4476C93.8985 11.4022 93.7494 11.1877 93.7949 10.9648L94.9712 4.95626C95.0168 4.73341 95.2322 4.58485 95.4558 4.63024C95.6795 4.67564 95.8286 4.89023 95.783 5.11307L94.6067 11.1216C94.5653 11.3197 94.3914 11.4559 94.2008 11.4559Z" fill="#8F7676"/>
<path d="M99.4361 12.0543C99.4112 12.0543 99.3822 12.0502 99.3574 12.046C99.1337 12.0006 98.9846 11.786 99.0302 11.5632L100.206 5.55464C100.252 5.3318 100.467 5.18324 100.691 5.22863C100.915 5.27402 101.064 5.48862 101.018 5.71146L99.842 11.72C99.8047 11.9181 99.6307 12.0543 99.4361 12.0543Z" fill="#8F7676"/>
<path fill-rule="evenodd" clip-rule="evenodd" d="M42.9089 5.4183C45.1124 7.61374 45.1124 11.1793 42.9089 13.3747C41.0286 15.2441 38.1542 15.5206 35.9839 14.2124L32.7408 17.4437L33.9792 18.6776L32.2273 20.4232L30.9889 19.1893L29.1748 20.9968L30.4131 22.2307L28.6612 23.9763L27.4228 22.7424L26.2838 23.8773L24.3868 21.9872L34.0911 12.3182C32.7657 10.1517 33.0432 7.29185 34.9236 5.4183C37.127 3.22287 40.7055 3.22287 42.9089 5.4183ZM39.0985 7.15979C38.5311 7.72516 38.5311 8.64542 39.0985 9.21079C39.67 9.77616 40.5895 9.77616 41.1569 9.21079C41.7244 8.64542 41.7244 7.72516 41.1569 7.15979C40.5895 6.59443 39.6659 6.59443 39.0985 7.15979Z" fill="#FFBC00"/>
<path d="M35.9839 14.2043L32.7409 17.4355L33.9792 18.6694L32.2273 20.415L30.9889 19.1811L29.1748 20.9887L30.4132 22.2226L28.6612 23.9682L27.4228 22.7343L26.2838 23.8691L25.3353 22.9241L39.1068 9.20264C39.6742 9.76801 40.5978 9.76801 41.1653 9.20264C41.7327 8.63728 41.7327 7.71701 41.1653 7.15165L42.9131 5.41016C45.1165 7.60559 45.1165 11.1711 42.9131 13.3665C41.0286 15.2442 38.1542 15.5207 35.9839 14.2043Z" fill="#FFBC00"/>
<path d="M48.8192 60.2217L45.775 70.9017C45.7792 70.91 45.7874 70.9223 45.7957 70.943C45.804 70.9636 45.8082 70.976 45.8164 70.9843L49.8961 76.869C50.0452 77.0795 50.2482 77.2115 50.5132 77.261C50.7783 77.3106 51.0144 77.261 51.2298 77.1125L55.9556 73.8606L52.6918 69.152L55.8437 66.9854L59.1075 71.6941L63.8332 68.4422C64.0445 68.2936 64.177 68.0914 64.2267 67.8273C64.2764 67.5632 64.2267 67.3279 64.0776 67.1134L59.9979 61.2286C59.9772 61.1956 59.9524 61.175 59.9358 61.1626L48.8192 60.2217Z" fill="#BDBDBD"/>
<path d="M61.7127 57.9766L57.4715 57.6011L54.0048 52.5995C53.9261 52.4839 53.8226 52.4179 53.6983 52.3931C53.5741 52.3684 53.4539 52.3973 53.338 52.4757L50.9772 54.1016C50.8612 54.18 50.7949 54.2832 50.7701 54.407C50.7494 54.5308 50.7742 54.6505 50.857 54.766L52.5138 57.1554L47.7756 56.7221C47.3655 56.6891 46.9803 56.7964 46.62 57.0481C46.2597 57.2957 46.0194 57.6176 45.9076 58.0097L42.151 71.4422C42.1137 71.5619 42.1303 71.6816 42.1966 71.7971C42.2628 71.9127 42.3581 71.9911 42.4823 72.0282L43.874 72.412C43.99 72.4409 44.1059 72.4244 44.226 72.3708C44.3296 72.313 44.4083 72.2139 44.4621 72.0819L48.0738 59.1445L61.4932 60.3578C61.5967 60.3702 61.7044 60.3371 61.8121 60.267L61.8494 60.2422C61.9446 60.1514 61.9985 60.0483 62.015 59.9286L62.1476 58.4966C62.1559 58.3687 62.1186 58.2531 62.0316 58.15C61.9446 58.0427 61.8411 57.9849 61.7127 57.9766Z" fill="#BDBDBD"/>
<path d="M13.7217 160.675H0.273315V124.607H13.1709C13.3987 124.607 13.585 124.793 13.585 125.02C13.585 125.247 13.3987 125.433 13.1709 125.433H1.10167V159.85H13.7217C13.9495 159.85 14.1359 160.035 14.1359 160.262C14.1359 160.489 13.9537 160.675 13.7217 160.675Z" fill="#E8E7EC"/>
<path d="M62.3214 160.675H49.4239C49.1961 160.675 49.0097 160.489 49.0097 160.262C49.0097 160.035 49.1961 159.85 49.4239 159.85H61.4931V125.433H48.873C48.6452 125.433 48.4589 125.247 48.4589 125.02C48.4589 124.793 48.6452 124.607 48.873 124.607H62.3214V160.675Z" fill="#E8E7EC"/>
<path d="M49.2831 139.381H39.4919C39.2641 139.381 39.0778 139.195 39.0778 138.968C39.0778 138.741 39.2641 138.556 39.4919 138.556H49.2831C49.5109 138.556 49.6973 138.741 49.6973 138.968C49.6973 139.195 49.5109 139.381 49.2831 139.381Z" fill="#E8E7EC"/>
<path d="M49.2831 141.865H39.4919C39.2641 141.865 39.0778 141.679 39.0778 141.452C39.0778 141.226 39.2641 141.04 39.4919 141.04H49.2831C49.5109 141.04 49.6973 141.226 49.6973 141.452C49.6973 141.679 49.5109 141.865 49.2831 141.865Z" fill="#E8E7EC"/>
<path d="M49.2831 144.35H39.4919C39.2641 144.35 39.0778 144.164 39.0778 143.937C39.0778 143.71 39.2641 143.524 39.4919 143.524H49.2831C49.5109 143.524 49.6973 143.71 49.6973 143.937C49.6973 144.164 49.5109 144.35 49.2831 144.35Z" fill="#E8E7EC"/>
<path d="M49.2831 146.834H39.4919C39.2641 146.834 39.0778 146.648 39.0778 146.421C39.0778 146.194 39.2641 146.009 39.4919 146.009H49.2831C49.5109 146.009 49.6973 146.194 49.6973 146.421C49.6973 146.648 49.5109 146.834 49.2831 146.834Z" fill="#E8E7EC"/>
<path d="M54.5598 136.69H40.5979C39.6163 136.69 38.8127 135.89 38.8127 134.912C38.8127 133.934 39.6163 133.133 40.5979 133.133H54.5598C55.5414 133.133 56.3449 133.934 56.3449 134.912C56.3449 135.89 55.5414 136.69 54.5598 136.69Z" fill="#E8E7EC"/>
<path d="M21.2474 147.391L25.2483 154.25C19.0605 157.836 11.129 155.739 7.53803 149.574C3.94296 143.413 6.04699 135.51 12.2307 131.928C18.4185 128.346 26.35 130.442 29.941 136.604C31.0137 138.444 31.5811 140.437 31.6764 142.426L23.72 142.831C23.5833 140.206 21.4006 138.11 18.7292 138.11C15.9666 138.11 13.73 140.338 13.73 143.087C13.73 145.839 15.9666 148.068 18.7292 148.068C19.6486 148.068 20.5101 147.82 21.2474 147.391Z" fill="#8043F9"/>
<path d="M27.8825 155.937L22.5645 146.813C23.0822 146.198 23.4467 145.464 23.6165 144.659L34.3189 144.11C34.5549 148.782 32.2231 153.42 27.8825 155.937Z" fill="#B678FD"/>
<path d="M163.907 223.109C163.783 225.11 162.238 226.745 160.242 226.959C153.139 227.735 137.772 227.652 130.251 227.553C127.894 227.525 126.039 225.544 126.171 223.196L130.334 149.512L130.988 137.953L130.794 139.261L131.17 130.897L103.864 144.123L98.7485 192.418L85.2794 192.026C92.9293 157.824 105.52 109.47 118.095 95.8232L163.104 98.5221C163.104 98.5221 170.455 117.749 163.907 223.109Z" fill="#B678FD"/>
<rect x="42.1302" y="206.28" width="52.0623" height="35.2548" fill="#BDBDBD"/>
<rect x="74.2457" y="214.954" width="31.2125" height="26.5804" fill="#BDBDBD"/>
<rect x="89.5165" y="223.905" width="25.7827" height="17.6295" fill="#BDBDBD"/>
<path d="M130.794 139.261L131.171 130.897L103.864 144.123L101.445 188.568C101.329 190.734 99.5438 192.439 97.3652 192.472L66.4509 192.897C63.767 192.934 61.7582 190.458 62.3546 187.85L76.2959 127.215C77.7704 120.802 81.9453 115.33 87.7521 112.194L118.091 95.8232C118.091 95.8232 147.642 113.993 149.601 115.343C151.561 116.692 130.33 149.512 130.33 149.512L130.794 139.261Z" fill="#B678FD"/>
<path fill-rule="evenodd" clip-rule="evenodd" d="M49.2831 157.58H56.5519V150.907H49.2831V157.58ZM55.7236 156.755H50.1114V151.732H55.7236V156.755Z" fill="#E8E7EC"/>
<path d="M51.7268 156.214L48.8151 152.45C48.6743 152.269 48.7074 152.009 48.8897 151.873C49.0719 151.732 49.3287 151.765 49.4695 151.947L51.7972 154.96L58.0969 148.522C58.2584 148.357 58.5193 148.357 58.6809 148.514C58.8465 148.675 58.8465 148.935 58.6892 149.095L51.7268 156.214Z" fill="#00C090"/>
</svg>
