<?xml version="1.0" encoding="utf-8"?>
<!-- Generator: Adobe Illustrator 26.0.3, SVG Export Plug-In . SVG Version: 6.00 Build 0)  -->
<svg version="1.1" id="Layer_1" xmlns="http://www.w3.org/2000/svg" xmlns:xlink="http://www.w3.org/1999/xlink" x="0px" y="0px"
	 viewBox="0 0 170 89.5" style="enable-background:new 0 0 170 89.5;" xml:space="preserve">
<defs>
	<filter id="Adobe_OpacityMaskFilter" filterUnits="userSpaceOnUse" x="0.3" y="0.1" width="169.5" height="114.9">
		<feColorMatrix  type="matrix" values="1 0 0 0 0  0 1 0 0 0  0 0 1 0 0  0 0 0 1 0"/>
	</filter>
</defs>
<mask maskUnits="userSpaceOnUse" x="0.3" y="0.1" width="169.5" height="114.9" id="mask0_401_2171_00000036950622953519214290000011372502290476591017_">
	<path style="fill:#FFFFFF;filter:url(#Adobe_OpacityMaskFilter);" d="M-1.2-8.5h304c6.6,0,12,5.4,12,12v74c0,6.6-5.4,12-12,12h-304
		c-6.6,0-12-5.4-12-12v-74C-13.2-3.1-7.8-8.5-1.2-8.5z"/>
</mask>
<g style="mask:url(#mask0_401_2171_00000036950622953519214290000011372502290476591017_);">
	<circle style="opacity:0.42;fill:#DCBDFF;enable-background:new    ;" cx="134.3" cy="41" r="35.5"/>
	<path style="fill:#FFD3CF;" d="M32.6,50.1l6,30.3c0.8,4.1,3.9,7.5,8,8.6c1.7,0.5,3.5,0.5,5.3,0.2c2.3-0.5,4.4-1.6,6.1-3.4
		l36.9-39.7L78.3,30.9L56.4,54.5l-1.7-8.7L32.6,50.1z"/>
	<path style="fill:#FFD3CF;" d="M71.7,34.5c0,0-0.6-2.2,4.5-10.3l6.4,2.6c0.3,0.1,2.8,1.4,3.4,4c0.5,2.6-1.2,5.6-4.3,6.8
		c-0.6,0.3-1.5,0.8-2.7,1c0,0-2.1,1.2-2.5,1C76,39.1,71.4,39,71.4,39L71.7,34.5z"/>
	<path style="fill:#FFD3CF;" d="M88.4,49.4l12.7-3.9c2.6-0.8,4-3.6,3.2-6.1l-3.9-12.7c-0.8-2.6-3.6-4-6.1-3.2l-12.7,3.9
		c-2.6,0.8-4,3.6-3.2,6.1l3.9,12.7C83,48.7,85.8,50.2,88.4,49.4z"/>
	<path style="fill:#1B0E41;" d="M100.2,49.9c2.5-0.1,4.5-2.3,4.3-4.8l-1.8-32.5c-0.1-2.5-2.3-4.5-4.8-4.3L84.8,8.9
		c-2.5,0.1-4.5,2.3-4.3,4.8l1.8,32.5c0.1,2.5,2.3,4.5,4.8,4.3L100.2,49.9z"/>
	<path style="fill:#FFFFFF;" d="M84.9,10.5L98,9.8c1.7-0.1,3.1,1.2,3.2,2.9l1.8,32.5c0.1,1.7-1.2,3.1-2.9,3.2L87,49.1
		c-1.7,0.1-3.1-1.2-3.2-2.9L82,13.7C81.9,12,83.2,10.6,84.9,10.5z"/>
	<path style="fill:#1B0E41;" d="M86.3,9.4l10.2-0.6c0.8,0,1.6,0.6,1.6,1.4s-0.6,1.6-1.4,1.6l-10.2,0.6c-0.8,0-1.6-0.6-1.6-1.4
		S85.5,9.5,86.3,9.4z"/>
	<path style="fill:#FFD3CF;" d="M99.5,33.1l7.5-4c1.4-0.7,3.2-0.1,3.9,1.3l0.1,0.2c0.7,1.4,0.1,3.2-1.4,3.9l-7.5,4
		c-1.4,0.7-3.2,0.1-3.9-1.3L98.2,37C97.5,35.5,98.1,33.8,99.5,33.1z"/>
	<path style="fill:#FFD3CF;" d="M100,38.6l7.5-4c1.4-0.7,3.2-0.1,3.9,1.3l0.1,0.2c0.7,1.4,0.1,3.2-1.3,3.9l-7.5,4
		c-1.4,0.7-3.2,0.1-3.9-1.3l-0.1-0.2C97.9,41.1,98.6,39.3,100,38.6z"/>
	<path style="fill:#FFD3CF;" d="M76.2,24.1l6.5-7.1c1.3-1.3,3.3-1.3,4.6,0l0.1,0.1c1.3,1.3,1.3,3.3,0,4.6l-6.5,7.1
		c-1.3,1.3-3.3,1.3-4.6,0l-0.1-0.1C74.9,27.5,74.9,25.4,76.2,24.1z"/>
	<path style="fill-rule:evenodd;clip-rule:evenodd;fill:#F2A098;" d="M78.5,51.7c1.3,1.2,3.2,1.5,4.8,1.5c0.2,0,0.3,0,0.5,0
		c0.1,0,0.1,0,0.2,0c0.2,0,0.4-0.2,0.4-0.4c0-0.2-0.2-0.4-0.4-0.4c-2.2,0.1-3.9-0.3-4.9-1.3c-0.6-0.6-1-1.4-1.1-2.4
		c0.1-0.1,0.3-0.1,0.4-0.2c0.5-0.4,0.8-0.9,0.8-1.5c0-0.2,0-0.4-0.1-0.6c-0.3-0.6-0.7-0.6-0.9-0.5c-0.7,0.2-0.9,1.6-1,2.2
		c-0.3,0-0.5,0-0.8,0c-0.7-0.2-1.4-0.9-1.9-1.8c-0.4-0.9-0.5-1.8-0.3-2.5c0.1-0.2,0-0.4-0.2-0.5s-0.4,0-0.5,0.2
		c-0.3,0.9-0.2,2.1,0.3,3.1c0.5,1.1,1.4,1.9,2.4,2.2c0.3,0.1,0.7,0.1,1,0.1C77.3,50,77.7,50.9,78.5,51.7z M78,47.6
		c0.1-0.3,0.2-0.7,0.3-0.9l0,0c0,0,0,0,0,0.1c0,0,0,0,0,0c0,0,0,0,0,0.1C78.4,47.2,78.2,47.5,78,47.6z"/>
	<path style="fill:#8F7676;" d="M102.2,25.5c-0.1,0-0.3-0.1-0.4-0.2c-0.1-0.2,0-0.4,0.2-0.6l4.1-2.3c0.2-0.1,0.4,0,0.6,0.2
		c0.1,0.2,0,0.4-0.2,0.6l-4.1,2.3C102.4,25.4,102.3,25.5,102.2,25.5z"/>
	<path style="fill:#8F7676;" d="M104,31c-0.1,0-0.3-0.1-0.4-0.2c-0.1-0.2,0-0.4,0.2-0.6l4.1-2.3c0.2-0.1,0.4,0,0.6,0.2
		c0.1,0.2,0,0.4-0.2,0.6l-4.1,2.3C104.1,31,104,31,104,31z"/>
	<path style="fill:#F2A098;" d="M105.4,36.7c-0.1,0-0.3-0.1-0.4-0.2c-0.1-0.2,0-0.4,0.2-0.6l4.1-2.3c0.2-0.1,0.4,0,0.6,0.2
		c0.1,0.2,0,0.4-0.2,0.6l-4.1,2.3C105.6,36.7,105.5,36.7,105.4,36.7z"/>
	<path style="fill:#FFD3CF;" d="M54,28.1c-0.1,1.2-0.4,2.4-0.9,3.4c-0.5,1.1-1.4,1.9-2.5,2.6c0,0,0,0-0.1,0c0,0-0.1,0-0.1,0.1
		c-0.8,0.4-1.5,0.8-2,1.1v0l0.4,5.4l0.3,3.5c-0.4,2.8-2.7,4.9-5.4,5c-2.5,0.1-4.8-1.6-5.6-4c0-3.2-0.1-6.4-0.1-9.7
		c0-1.5,0-3-0.1-4.4c0-0.4,0-0.7,0-1.1c0-0.1,0-0.1,0-0.2c0-0.1,0-0.1,0-0.2l-3.3-14c0,0,4.8-13.7,16.2-1.6c0,0,2.9,5.9,3.4,11.4
		C54,26.3,54.1,27.3,54,28.1z"/>
	<path style="fill:#1B0E41;" d="M38.8,5.9c0,0,4.6-9.1,12-4.6c7.4,4.6,3.6,12.3-0.9,12.7c-4.6,0.4-9.5-1.6-9.5-1.6
		c-0.3,0.3-1.4,1.3-3.3,1.4c-1.6,0.2-2.9-0.4-3.3-0.6c0.2,0.3,0.8,0.9,0.8,1.9c0,1.7-1.5,2.7-1.7,2.8c0.4,1.4,0.8,2.7,1.2,4.1h-1.6
		l-2.8-4.3c0,0-6-2.7-2.7-9.8c2.3-5,6.8-1.9,6.8-1.9S34,2.2,38.8,5.9z"/>
	<path style="fill:#1B0E41;" d="M45,11c0,0,0.8,4.1,0,5.5c-0.8,1.4-2.2,1.7-2.9,2.2c-0.7,0.4-1,1.6-2,3.5S39.9,33.4,34.6,34
		c-5.2,0.7-5.3-17.7-5.3-17.7l0.6-6.7c0,0,6.3-1.4,7.4-1.2C38.5,8.7,45,11,45,11z"/>
	<path style="fill:#FFD3CF;" d="M46.3,17c0,0-1.9-3.7-5.9-0.7c-4,3,0.9,8.3,0.9,8.3l3.4-0.1L46.3,17z"/>
	<circle style="fill:#1B0E41;" cx="50.6" cy="17.9" r="1"/>
	<path style="fill:#1B0E41;" d="M51.2,16.1l-2.5,1.2c-0.3,0.1-0.6,0-0.7-0.2s0-0.6,0.2-0.7l2.5-1.2c0.3-0.1,0.6,0,0.7,0.2
		S51.5,15.9,51.2,16.1z"/>
	<path style="fill:#1B0E41;" d="M46.6,14.1c0,0-2.8-1.6-3.8-1.7c-1-0.1-2.6-0.6-2.1,0.1c0.5,0.7,0.2,1.3,0.1,2
		c0,0.3,0.1,0.5,0.2,0.7l-0.3,0c0.5,0.4,0.8,0.6,0.8,0.6l2.1,4.8l1.9,0.3c-0.1-1.4-0.1-2.8-0.2-4.2c0.1,0,0.6-0.2,1.2-0.5L46.6,14.1
		L46.6,14.1z"/>
	<path style="fill:#1B0E41;" d="M44.6,19.8l0.2,2.3c0,0.5-0.2,0.9,0.2,1.8c0.5,1.2,1.3,1.7,1.6,1.9c0.6,0.4,1.2,0.5,1.9,0.3
		c0.9-0.3,1.6-1.3,2.5-1.7c0.2-0.1,0.5-0.2,0.8-0.3c0.2,0,0.3-0.1,0.5-0.1c0.1,0,0.3,0,0.4,0c0.1,0,0.3,0,0.4,0c0.2,0,0.3,0,0.5,0.1
		c0.3,0.1,0.5,0.2,0.7,0.3c0.1,0.1,0.3,0.1,0.4,0.2c0.2,0.1,0.4,0.3,0.6,0.5c0.1,0.1,0.2,0.2,0.3,0.4c0.1,0.2,0.3,0.4,0.3,0.7
		c0,0.1,0.1,0.3,0.1,0.5c0,0,0,0,0,0c0,0.3,0.1,0.6,0.2,1.1c0.1,1.3,0.6,5.9-1,8c-0.6,0.8-1.9,1-4.4,1.3c-2.8,0.3-4.1,0.5-5-0.2
		c-1.5-1.2-1.7-3.7-2.1-7.5c-0.3-3.1-0.4-7.8-0.3-9.7C43.4,18.9,43.9,19.1,44.6,19.8z"/>
	<path style="fill:#1B0E41;" d="M56.7,23c0,0-0.5,1.6-1.5,1.8c-1,0.2-1.9-0.3-2.1-1c-0.2-0.8,0.5-2.6,1.5-1.8
		C56.4,23.6,56.7,23,56.7,23z"/>
	<path style="fill:#1B0E41;" d="M49.1,24.1c0,0,1.4,1.3,2.9,1.1c1.5-0.2,2.7-1,2.6-1.7c-0.1-0.8-1.8-2.2-2.9-1.1
		C49.6,24.5,49.1,24.1,49.1,24.1z"/>
	<path style="fill:#FFD3CF;" d="M124.5,54.1c0.3,0.1,2.8,1.4,3.3,4c0.5,2.6-1.2,5.6-4.3,6.7c-0.6,0.3-1.5,0.7-2.7,0.9
		c-1.9,0.3-3.4-0.1-4.2-0.4c-2.1-1.2-2.9-2.5-3.1-3.6c0,0-0.6-2.2,4.6-10.3"/>
	<path style="fill:#8F7676;" d="M125.2,51.8c-0.1,0-0.2-0.1-0.3-0.2c-0.1-0.2-0.1-0.4,0.1-0.6l5.2-4.2c0.2-0.1,0.4-0.1,0.6,0.1
		c0.1,0.2,0.1,0.4-0.1,0.6l-5.2,4.2C125.4,51.7,125.3,51.8,125.2,51.8z"/>
	<path style="fill:#FFD3CF;" d="M128.6,78l10.2-8.5c2.1-1.7,2.4-4.8,0.6-6.9L131,52.4c-1.7-2.1-4.8-2.4-6.9-0.6l-10.2,8.5
		c-2.1,1.7-2.4,4.8-0.6,6.9l8.5,10.2C123.4,79.5,126.6,79.7,128.6,78z"/>
	<path style="fill:#FFD3CF;" d="M123.1,52.6l16.6-13.4c1.2-1,3.1-0.9,4.1,0.4l0.1,0.1c1,1.2,0.9,3.1-0.4,4.1l-16.6,13.4
		c-1.2,1-3.1,0.9-4.1-0.4l-0.1-0.1C121.7,55.4,121.9,53.6,123.1,52.6z"/>
	<path style="fill:#FFD3CF;" d="M124.9,58.2l10.8-9c1.2-1,3.1-0.9,4.1,0.4l0.1,0.1c1,1.2,0.9,3.1-0.4,4.1l-10.8,9
		c-1.2,1-3.1,0.9-4.1-0.4l-0.1-0.1C123.5,61,123.6,59.2,124.9,58.2z"/>
	<path style="fill:#FFD3CF;" d="M127.1,64l10.8-9c1.2-1,3.1-0.9,4.1,0.4l0.1,0.1c1,1.2,0.9,3.1-0.4,4.1l-10.8,9
		c-1.2,1-3.1,0.9-4.1-0.4l-0.1-0.1C125.7,66.9,125.9,65,127.1,64z"/>
	<path style="fill:#FFD3CF;" d="M129.3,69.8l10.7-9.1c1.2-1,3.1-0.9,4.1,0.3l0.1,0.1c1,1.2,0.9,3.1-0.3,4.1l-10.7,9.1
		c-1.2,1-3.1,0.9-4.1-0.3l-0.1-0.1C128,72.7,128.1,70.8,129.3,69.8z"/>
	<path style="fill:#FFD3CF;" d="M118.1,51.4l6.6-7.1c1.3-1.3,3.4-1.3,4.6,0l0.1,0.1c1.3,1.3,1.3,3.4,0,4.6l-6.6,7.1
		c-1.3,1.3-3.4,1.3-4.6,0l-0.1-0.1C116.8,54.8,116.8,52.7,118.1,51.4z"/>
	<path style="fill:#F2A098;" d="M133.3,51.7c-0.1,0-0.2-0.1-0.3-0.2c-0.1-0.2-0.1-0.4,0.1-0.6l3.7-3c0.2-0.1,0.4-0.1,0.6,0.1
		c0.1,0.2,0.1,0.4-0.1,0.6l-3.7,3C133.5,51.7,133.4,51.7,133.3,51.7z"/>
	<path style="fill:#F2A098;" d="M126.2,49.9c-0.1,0-0.2-0.1-0.3-0.2c-0.1-0.2-0.1-0.4,0.1-0.6l3.7-3c0.2-0.1,0.4-0.1,0.6,0.1
		c0.1,0.2,0.1,0.4-0.1,0.6l-3.7,3C126.4,49.8,126.3,49.9,126.2,49.9z"/>
	<path style="fill:#F2A098;" d="M135.9,56.5c-0.1,0-0.2-0.1-0.3-0.2c-0.1-0.2-0.1-0.4,0.1-0.6l3.7-3c0.2-0.1,0.4-0.1,0.6,0.1
		c0.1,0.2,0.1,0.4-0.1,0.6l-3.7,3C136,56.5,136,56.5,135.9,56.5z"/>
	<path style="fill:#F2A098;" d="M137.4,63c-0.1,0-0.2-0.1-0.3-0.2c-0.1-0.2-0.1-0.4,0.1-0.6l3.7-3c0.2-0.1,0.4-0.1,0.6,0.1
		c0.1,0.2,0.1,0.4-0.1,0.6l-3.7,3C137.6,63,137.5,63,137.4,63z"/>
	<path style="fill:#6838CC;" d="M86.9,83.3l-3.1-13.1l-21.9,5.2l7.3,30.9c0.9,3.8,3.7,6.9,7.4,8.1c1.2,0.4,2.3,0.6,3.5,0.6
		c2.6,0,5.2-0.9,7.3-2.7l29.1-24.6l-13.5-18L86.9,83.3z"/>
	<path style="fill:#FFD3CF;" d="M115.5,59.1L103,69.6l13.5,18L130,76.3L115.5,59.1z"/>
	<path style="fill:#6838CC;" d="M69.8,44.8c-7.4-2.7-15.6-2.3-23.3-1.8c-7.8,0.5-26.8,0.1-34.6,5.9c-3.9,2.9-6.6,6-8.5,9
		C-1.2,65-0.7,74.3,4.6,80.9l14.1,17.8v13.5h49.1l-5.1-36.1c5.6-0.4,21.9-2.2,21.9-2.2C85.6,73.9,80.1,48.5,69.8,44.8z"/>
	<path style="fill:#5D31B5;" d="M19.1,112.2c-0.2,0-0.4-0.2-0.4-0.4l-0.5-37.7c0-0.2,0.2-0.4,0.4-0.4h0c0.2,0,0.4,0.2,0.4,0.4
		l0.5,37.7C19.6,112,19.4,112.2,19.1,112.2C19.1,112.2,19.1,112.2,19.1,112.2z"/>
	<path style="fill:#FFFFFF;" d="M96.6,31.3l0.2-1.1c0,0-2.6-3.2-2.7-3.2c-0.1,0-4.8,0.9-5,1.1c-0.2,0.1-1.4,1.3-1.4,1.3l0.2,1.1
		l0.3,1.1l1.3,1.7l1.7,0.7c0,0,1.8-0.2,2-0.1c0.2,0,1.4-0.3,1.6-0.3c0.2,0,1.4-0.8,1.4-0.8L96.6,31.3z"/>
	<path style="fill:#8043F9;" d="M95.9,31.3c0,0.1-0.1,0.2-0.1,0.3c0,0,0,0,0,0c-0.3,1-1.2,1.6-2,1.6c-0.7,0-1.1-0.5-1.3-0.6
		c-0.1,0.1-0.5,0.6-1,0.7c-0.9,0.2-1.9-0.4-2.3-1.5c0,0-0.1-0.3-0.1-0.3l-0.8,0c0.2,0.6,0.8,1.7,1.2,2.1c0,0,0,0,0,0c0,0,0,0,0,0
		c0.1,0.1,0.2,0.2,0.3,0.3c0,0,0,0,0,0c0.4,0.4,0.9,0.6,1.5,0.8c0.1,0,0.2,0.1,0.3,0.2l0.7,0.8c0.2,0.2,0.5,0.2,0.7,0l0.8-1
		c0.6-0.2,1.1-0.5,1.6-0.9c0,0,0,0,0,0c0,0,0,0,0,0c0.1-0.1,0.2-0.2,0.3-0.3c0,0,0,0,0,0l0,0c0.6-0.7,0.9-1.3,1-2.2L95.9,31.3z"/>
	<path style="fill:#8043F9;" d="M98.4,27.7c0,1.2-0.8,1.8-1,1.9c-0.2,0.2-0.4,0.4-0.7,0.6l-0.6,0c0-0.1,0-0.1,0-0.1
		c0-0.7-0.8-1.3-1.9-1.6c-0.6-0.2-1.3-0.3-2-0.2c-2.1,0.1-3.8,1-3.8,2.1c0,0,0,0.1,0,0.1l-0.7,0c-0.2-0.2-0.4-0.3-0.6-0.5
		c-1.2-1.4-0.7-3.1-0.6-3.3c0.2-0.5,0.5-0.9,0.7-1.2c0.7-0.8,1.6-1.4,2.5-1.9c0.9-0.5,1.1-0.5,1.3-0.8c0.4-0.5,0.3-1.2,0-1.8
		c-0.1-0.3,0.2-0.5,0.5-0.3c0.7,0.5,1.4,1.3,0.5,2.6c0,0,0.2,0.2,1-0.6c0.1-0.1,0.3-0.1,0.5,0c1.1,0.9,1.9,1.5,2.5,1.9
		c0.1,0.1,0.2,0.2,0.4,0.3c0.6,0.4,1.1,0.9,1.5,1.5C98.2,26.6,98.4,27.1,98.4,27.7z"/>
	<path style="fill:#A17FFD;" d="M96.6,24.9c-0.4,1.4-1.2,2.6-2.2,3.6c-0.6-0.2-1.3-0.3-2-0.2c-2.1,0.1-3.8,1-3.8,2.1
		c0,0,0,0.1,0,0.1l-0.7,0c-0.2-0.2-0.4-0.3-0.6-0.5c-1.2-1.4-0.7-3.1-0.6-3.3c0.2-0.5,0.5-0.9,0.7-1.2c0.7-0.8,1.6-1.4,2.5-1.9
		c0.9-0.5,1.1-0.5,1.3-0.8c0.4-0.5,0.3-1.2,0-1.8c-0.1-0.3,0.2-0.5,0.5-0.3c0.7,0.5,1.4,1.3,0.5,2.6c0,0,0.2,0.2,1-0.6
		c0.1-0.1,0.3-0.1,0.5,0c1.1,0.9,1.9,1.5,2.5,1.9C96.4,24.7,96.5,24.8,96.6,24.9z"/>
	<circle style="fill:#8043F9;" cx="93.1" cy="29.8" r="0.7"/>
	<circle style="fill:#8043F9;" cx="91.5" cy="29.8" r="0.7"/>
	<path style="fill:#8043F9;" d="M94.6,30.7c0,0.1-0.4,1-1.2,1.1c-0.5,0.1-1.2-0.2-1.2-0.6c0-0.3,0.3-0.6,0.7-0.6
		c0.3,0,0.4,0.3,0.8,0.3C94,31,94.3,30.9,94.6,30.7z"/>
	<path style="fill:#8043F9;" d="M90.1,30.9c0,0.1,0.4,1,1.2,1c0.6,0,1.2-0.3,1.2-0.7c0-0.3-0.4-0.6-0.7-0.6c-0.3,0-0.4,0.3-0.8,0.4
		C90.8,31.1,90.4,31,90.1,30.9z"/>
	<path style="fill:#FFD3CF;" d="M96.6,21.7l7.5-4c1.4-0.7,3.2-0.1,3.9,1.3l0.1,0.2c0.7,1.4,0.1,3.2-1.3,3.9l-7.5,4
		c-1.4,0.7-3.2,0.1-3.9-1.4l-0.1-0.2C94.6,24.1,95.2,22.4,96.6,21.7z"/>
	<path style="fill:#FFD3CF;" d="M97.8,27.6l7.5-4c1.4-0.7,3.2-0.1,3.9,1.4l0.1,0.2c0.7,1.4,0.1,3.2-1.3,3.9l-7.5,4
		c-1.4,0.7-3.2,0.1-3.9-1.4l-0.1-0.2C95.7,30,96.4,28.3,97.8,27.6z"/>
</g>
</svg>
