<svg width="94" height="92" viewBox="0 0 94 92" fill="none" xmlns="http://www.w3.org/2000/svg">
<path fill-rule="evenodd" clip-rule="evenodd" d="M0 58C0 76.7779 15.2221 92 34 92C52.7779 92 68 76.7779 68 58C68 39.2221 52.7779 24 34 24C15.2221 24 0 39.2221 0 58ZM40.7816 44.264C45.4183 45.862 48.8098 48.2562 48.144 52.7102C47.6623 55.9713 45.8533 57.5509 43.4548 58.1034C46.7486 59.819 48.4273 62.4497 46.8293 67.0114C44.846 72.6767 40.137 73.1541 33.8725 71.9697L32.3524 78.0614L28.6804 77.1463L30.1807 71.1353C29.2019 70.8928 28.2257 70.6397 27.2524 70.376L25.7479 76.4138L22.0788 75.4987L23.5988 69.3957C23.256 69.3078 22.9103 69.2186 22.5632 69.1265C22.4227 69.0902 22.2816 69.0536 22.1402 69.0169L22.1393 69.0167L22.1383 69.0164C21.7559 68.9171 21.3702 68.817 20.9808 68.7199L16.201 67.5285L18.0243 63.3238C18.0243 63.3238 20.7301 64.0435 20.6933 63.9897C21.7331 64.2475 22.1949 63.5703 22.3763 63.1184L24.7789 53.4879C24.8696 53.5092 24.9574 53.5304 25.0424 53.5531L25.1671 53.5843C25.0424 53.5352 24.9146 53.4945 24.7846 53.4624L26.4988 46.5873C26.5441 45.8082 26.2749 44.8222 24.7874 44.451C24.8441 44.4128 22.1198 43.788 22.1198 43.788L23.0973 39.8638L28.1619 41.1303L28.1577 41.1488C28.9198 41.3372 29.7047 41.5171 30.5037 41.6998L32.0096 35.6677L35.6787 36.5828L34.2054 42.4974L34.2348 42.5041L34.2351 42.5042C35.21 42.7272 36.1914 42.9518 37.1478 43.1902L38.6127 37.3138L42.2847 38.2304L40.7816 44.264ZM41.4405 51.9378C40.5083 55.3888 35.1553 54.0678 32.7018 53.4623L32.7018 53.4623C32.4792 53.4074 32.2805 53.3584 32.1111 53.3193L33.907 46.6667C34.1135 46.7143 34.3664 46.766 34.6531 46.8247C37.1946 47.3448 42.3927 48.4086 41.4405 51.9378ZM29.0509 66.397C32.0279 67.2 38.5169 68.9502 39.5481 64.7075C40.6073 60.3631 34.3021 58.9167 31.2271 58.2113C30.8843 58.1326 30.5816 58.0632 30.3337 58L28.3333 66.2069C28.5391 66.259 28.7805 66.3241 29.0509 66.397Z" fill="#A17FFD"/>
<path fill-rule="evenodd" clip-rule="evenodd" d="M74 28C74 33.5229 78.4771 38 84 38C89.5229 38 94 33.5229 94 28C94 22.4771 89.5229 18 84 18C78.4771 18 74 22.4771 74 28ZM85.9946 23.96C87.3583 24.43 88.3558 25.1342 88.16 26.4442C88.0183 27.4033 87.4862 27.8679 86.7808 28.0304C87.7496 28.535 88.2433 29.3088 87.7733 30.6504C87.19 32.3167 85.805 32.4571 83.9625 32.1087L83.5154 33.9004L82.4354 33.6312L82.8767 31.8633C82.5888 31.792 82.3017 31.7175 82.0154 31.64L81.5729 33.4158L80.4937 33.1467L80.9408 31.3517C80.84 31.3258 80.7383 31.2996 80.6363 31.2725L80.5115 31.2402C80.3989 31.211 80.2854 31.1815 80.1708 31.1529L78.765 30.8025L79.3012 29.5658C79.3012 29.5658 80.0971 29.7775 80.0862 29.7617C80.3921 29.8375 80.5279 29.6383 80.5812 29.5054L81.2879 26.6729C81.3146 26.6792 81.3404 26.6854 81.3654 26.6921L81.4021 26.7013C81.3654 26.6868 81.3278 26.6748 81.2896 26.6654L81.7937 24.6433C81.8071 24.4142 81.7279 24.1242 81.2904 24.015C81.3071 24.0037 80.5058 23.82 80.5058 23.82L80.7933 22.6658L82.2829 23.0383L82.2817 23.0437C82.5058 23.0992 82.7367 23.1521 82.9717 23.2058L83.4146 21.4317L84.4937 21.7008L84.0604 23.4404L84.0692 23.4424L84.0693 23.4425C84.356 23.508 84.6446 23.5741 84.9258 23.6442L85.3567 21.9158L86.4367 22.1854L85.9946 23.96ZM86.1884 26.217C85.9142 27.232 84.3398 26.8435 83.6182 26.6654C83.5527 26.6492 83.4943 26.6348 83.4444 26.6233L83.9727 24.6667C84.0334 24.6807 84.1078 24.6959 84.1921 24.7131L84.1921 24.7131C84.9396 24.8661 86.4684 25.179 86.1884 26.217ZM82.5444 30.4697C83.42 30.7059 85.3285 31.2206 85.6318 29.9728C85.9433 28.695 84.0888 28.2696 83.1844 28.0621C83.0836 28.039 82.9946 28.0186 82.9217 28L82.3333 30.4138C82.3938 30.4291 82.4648 30.4483 82.5444 30.4697Z" fill="#8043F9"/>
<path fill-rule="evenodd" clip-rule="evenodd" d="M74 6C74 9.31375 76.6862 12 80 12C83.3138 12 86 9.31375 86 6C86 2.68625 83.3138 0 80 0C76.6862 0 74 2.68625 74 6ZM81.1967 3.576C82.015 3.858 82.6135 4.2805 82.496 5.0665C82.411 5.642 82.0918 5.92075 81.6685 6.01825C82.2498 6.321 82.546 6.78525 82.264 7.59025C81.914 8.59 81.083 8.67425 79.9775 8.46525L79.7092 9.54025L79.0612 9.37875L79.326 8.318C79.1533 8.2752 78.981 8.23053 78.8092 8.184L78.5437 9.2495L77.8963 9.088L78.1645 8.011C78.104 7.9955 78.043 7.97975 77.9818 7.9635L77.9069 7.94411C77.8394 7.92658 77.7713 7.9089 77.7025 7.89175L76.859 7.6815L77.1807 6.9395C77.1807 6.9395 77.6582 7.0665 77.6518 7.057C77.8352 7.1025 77.9167 6.983 77.9488 6.90325L78.3727 5.20375C78.3888 5.2075 78.4043 5.21125 78.4193 5.21525L78.4412 5.22075C78.4193 5.21209 78.3967 5.20491 78.3737 5.19925L78.6762 3.986C78.6842 3.8485 78.6367 3.6745 78.3742 3.609C78.3843 3.60225 77.9035 3.492 77.9035 3.492L78.076 2.7995L78.9697 3.023L78.969 3.02625C79.1035 3.0595 79.242 3.09125 79.383 3.1235L79.6488 2.059L80.2962 2.2205L80.0363 3.26425L80.0415 3.26546L80.0416 3.26547C80.2136 3.30482 80.3867 3.34443 80.5555 3.3865L80.814 2.3495L81.462 2.51125L81.1967 3.576ZM81.313 4.9302C81.1485 5.5392 80.2039 5.30608 79.7709 5.19924C79.7316 5.18954 79.6966 5.18089 79.6667 5.174L79.9836 4C80.02 4.0084 80.0647 4.01753 80.1152 4.02789L80.1153 4.02789C80.5638 4.11967 81.4811 4.3074 81.313 4.9302ZM79.1266 7.48183C79.652 7.62353 80.7971 7.93239 80.9791 7.18367C81.166 6.41701 80.0533 6.16176 79.5107 6.03729C79.4502 6.02341 79.3968 6.01116 79.353 6L79 7.44827C79.0363 7.45747 79.0789 7.46896 79.1266 7.48183Z" fill="#A17FFD"/>
<path fill-rule="evenodd" clip-rule="evenodd" d="M56 14.95C56 18.2361 58.6639 20.9 61.95 20.9C65.2361 20.9 67.9 18.2361 67.9 14.95C67.9 11.6639 65.2361 9 61.95 9C58.6639 9 56 11.6639 56 14.95ZM63.1368 12.5462C63.9482 12.8259 64.5417 13.2448 64.4252 14.0243C64.3409 14.595 64.0243 14.8714 63.6046 14.9681C64.181 15.2683 64.4748 15.7287 64.1951 16.527C63.8481 17.5184 63.024 17.602 61.9277 17.3947L61.6617 18.4607L61.0191 18.3006L61.2816 17.2487C61.1103 17.2062 60.9395 17.1619 60.7692 17.1158L60.5059 18.1724L59.8638 18.0123L60.1298 16.9442C60.0698 16.9289 60.0093 16.9133 59.9486 16.8971C59.8573 16.8736 59.7651 16.8493 59.6716 16.826L58.8352 16.6175L59.1542 15.8817C59.1542 15.8817 59.6278 16.0076 59.6213 15.9982C59.8033 16.0433 59.8841 15.9248 59.9158 15.8457L60.3363 14.1604C60.3522 14.1641 60.3675 14.1678 60.3824 14.1718L60.4042 14.1772C60.3824 14.1687 60.3601 14.1615 60.3373 14.1559L60.6373 12.9528C60.6452 12.8164 60.5981 12.6439 60.3378 12.5789C60.3477 12.5722 59.871 12.4629 59.871 12.4629L60.042 11.7762L60.9283 11.9978L60.9276 12.001C61.061 12.034 61.1983 12.0655 61.3381 12.0975L61.6017 11.0418L62.2438 11.202L61.9859 12.237C62.1582 12.2765 62.3318 12.3161 62.5009 12.3583L62.7572 11.3299L63.3998 11.4903L63.1368 12.5462Z" fill="#00C090"/>
<path d="M63.2521 13.8891C63.0742 14.5478 61.9758 14.2131 61.6194 14.1309L61.9337 12.9667C62.2901 13.0488 63.4375 13.2018 63.2521 13.8891Z" fill="#00C090"/>
<path d="M62.9209 16.1238C62.724 16.9337 61.3907 16.4957 60.9583 16.3862L61.3084 14.95C61.7408 15.0602 63.1269 15.2787 62.9209 16.1238Z" fill="#00C090"/>
</svg>
