<svg width="248" height="205" viewBox="0 0 248 205" fill="none" xmlns="http://www.w3.org/2000/svg">
<path opacity="0.18" d="M247.947 152.612C247.078 177.021 229.436 189.968 226.391 192.591C222.048 196.438 217.268 200.288 212.311 204.138H200.756C201.014 203.001 201.189 202.914 201.189 201.163C201.189 186.294 186.064 173.348 163.293 166.17C151.127 162.32 136.871 160.049 121.575 160.049C77.5946 160.049 41.9609 178.415 41.9609 201.163C41.9609 202.129 42.1358 203.177 42.2218 204.138H26.8392C22.8423 200.903 18.8425 197.229 15.2786 192.854C-9.66617 162.413 3.11013 127.94 4.50073 124.708C8.7614 114.03 14.3238 105.808 19.4504 99.5971C33.8782 82.3621 53.1745 71.8659 73.1647 61.1042C92.7191 50.6051 96.8049 50.6974 101.412 44.5705C109.059 34.2475 107.669 20.5132 103.236 7.56679C101.412 2.0575 108.71 -2.31761 113.578 1.35333C127.398 11.5032 141.479 29.7858 123.14 56.6425C123.14 56.6425 126.965 60.5818 143.388 44.3108C145.912 41.8577 150.255 41.6817 152.951 43.9616C174.506 62.4173 192.151 76.3247 204.578 85.9494C207.098 87.8772 209.532 89.7992 211.878 91.551C224.396 101.173 234.305 109.923 241.169 124.09C243.775 129.343 248.555 139.316 247.947 152.612Z" fill="white"/>
</svg>
