<?xml version="1.0" encoding="utf-8"?>
<!-- Generator: Adobe Illustrator 26.0.3, SVG Export Plug-In . SVG Version: 6.00 Build 0)  -->
<svg version="1.1" id="Layer_1" xmlns="http://www.w3.org/2000/svg" xmlns:xlink="http://www.w3.org/1999/xlink" x="0px" y="0px"
	 viewBox="0 0 183.3 89.8" style="enable-background:new 0 0 183.3 89.8;" xml:space="preserve">
<g>
	<defs>
		<path id="SVGID_1_" d="M0,0v89.8h171.3c6.6,0,12-5.4,12-12V0H0z"/>
	</defs>
	<clipPath id="SVGID_00000113346945334850458020000017256884813384471693_">
		<use xlink:href="#SVGID_1_"  style="overflow:visible;"/>
	</clipPath>
	<g style="clip-path:url(#SVGID_00000113346945334850458020000017256884813384471693_);">
		<circle style="fill:#FBF2FF;" cx="116.9" cy="103.5" r="103.5"/>
		<g>
			<path style="fill:none;" d="M134.3,83.2c-1,2.7-2.6,5.1-3.8,6.6h6.3c-0.5-0.9-1-1.9-1.3-2.9C135,85.6,134.6,84.3,134.3,83.2z"/>
			<path style="fill:#A17FFD;" d="M57.2,80.3c0.1-0.3,0.4-0.4,0.7-0.4c0.3,0.1,0.4,0.4,0.4,0.7l-2.8,9.3h46.4
				c-0.4-1.3-0.6-2.8-0.6-4.6c0-3.1,0.8-5.6,2.3-7.1c2.8-2.8,7.2-2.3,10.8-1.6c0.3,0.1,0.5,0.3,0.4,0.7c-0.1,0.3-0.3,0.5-0.7,0.4
				c-3.3-0.6-7.4-1.1-9.8,1.3c-1.3,1.3-2,3.4-2,6.3c0,1.8,0.2,3.3,0.7,4.6h27.5c1.2-1.6,2.8-3.9,3.8-6.6c0.3,1.1,0.7,2.4,1.2,3.8
				c0.4,1,0.8,2,1.3,2.9h7.3c-2.5-2.9-4.5-5.9-6.1-8.4c-2.4-3.8-3.6-6.7-3.6-6.7c-0.7-1.8-2.1-3.5-4.4-5.1c-0.6-0.4-1.4-0.7-2.2-0.7
				l-6.7-0.4l-4.4-0.3c-0.4,0-0.8,0-1.2,0c-2.1-0.3-4.2-0.6-6.2-0.9c-2.9-0.4-5.7-0.9-8.4-1.4c-7-1.2-13.8-2.6-20.3-4
				c-3.3-2.9-6-5-7.9-6.5c-2.5-2-4.1-3-6-5.3c-0.1-0.1-0.2-0.3-0.3-0.4c-3.3-4.2-2.9-6.4-2.8-6.8c0.3-0.9,0.4-1.6,0.6-1.9
				c0.1-0.2,0.1-0.3,0.1-0.4c1.9-9.4,1.7-17.6,1.1-24c-5.3-1.5-10.6-3-15.9-4.5c-1.1-0.3-2.3-0.3-3.5-0.1l-5,1.3
				c-1.9,0.5-3.9,0.3-5.8-0.4L25,8.7c-1.6-0.1-5.3,0.1-6.7,2.2c-2.4,3.8,3.2,10.3,4.6,12.2c3.1,4.2,8.3,8.1,16.5,10.1
				c0.1,8.6-0.3,8.5-1.6,13.5c0,0-9.8,20.1-9,23.3c0.5,2.2,5.2,9,8.1,13.1L4.6,84.7c-1.9-0.2-3.5,1.7-3.4,3.7c0,0.5,0.2,1,0.4,1.4
				h52.7L57.2,80.3z"/>
			<path style="fill:#8043F9;" d="M58.3,80.6c0.1-0.3-0.1-0.6-0.4-0.7c-0.3-0.1-0.6,0.1-0.7,0.4l-2.9,9.5h1.2L58.3,80.6z"/>
			<path style="fill:#8043F9;" d="M102.4,85.2c0-2.9,0.7-5,2-6.3c2.4-2.4,6.5-1.9,9.8-1.3c0.3,0.1,0.6-0.2,0.7-0.4
				c0.1-0.3-0.2-0.6-0.4-0.7c-3.6-0.7-8-1.1-10.8,1.6c-1.5,1.5-2.3,3.9-2.3,7.1c0,1.8,0.2,3.3,0.6,4.6h1.2
				C102.6,88.5,102.4,87,102.4,85.2z"/>
			<path style="fill:#FFFFFF;" d="M85.5,95.1c-0.1,0-0.1,0-0.2,0l0.5,0C85.6,95.1,85.5,95.1,85.5,95.1z"/>
		</g>
		<circle style="fill:#1B0E41;" cx="46.3" cy="16.4" r="1.6"/>
		<path style="fill:#1B0E41;" d="M60.1,14.3l8.1,2c1.2,0.3,2,1.5,1.8,2.6c-0.7,5.2-3.3,18-10.3,16.5c-7-1.5-4-14.3-2.4-19.4
			C57.7,14.7,58.9,14,60.1,14.3z"/>
		<path style="fill:#1B0E41;" d="M18.2,10.5c4.3,1.2,6-0.9,6.7-2.2l-5-2c-0.8-0.3-1.7,0.2-1.7,1.1C18.1,8.2,18.1,9.2,18.2,10.5z"/>
		<path style="fill:#8043F9;" d="M36.4,84c-0.3,0-0.6-0.2-0.6-0.6s0.2-0.6,0.6-0.6l4.3-0.1l3.5-11.5c0.1-0.3,0.4-0.4,0.7-0.4
			c0.3,0.1,0.4,0.4,0.4,0.7l-3.7,12.3L36.4,84L36.4,84z"/>
		<path style="fill:#1B0E41;" d="M61.2,59.1c0,8.4,9.3,15.2,20.8,15.2c8.4,0,15.9-3,19.2-8.3c-7-1.2-14.1-3.2-20.6-4.7
			c-3.3-2.9-6-5-7.9-6.5c-2.5-2-4.1-3-6-5.3c-0.1-0.1-0.2-0.3-0.3-0.4C63.2,51.8,61.2,55.2,61.2,59.1z"/>
		<path style="fill:#1B0E41;" d="M120.7,72.4c0,6.1,4.9,11.1,11.1,11.1c2.4,0,4.7-0.8,6.5-2.1c-2.4-3.8-3.6-6.7-3.6-6.7l0,0
			c-0.7-1.8-2.1-3.5-4.4-5.1c-0.6-0.4-1.4-0.7-2.2-0.7l-6.7-0.4C120.9,69.7,120.7,71.1,120.7,72.4z"/>
		<circle style="fill:#FFBC00;" cx="118.2" cy="54.1" r="9"/>
		<circle style="fill:#FFBC00;" cx="95.2" cy="34.1" r="9"/>
		<path style="fill:#A17FFD;" d="M113.6,60c-0.7-0.4-1.2-1.1-1.7-1.9c-1.1-1.7-1.5-3.7-1-5.7c0.4-2,1.6-3.7,3.3-4.7
			c3.5-2.2,8.2-1.2,10.4,2.3c0.8,1.3,1.2,2.6,1.2,4h-1.1c0-1.1-0.3-2.3-1.1-3.4c-1.9-3-5.9-3.9-8.9-2c-1.5,0.9-2.5,2.4-2.8,4
			c-0.4,1.7-0.1,3.4,0.8,4.8c0.4,0.6,1,1.2,1.5,1.6L113.6,60z"/>
		<path style="fill:#A17FFD;" d="M88.6,38c-0.5-0.7-0.8-1.5-1-2.4c-0.4-1.9-0.1-4,1-5.7c1.1-1.7,2.8-2.9,4.7-3.3
			c4.1-0.9,8.1,1.7,9,5.7c0.3,1.5,0.3,2.9-0.2,4.2l-1.1-0.4c0.4-1.1,0.5-2.3,0.2-3.6c-0.8-3.5-4.2-5.7-7.7-4.9
			c-1.7,0.3-3.1,1.4-4,2.8c-0.9,1.4-1.2,3.2-0.9,4.8c0.2,0.7,0.5,1.4,0.8,2L88.6,38z"/>
		<path style="fill:#A17FFD;" d="M116.2,52.7c0.2-0.7,0.5-1.2,0.8-1.5c0.4-0.3,1-0.5,1.6-0.5c0.3,0,0.5,0,0.7,0.1
			c0.2,0.1,0.3,0.1,0.6,0.2l-0.2,0.9c-0.2-0.1-0.3-0.1-0.4-0.1c-0.2-0.1-0.3-0.1-0.6-0.1c-0.4,0-0.7,0.1-1,0.3
			c-0.2,0.2-0.4,0.5-0.4,0.8h2l-0.2,0.8h-2c0,0.1,0,0.1,0,0.2c0,0.1,0,0.1,0,0.2c0,0.1,0,0.1,0,0.2s0,0.1,0,0.2h1.9l-0.2,0.8h-1.6
			c0.1,0.4,0.3,0.7,0.5,0.9c0.2,0.2,0.5,0.3,0.9,0.3c0.2,0,0.5,0,0.6-0.1c0.2-0.1,0.4-0.1,0.6-0.2l0.2,0.8c-0.1,0.1-0.3,0.1-0.6,0.2
			c-0.2,0.1-0.6,0.1-0.8,0.1c-0.7,0-1.3-0.2-1.7-0.6c-0.4-0.4-0.6-0.9-0.8-1.6h-0.7v-0.8h0.7c0-0.1,0-0.1,0-0.2c0-0.1,0-0.1,0-0.2
			c0-0.1,0-0.1,0-0.2c0-0.1,0-0.1,0-0.2h-0.7v-0.8H116.2z"/>
		<path style="fill:#A17FFD;" d="M93.7,32.2c0.4-0.6,0.8-1,1.3-1.1c0.5-0.2,1.1-0.1,1.7,0.1c0.3,0.1,0.5,0.2,0.6,0.3
			c0.1,0.1,0.3,0.2,0.5,0.4l-0.5,0.8c-0.1-0.1-0.2-0.2-0.4-0.3c-0.1-0.1-0.3-0.2-0.5-0.2c-0.4-0.1-0.7-0.1-1-0.1
			c-0.3,0.1-0.5,0.3-0.7,0.6l1.9,0.7L96.2,34l-1.9-0.7c0,0.1,0,0.1-0.1,0.2c0,0.1,0,0.1-0.1,0.2c0,0.1,0,0.1-0.1,0.2
			c0,0.1,0,0.1-0.1,0.2l1.7,0.6l-0.4,0.7l-1.5-0.5c0,0.5,0,0.8,0.2,1c0.2,0.2,0.4,0.4,0.7,0.6c0.2,0.1,0.4,0.2,0.6,0.2
			c0.2,0,0.4,0,0.6,0l-0.1,0.9c-0.1,0-0.4,0-0.6,0c-0.2,0-0.6-0.1-0.8-0.2c-0.7-0.2-1.2-0.6-1.4-1.1c-0.2-0.5-0.3-1.1-0.2-1.7
			l-0.7-0.2l0.3-0.7l0.6,0.2c0-0.1,0-0.1,0.1-0.2c0-0.1,0-0.1,0.1-0.2c0-0.1,0-0.1,0.1-0.2c0-0.1,0-0.1,0.1-0.2l-0.6-0.2L93,32
			L93.7,32.2z"/>
	</g>
</g>
</svg>
