<svg width="242" height="268" viewBox="0 0 242 268" fill="none" xmlns="http://www.w3.org/2000/svg">
<ellipse cx="112.543" cy="234.47" rx="110.995" ry="8.093" fill="#E8E7EC"/>
<path fill-rule="evenodd" clip-rule="evenodd" d="M168.305 174.907C170.646 175.588 173.1 175.891 175.629 175.891C179.895 175.891 184.35 174.983 188.503 173.13C194.959 170.369 200.509 165.831 204.095 160.31C209.758 151.612 209.683 142.081 203.982 133.799C207.078 134.14 210.287 133.913 212.288 131.644C216.328 127.106 215.648 119.618 213.647 114.096C211.118 107.176 206.323 102.259 201.377 101.541C201.188 101.503 201 101.654 200.962 101.843C200.924 102.032 201.075 102.221 201.264 102.259C205.945 102.94 210.514 107.667 212.93 114.323C215.346 120.979 214.893 127.559 211.722 131.076C209.758 133.27 206.474 133.346 203.378 132.93L202.585 131.908C201.641 130.774 199.716 128.959 197.602 129.564L197.375 129.639L197.338 129.866C197.035 131.795 199.225 132.93 201.339 133.346C201.868 133.459 202.434 133.572 203.001 133.648C208.89 141.779 209.117 151.271 203.491 159.894C199.98 165.264 194.582 169.726 188.239 172.449C181.67 175.285 174.648 175.891 168.494 174.189C168.305 174.151 168.079 174.264 168.041 174.453C168.003 174.643 168.116 174.869 168.305 174.907ZM201.49 132.627C200.924 132.514 198.13 131.871 198.093 130.244C199.754 129.98 201.264 131.455 202.019 132.4C202.076 132.457 202.123 132.523 202.17 132.589C202.217 132.655 202.264 132.722 202.321 132.778C202.189 132.759 202.047 132.731 201.906 132.703C201.764 132.674 201.623 132.646 201.49 132.627Z" fill="#E8E7EC"/>
<rect x="124.549" y="156.414" width="73.8836" height="74.312" fill="#BDBDBD"/>
<path d="M87.2106 211.553V230.726H38.8861C38.6973 230.386 38.0555 229.062 38.3953 227.361C38.7351 225.734 39.7922 224.789 40.0942 224.562C43.4165 224.146 49.9479 222.822 56.064 217.906C58.7067 215.788 60.5944 213.481 61.9157 211.591C70.3725 211.553 78.7916 211.553 87.2106 211.553Z" fill="#1B0E41"/>
<path d="M126.399 211.553V230.726H78.0742C77.8854 230.386 77.2436 229.062 77.5834 227.361C77.9232 225.734 78.9803 224.789 79.2823 224.562C82.6046 224.146 89.136 222.822 95.2521 217.906C97.8948 215.788 99.7825 213.481 101.104 211.591C109.523 211.553 117.98 211.553 126.399 211.553Z" fill="#1B0E41"/>
<path d="M141.727 99.7634V128.354C141.727 132.249 139.537 135.842 136.064 137.619C134.553 138.375 132.968 138.754 131.344 138.754C129.192 138.754 127.078 138.073 125.266 136.787L84.7566 107.403L96.9132 90.5359L120.962 107.97V99.7256L141.727 99.7634Z" fill="#FFD3CF"/>
<path d="M138.971 100.142L138.857 116.781L120.962 106.003V99.7634H136.328L138.971 100.142Z" fill="#D6B1AE"/>
<path d="M137.914 130.774H81.0945C81.0568 130.774 81.019 130.774 80.9813 130.774C77.2437 132.06 71.7694 134.556 67.0502 139.548C61.1984 145.788 59.0465 153.313 56.7435 173.584C55.7619 182.206 54.7426 192.984 54.1385 205.54C53.9875 208.792 56.5548 211.515 59.8016 211.515H100.424V169.991C100.424 162.541 106.427 156.528 113.865 156.528H137.914C138.631 155.961 144.03 151.612 144.218 144.048C144.369 136.031 138.555 131.303 137.914 130.774Z" fill="#5F31B8"/>
<path d="M175.252 130.774H119.867C118.848 130.774 117.866 130.963 116.923 131.303C113.298 132.703 108.579 135.161 104.426 139.548C98.5744 145.788 96.4225 153.313 94.1195 173.584C93.1379 182.206 92.1186 192.984 91.5145 205.54C91.3635 208.792 93.9307 211.515 97.1775 211.515H133.987C136.064 211.515 137.763 209.813 137.763 207.733V169.953C137.763 162.503 143.765 156.49 151.203 156.49H175.252C175.969 155.923 181.368 151.574 181.557 144.01C181.745 136.031 175.894 131.303 175.252 130.774Z" fill="#8043F9"/>
<path d="M103.596 92.578C103.596 92.578 103.709 90.4981 97.6306 83.9934L92.2696 87.4726C92.0053 87.6617 89.9288 89.2123 89.9288 91.6704C89.9288 94.1664 92.0053 96.5489 95.0256 97.0406C95.6296 97.2296 96.5357 97.4565 97.6306 97.4187C97.6306 97.4187 99.707 98.0994 100.085 97.8347C100.462 97.57 104.577 96.5867 104.577 96.5867L103.596 92.578Z" fill="#FFD3CF"/>
<path d="M117.451 95.0739C117.489 92.0485 117.942 82.2158 129.985 73.1017C137.121 67.6938 145.162 67.2022 152.411 66.7105C159.509 66.2567 167.097 65.9164 173.893 68.3745C183.407 71.8538 188.428 95.263 187.484 95.3386C187.484 95.3386 172.458 96.927 167.286 97.343L171.967 130.736H135.762V95.4899C129.683 95.3764 123.567 95.2252 117.451 95.0739Z" fill="#B678FD"/>
<path d="M164.341 44.2468C164.341 44.2468 168.154 43.6417 168.041 48.2555C167.928 52.9071 161.358 52.0373 161.358 52.0373L159.622 49.39L164.341 44.2468Z" fill="#FFD3CF"/>
<path d="M163.322 42.2047L160.226 55.1005C160.226 55.1762 160.226 55.214 160.226 55.2518C160.226 55.3275 160.226 55.3653 160.226 55.4409C160.226 55.7813 160.226 56.1216 160.226 56.462C160.226 57.8234 160.188 59.1849 160.15 60.5463C160.113 63.5339 160.075 66.4837 160.037 69.4713C159.32 71.7404 157.168 73.2531 154.865 73.1775C152.373 73.1018 150.221 71.1353 149.844 68.5259L150.07 65.3114L150.448 60.3572C149.957 60.0925 149.353 59.7521 148.56 59.374C148.522 59.374 148.484 59.3361 148.447 59.3361C148.409 59.3361 148.409 59.2983 148.371 59.2983C141.16 55.4787 148.371 40.7676 148.371 40.7676C158.904 29.5357 163.322 42.2047 163.322 42.2047Z" fill="#FFD3CF"/>
<path d="M157.168 33.2418C157.168 33.2418 153.581 24.8084 147.692 29.0062C141.84 33.2418 144.822 40.3515 148.409 40.7675C151.996 41.1835 155.922 39.3304 155.922 39.3304C156.148 39.5952 157.017 40.5028 158.489 40.6541C159.773 40.8053 160.754 40.3137 161.056 40.1246C160.868 40.3893 160.452 40.9944 160.452 41.8642C160.415 43.4148 161.66 44.3224 161.774 44.4358C161.472 45.7216 161.17 46.9696 160.83 48.2554H162.076L164.303 44.2467C164.303 44.2467 169.06 41.713 166.455 35.1705C164.605 30.5189 161.094 33.4309 161.094 33.4309C161.094 33.4309 160.943 29.8382 157.168 33.2418Z" fill="#1B0E41"/>
<ellipse cx="154.147" cy="45.1922" rx="0.981598" ry="0.983263" fill="#1B0E41"/>
<ellipse cx="149.428" cy="44.2091" rx="0.98159" ry="0.983263" fill="#1B0E41"/>
<path d="M155.658 44.2469L153.355 43.1502C153.128 43.0367 153.015 42.7342 153.128 42.5073C153.241 42.2803 153.543 42.1669 153.77 42.2803L156.073 43.3771C156.299 43.4905 156.413 43.7931 156.299 44.02C156.186 44.2469 155.884 44.3603 155.658 44.2469Z" fill="#1B0E41"/>
<path d="M151.052 42.6585L148.522 42.9232C148.258 42.9611 148.031 42.772 147.994 42.5072C147.956 42.2425 148.145 42.0156 148.409 41.9778L150.938 41.7131C151.203 41.6753 151.429 41.8643 151.467 42.1291C151.543 42.3938 151.316 42.6207 151.052 42.6585Z" fill="#1B0E41"/>
<path d="M160.226 55.1006C160.226 55.1762 160.226 55.214 160.226 55.2519C160.226 56.0082 160.188 55.7435 160.15 59.0336C158.489 60.8867 156.828 61.7943 155.809 62.2103C154.072 62.9667 153.053 62.9289 152.713 62.8911C151.618 62.8154 150.787 62.3994 150.297 62.1347C150.334 61.5296 150.372 60.9245 150.41 60.3573C151.24 60.622 152.373 60.7354 153.845 60.2816C157.432 59.1471 159.999 55.63 160.226 55.1006Z" fill="#D6B1AE"/>
<path d="M149.051 53.8526C150.108 54.0039 151.127 53.2853 151.278 52.2264L147.39 51.6213C147.276 52.6802 147.994 53.7013 149.051 53.8526Z" fill="white"/>
<path d="M91.1369 109.142L78.9803 107.856C76.4885 107.592 74.6764 105.36 74.9406 102.864L76.2243 90.6871C76.4885 88.1912 78.716 86.3759 81.2077 86.6406L93.3644 87.9264C95.8561 88.1912 97.6683 90.4224 97.404 92.9184L96.1204 105.096C95.8561 107.592 93.6286 109.407 91.1369 109.142Z" fill="#FFD3CF"/>
<path d="M194.884 72.1941H182.614V39.1414H194.355C194.582 39.1414 194.733 39.2926 194.733 39.5195C194.733 39.7464 194.582 39.8977 194.355 39.8977H183.369V71.4378H194.884C195.11 71.4378 195.261 71.589 195.261 71.8159C195.261 72.0428 195.11 72.1941 194.884 72.1941Z" fill="#E8E7EC"/>
<path d="M240.981 72.1941H229.239C229.013 72.1941 228.862 72.0428 228.862 71.8159C228.862 71.589 229.013 71.4378 229.239 71.4378H240.226V39.8977H228.711C228.484 39.8977 228.333 39.7464 228.333 39.5195C228.333 39.2926 228.484 39.1414 228.711 39.1414H240.981V72.1941Z" fill="#E8E7EC"/>
<path d="M80.5659 111.79C78.2629 112.13 76.0732 110.504 75.7712 108.197L71.5051 78.3964C71.1653 76.0895 72.7887 73.8961 75.0916 73.5935L87.0595 71.8917C89.3625 71.5514 91.5522 73.1775 91.8542 75.4844L96.1203 105.285C96.4601 107.592 94.8367 109.785 92.5338 110.088L80.5659 111.79Z" fill="#1B0E41"/>
<path d="M87.2483 73.2531L75.2804 74.9549C73.7325 75.1818 72.6754 76.6189 72.8642 78.1694L77.1303 107.97C77.3569 109.52 78.7915 110.579 80.3394 110.39L92.3073 108.688C93.8552 108.461 94.9123 107.024 94.7235 105.474L90.4573 75.6735C90.2308 74.1229 88.7962 73.0262 87.2483 73.2531Z" fill="white"/>
<path fill-rule="evenodd" clip-rule="evenodd" d="M76.9416 108.008C77.1681 109.52 78.4517 110.617 79.9619 110.617C80.0428 110.617 80.1129 110.606 80.1779 110.596C80.2343 110.588 80.2868 110.579 80.3394 110.579L92.3073 108.878C93.9307 108.613 95.0633 107.1 94.8745 105.436L90.6084 75.6357C90.4951 74.8416 90.0798 74.123 89.438 73.6314C88.7962 73.1398 88.0034 72.9507 87.2105 73.0641L75.2427 74.7659C73.6193 75.0307 72.4867 76.5434 72.6754 78.2074L76.9416 108.008ZM87.286 73.4423C87.3993 73.4045 87.5503 73.4045 87.6636 73.4045C88.2299 73.4045 88.7584 73.5936 89.2492 73.9718C89.8155 74.3878 90.1553 74.9928 90.2686 75.7114L94.5347 105.512C94.6857 106.987 93.7041 108.272 92.2695 108.499L80.3016 110.201C78.8293 110.352 77.5456 109.369 77.3191 107.932L73.053 78.1317C72.902 76.6568 73.8835 75.371 75.3182 75.1441L87.286 73.4423Z" fill="#1B0E41"/>
<path d="M85.8136 72.5724L76.5263 73.896C75.7712 74.0095 75.2049 74.728 75.3182 75.4844C75.4314 76.2407 76.1487 76.808 76.9038 76.6946L86.1912 75.3709C86.9462 75.2575 87.5125 74.5389 87.3993 73.7826C87.286 72.9884 86.5687 72.459 85.8136 72.5724Z" fill="#1B0E41"/>
<path d="M78.6782 85.506L71.1275 83.1991C69.6929 82.8209 68.2205 83.6907 67.8807 85.1278L67.843 85.2791C67.4654 86.7161 68.3338 88.191 69.7684 88.5314L77.3191 90.8383C78.7537 91.2164 80.2261 90.3466 80.5659 88.9096L80.6037 88.7583C80.9812 87.359 80.1129 85.8841 78.6782 85.506Z" fill="#FFD3CF"/>
<path d="M78.6782 91.0653L71.1275 88.7584C69.6929 88.3802 68.2205 89.25 67.8807 90.6871L67.843 90.8384C67.4654 92.2755 68.3338 93.7503 69.7684 94.0907L77.3191 96.3976C78.7537 96.7758 80.2261 95.906 80.5659 94.4689L80.6037 94.3176C80.9812 92.9184 80.1129 91.4435 78.6782 91.0653Z" fill="#FFD3CF"/>
<path d="M78.1119 96.3597L70.5612 94.0528C69.1266 93.6747 67.6542 94.5445 67.3144 95.9815L67.2767 96.1328C66.8991 97.5699 67.7675 99.0448 69.2021 99.3851L76.7528 101.692C78.1874 102.07 79.6598 101.2 79.9996 99.7633L80.0374 99.612C80.4149 98.2128 79.5466 96.7379 78.1119 96.3597Z" fill="#FFD3CF"/>
<path d="M78.6782 101.503L71.1275 99.1961C69.6929 98.818 68.2205 99.6878 67.8807 101.125L67.843 101.276C67.4654 102.713 68.3338 104.188 69.7684 104.528L77.3191 106.835C78.7537 107.214 80.2261 106.344 80.5659 104.907L80.6037 104.755C80.9812 103.318 80.1129 101.881 78.6782 101.503Z" fill="#FFD3CF"/>
<path d="M129.23 85.1657C128.966 85.3548 126.814 86.8296 126.701 89.2878C126.587 91.746 128.588 94.2419 131.571 94.847C132.175 95.0739 133.081 95.3387 134.176 95.3387C135.95 95.3765 137.272 94.7714 137.951 94.431C139.688 93.0318 140.217 91.7081 140.33 90.7249C140.33 90.7249 140.556 88.6449 134.742 81.9133" fill="#FFD3CF"/>
<path d="M97.6305 84.0312L90.4574 78.7746C89.0983 77.867 87.2106 78.2073 86.2667 79.6066L86.1535 79.7578C85.2474 81.1193 85.5872 83.0102 86.9841 83.9556L94.1572 89.2123C95.5163 90.1199 97.404 89.7795 98.3479 88.3803L98.4611 88.229C99.3672 86.8298 99.0274 84.9389 97.6305 84.0312Z" fill="#FFD3CF"/>
<path d="M128.249 83.1234C128.173 83.1234 128.135 83.1234 128.06 83.0856L122.699 79.9467C122.51 79.8333 122.472 79.6064 122.548 79.4173C122.661 79.2282 122.888 79.1904 123.076 79.266L128.437 82.4049C128.626 82.5184 128.664 82.7453 128.588 82.9343C128.513 83.0478 128.362 83.1234 128.249 83.1234Z" fill="#8F7676"/>
<path fill-rule="evenodd" clip-rule="evenodd" d="M95.3653 111.411C95.4031 111.6 95.5541 111.752 95.7429 111.752C95.7429 111.752 95.7806 111.752 95.7806 111.676C97.3285 111.449 99.3672 110.844 100.5 109.331C101.066 108.575 101.293 107.667 101.217 106.608C101.557 106.57 101.859 106.495 102.123 106.344C102.916 105.928 103.558 104.982 103.86 103.923C104.162 102.864 104.049 101.805 103.596 101.049C103.482 100.86 103.256 100.784 103.067 100.898C102.878 101.011 102.803 101.238 102.916 101.427C103.256 102.032 103.331 102.864 103.105 103.734C102.878 104.604 102.35 105.36 101.746 105.701C101.519 105.814 101.293 105.89 101.066 105.89C100.877 105.322 100.424 104.15 99.7825 104.074C99.556 104.037 99.2539 104.15 99.0274 104.717C98.9897 104.906 98.9519 105.096 99.0274 105.285C99.1407 105.814 99.4805 106.23 100.009 106.457C100.122 106.533 100.273 106.57 100.424 106.608L100.424 106.608C100.538 107.516 100.349 108.31 99.858 108.953C99.1029 109.974 97.6305 110.693 95.6673 110.995C95.4786 110.995 95.3276 111.222 95.3653 111.411ZM99.7636 104.944C99.773 104.935 99.7825 104.925 99.7825 104.906C99.9335 105.096 100.085 105.398 100.198 105.663C100.009 105.549 99.8202 105.398 99.7447 105.096V105.058V104.982C99.7447 104.963 99.7542 104.954 99.7636 104.944Z" fill="#8F7676"/>
<path d="M128.739 107.629L118.282 101.276C116.167 99.9902 115.45 97.1916 116.772 95.036L123.114 84.5605C124.398 82.4427 127.191 81.7242 129.343 83.0478L139.801 89.4012C141.915 90.687 142.633 93.4855 141.311 95.6411L134.969 106.117C133.647 108.234 130.854 108.915 128.739 107.629Z" fill="#FFD3CF"/>
<path d="M130.325 83.5775L113.374 73.5936C112.128 72.8372 110.467 73.2154 109.712 74.5012L109.636 74.6525C108.881 75.9005 109.259 77.5644 110.542 78.3208L127.494 88.3047C128.739 89.0611 130.401 88.6829 131.156 87.3971L131.231 87.2458C131.986 86.0356 131.571 84.3716 130.325 83.5775Z" fill="#FFD3CF"/>
<path d="M129.457 88.9474L118.395 82.178C117.149 81.4217 115.488 81.7999 114.733 83.0857L114.657 83.2369C113.902 84.4849 114.28 86.1489 115.563 86.9053L126.625 93.6747C127.871 94.431 129.532 94.0528 130.287 92.767L130.363 92.6158C131.118 91.3678 130.74 89.7038 129.457 88.9474Z" fill="#FFD3CF"/>
<path d="M128.173 94.62L117.111 87.8507C115.866 87.0943 114.204 87.4725 113.449 88.7583L113.374 88.9096C112.619 90.1575 112.996 91.8215 114.28 92.5779L125.342 99.3473C126.588 100.104 128.249 99.7254 129.004 98.4396L129.079 98.2884C129.834 97.0404 129.457 95.3764 128.173 94.62Z" fill="#FFD3CF"/>
<path d="M126.965 100.179L115.979 93.3343C114.733 92.5402 113.072 92.9562 112.279 94.2042L112.203 94.3176C111.411 95.5656 111.826 97.2296 113.072 98.0238L124.058 104.869C125.304 105.663 126.965 105.247 127.758 103.999L127.833 103.886C128.626 102.638 128.211 100.974 126.965 100.179Z" fill="#FFD3CF"/>
<path d="M134.704 81.8755L127.758 76.3162C126.436 75.333 124.511 75.6355 123.567 76.9592L123.454 77.1104C122.472 78.434 122.774 80.3628 124.096 81.3082L131.042 86.8674C132.364 87.8507 134.289 87.5481 135.233 86.2245L135.346 86.0732C136.328 84.7874 136.064 82.8587 134.704 81.8755Z" fill="#FFD3CF"/>
<path d="M120.811 84.1824C120.736 84.1824 120.698 84.1824 120.622 84.1446L116.885 81.9511C116.696 81.8377 116.658 81.6108 116.734 81.4217C116.847 81.2326 117.074 81.1948 117.262 81.2704L121 83.4638C121.189 83.5773 121.227 83.8042 121.151 83.9933C121.076 84.1068 120.924 84.1824 120.811 84.1824Z" fill="#8F7676"/>
<path d="M127.04 81.573C126.965 81.573 126.889 81.573 126.852 81.5351L123.114 79.3039C122.925 79.1904 122.888 78.9635 123.001 78.7744C123.114 78.5853 123.341 78.5475 123.529 78.661L127.267 80.8922C127.456 81.0057 127.494 81.2326 127.38 81.4217C127.305 81.4973 127.154 81.573 127.04 81.573Z" fill="#8F7676"/>
<path d="M74.2233 89.9684C74.1856 89.9684 74.1478 89.9684 74.1101 89.9684L69.9572 88.6448C69.7684 88.5692 69.6552 88.3801 69.7307 88.1532C69.8062 87.9641 69.995 87.8506 70.2215 87.9263L74.3744 89.2499C74.5631 89.3255 74.6764 89.5146 74.6009 89.7415C74.5254 89.855 74.3744 89.9684 74.2233 89.9684Z" fill="#8F7676"/>
<path d="M73.6571 95.3008C73.6193 95.3008 73.5816 95.3008 73.5438 95.3008L69.3909 93.9771C69.2022 93.9015 69.0889 93.7124 69.1644 93.4855C69.2399 93.2586 69.4287 93.183 69.6552 93.2586L73.8081 94.5822C73.9968 94.6579 74.1101 94.8469 74.0346 95.0739C73.9591 95.1873 73.8081 95.3008 73.6571 95.3008Z" fill="#8F7676"/>
<path d="M73.3551 100.709C73.3173 100.709 73.2796 100.709 73.2418 100.709L69.0889 99.3853C68.9001 99.3097 68.7869 99.1206 68.8624 98.8937C68.9379 98.7046 69.1267 98.5911 69.3532 98.6668L73.5061 99.9904C73.6948 100.066 73.8081 100.255 73.7326 100.482C73.6571 100.595 73.5061 100.709 73.3551 100.709Z" fill="#8F7676"/>
<path d="M119.15 88.9475C119.074 88.9475 119.037 88.9475 118.961 88.9097L115.224 86.7163C115.035 86.6028 114.997 86.3759 115.073 86.1868C115.186 85.9977 115.412 85.9599 115.601 86.0355L119.339 88.229C119.528 88.3424 119.565 88.5693 119.49 88.7584C119.414 88.8719 119.263 88.9475 119.15 88.9475Z" fill="#8F7676"/>
<path d="M118.659 95.074C118.584 95.074 118.546 95.074 118.47 95.0362L114.733 92.8427C114.544 92.7293 114.506 92.5024 114.582 92.3133C114.695 92.1242 114.922 92.0864 115.11 92.162L118.848 94.3554C119.037 94.4689 119.075 94.6958 118.999 94.8849C118.924 94.9983 118.773 95.074 118.659 95.074Z" fill="#8F7676"/>
<path d="M187.597 95.3766V123.967C187.597 127.711 185.596 131.152 182.349 133.005C180.764 133.913 178.989 134.367 177.215 134.367C175.365 134.367 173.553 133.875 171.929 132.892L127.645 106.533L138.253 88.645L166.87 105.663V95.3388L187.597 95.3766Z" fill="#FFD3CF"/>
<rect x="166.833" y="95.3765" width="20.7645" height="2.53378" fill="#D6B1AE"/>
<path d="M168.72 106.987C168.645 106.987 168.607 106.987 168.532 106.949L154.903 98.9314C154.714 98.8179 154.676 98.591 154.752 98.4019C154.865 98.2128 155.091 98.175 155.28 98.2506L168.909 106.268C169.098 106.381 169.136 106.608 169.06 106.797C168.985 106.911 168.834 106.987 168.72 106.987Z" fill="#8F7676"/>
<path d="M129.645 114.626C129.57 114.626 129.494 114.588 129.419 114.55L116.432 105.549C116.243 105.436 116.205 105.209 116.318 105.02C116.432 104.831 116.658 104.793 116.847 104.907L129.834 113.907C130.023 114.021 130.061 114.248 129.947 114.437C129.872 114.55 129.759 114.626 129.645 114.626Z" fill="#8F7676"/>
<path d="M97.1775 223.39C97.102 223.39 96.9888 223.352 96.9133 223.276L92.4584 219.116C92.3073 218.965 92.3073 218.738 92.4584 218.587C92.6094 218.436 92.8359 218.436 92.9869 218.587L97.4418 222.747C97.5928 222.898 97.5928 223.125 97.4418 223.276C97.3663 223.352 97.2908 223.39 97.1775 223.39Z" fill="#8374AD"/>
<path d="M99.9712 220.402C99.8957 220.402 99.7825 220.364 99.707 220.289L95.2521 216.091C95.101 215.94 95.101 215.713 95.2521 215.561C95.4031 215.41 95.6296 215.41 95.7806 215.561L100.236 219.759C100.387 219.91 100.387 220.137 100.236 220.289C100.16 220.364 100.084 220.402 99.9712 220.402Z" fill="#8374AD"/>
<path d="M55.1201 223.39C55.0445 223.39 54.9313 223.352 54.8558 223.276L50.3631 219.116C50.2121 218.965 50.2121 218.738 50.3254 218.587C50.4764 218.436 50.7029 218.436 50.8539 218.549L55.3466 222.709C55.4976 222.86 55.4976 223.087 55.3843 223.239C55.3088 223.352 55.2333 223.39 55.1201 223.39Z" fill="#8374AD"/>
<path d="M57.9139 220.402C57.8384 220.402 57.7251 220.364 57.6496 220.289L53.157 216.091C53.0059 215.94 53.0059 215.713 53.157 215.561C53.308 215.41 53.5345 215.41 53.6855 215.561L58.1782 219.759C58.3292 219.91 58.3292 220.137 58.1782 220.289C58.1027 220.364 58.0272 220.402 57.9139 220.402Z" fill="#8374AD"/>
<ellipse cx="89.9289" cy="49.3145" rx="6.04057" ry="6.05085" fill="#FFBC00"/>
<path d="M91.2501 54.2308L91.0614 53.5122C91.8542 53.2853 92.5338 52.8693 93.1001 52.2642C94.6857 50.5246 94.5724 47.8017 92.8358 46.1756C91.0991 44.5872 88.3809 44.7007 86.7575 46.4403C86.3799 46.8563 86.1156 47.2723 85.9646 47.6883L85.2473 47.4236C85.4361 46.9319 85.7759 46.4025 86.1912 45.9487C88.1166 43.9065 91.2879 43.7931 93.3266 45.6461C95.3653 47.5748 95.4785 50.7515 93.6286 52.7937C92.949 53.4744 92.1562 53.966 91.2501 54.2308Z" fill="#BD8B00"/>
<path d="M89.6267 51.1675C89.3247 51.1297 89.0982 51.0919 88.9094 51.0541C88.7207 50.9784 88.6074 50.9406 88.4941 50.9028L88.6829 50.3355C88.7962 50.4112 88.9849 50.449 89.1359 50.5246C89.3247 50.5624 89.5135 50.6002 89.74 50.6002C90.0043 50.6002 90.193 50.5624 90.3063 50.4868C90.4196 50.4112 90.4573 50.2977 90.4573 50.1464C90.4573 50.0708 90.4196 49.9573 90.3818 49.9195C90.3441 49.8439 90.2686 49.8061 90.193 49.7304C90.1175 49.6926 90.0043 49.617 89.891 49.5792C89.7778 49.5413 89.6645 49.5035 89.5135 49.4279C89.4002 49.3901 89.2492 49.3523 89.1359 49.2766C89.0227 49.2388 88.9094 49.1632 88.7962 49.0875C88.6829 49.0119 88.6074 48.8984 88.5696 48.785C88.5319 48.6715 88.4941 48.5203 88.4941 48.369C88.4941 48.1043 88.5696 47.8395 88.7584 47.6505C88.9472 47.4614 89.1737 47.3479 89.5135 47.2723V46.5916H90.1553V47.2345C90.3441 47.2345 90.5328 47.2723 90.6838 47.3101C90.8349 47.3479 90.9481 47.3857 91.0614 47.4235L90.9859 48.0286C90.8726 47.9908 90.7216 47.953 90.5706 47.9152C90.4196 47.8774 90.2308 47.8395 90.042 47.8395C89.8155 47.8395 89.6645 47.8774 89.5512 47.953C89.438 48.0286 89.4002 48.1421 89.4002 48.2934C89.4002 48.369 89.4002 48.4446 89.438 48.4824C89.4757 48.5203 89.5135 48.5959 89.589 48.6337C89.6645 48.6715 89.74 48.7094 89.8155 48.7472C89.891 48.785 90.0043 48.8228 90.1175 48.8606C90.2686 48.9363 90.4196 48.9741 90.5706 49.0497C90.7216 49.1253 90.8349 49.201 90.9481 49.3144C91.0614 49.3901 91.1369 49.5035 91.2124 49.6548C91.2879 49.8061 91.2879 49.9195 91.2879 50.1086C91.2879 50.3733 91.2124 50.6002 91.0236 50.7893C90.8726 50.9784 90.5706 51.0919 90.2308 51.1675V51.9239H89.589V51.1675H89.6267Z" fill="#BD8B00"/>
<ellipse cx="72.8642" cy="30.7838" rx="6.04057" ry="6.05085" fill="#FFBC00"/>
<path d="M72.7887 35.8135C72.6377 35.8135 72.4867 35.8135 72.3357 35.8135C70.9766 35.6623 69.7685 35.0193 68.9001 33.9605C68.0318 32.9016 67.6543 31.5779 67.7675 30.2543C67.9185 28.8929 68.5604 27.6827 69.6175 26.8507C70.6746 25.9809 71.9959 25.6027 73.3173 25.7162C74.2989 25.8296 75.205 26.2078 75.9223 26.7751L75.4693 27.3802C74.8274 26.8885 74.0724 26.586 73.2418 26.4725C72.1092 26.3591 70.9766 26.6994 70.1082 27.418C69.2022 28.1365 68.6736 29.1954 68.5226 30.3299C68.4093 31.4645 68.7491 32.599 69.4664 33.5066C70.1838 34.4143 71.2409 34.9437 72.3735 35.095C72.902 35.1328 73.3928 35.095 73.8836 34.9815L74.0346 35.7379C73.6571 35.7757 73.2418 35.8135 72.7887 35.8135Z" fill="#BD8B00"/>
<path d="M72.7132 30.4055H73.7703V31.0106H72.7132C72.7132 31.1997 72.7132 31.351 72.6754 31.5779C72.6754 31.767 72.6376 31.956 72.5999 32.1451H74.2611V32.7502H71.8071C71.9203 32.1451 71.9958 31.5779 71.9958 31.0484H71.4673V30.4433H71.9958V30.0273C71.9958 29.7248 72.0336 29.4601 72.1091 29.271C72.1846 29.0819 72.2601 28.9306 72.3734 28.8172C72.4866 28.7037 72.6376 28.6281 72.7887 28.5524C72.9397 28.5146 73.1284 28.4768 73.355 28.4768C73.506 28.4768 73.657 28.4768 73.808 28.5146C73.9213 28.5524 74.0723 28.5903 74.1855 28.6281L73.9968 29.2332C73.808 29.1575 73.6192 29.0819 73.3927 29.0819C73.2795 29.0819 73.204 29.0819 73.1284 29.1197C73.0529 29.1575 72.9774 29.1953 72.9019 29.271C72.8264 29.3466 72.7887 29.4223 72.7509 29.5357C72.7132 29.6492 72.7132 29.8004 72.7132 29.9517V30.4055Z" fill="#BD8B00"/>
<ellipse cx="90.042" cy="9.87043" rx="6.04057" ry="6.05085" fill="#FFBC00"/>
<path d="M86.9841 13.8791C86.531 13.5766 86.1535 13.1227 85.8137 12.5933C85.0964 11.4588 84.8321 10.0973 85.1342 8.73588C85.4362 7.41226 86.229 6.27772 87.3616 5.55919C89.7401 4.04647 92.8736 4.76501 94.3838 7.10972C94.9123 7.97952 95.2144 8.88715 95.2144 9.79478H94.4593C94.4593 9.03842 94.2328 8.24425 93.742 7.48789C92.4583 5.48355 89.7778 4.87847 87.7769 6.16427C86.7953 6.76936 86.1158 7.75262 85.8892 8.88715C85.625 10.0217 85.8515 11.194 86.4555 12.1395C86.7576 12.5555 87.0973 12.9337 87.4371 13.1984L86.9841 13.8791Z" fill="#BD8B00"/>
<path d="M88.7207 8.92492C88.8339 8.4711 89.0227 8.13074 89.287 7.90384C89.5513 7.67693 89.9288 7.56348 90.3818 7.56348C90.5706 7.56348 90.7216 7.56348 90.8349 7.60129C90.9481 7.63911 91.0614 7.67693 91.2124 7.71475L91.0614 8.31983C90.9481 8.28201 90.8726 8.2442 90.7594 8.2442C90.6461 8.20638 90.5329 8.20638 90.3818 8.20638C90.1176 8.20638 89.891 8.28201 89.74 8.39547C89.589 8.54674 89.4758 8.73583 89.438 8.96274H90.7971L90.6839 9.49218H89.3247C89.3247 9.53 89.3247 9.56782 89.3247 9.64346C89.3247 9.68127 89.3247 9.71909 89.3247 9.75691C89.3247 9.79473 89.3247 9.83254 89.3247 9.87036C89.3247 9.90818 89.3247 9.946 89.3247 9.98382H90.5706L90.4573 10.5133H89.4003C89.4758 10.8158 89.589 11.0049 89.74 11.1183C89.891 11.2318 90.0798 11.3074 90.3441 11.3074C90.4951 11.3074 90.6461 11.3074 90.7594 11.2696C90.8726 11.2318 91.0237 11.194 91.1369 11.1562L91.2879 11.7234C91.2124 11.7613 91.0614 11.7991 90.9104 11.8369C90.7594 11.8747 90.5329 11.9125 90.3441 11.9125C89.8533 11.9125 89.4758 11.7991 89.2115 11.5343C88.9472 11.2696 88.7962 10.9293 88.6829 10.4754H88.1921V9.946H88.6452C88.6452 9.90818 88.6452 9.87036 88.6452 9.83254C88.6452 9.79473 88.6452 9.75691 88.6452 9.71909C88.6452 9.68127 88.6452 9.64346 88.6452 9.56782C88.6452 9.53 88.6452 9.49218 88.6452 9.45437H88.1921V8.92492H88.7207Z" fill="#BD8B00"/>
<path fill-rule="evenodd" clip-rule="evenodd" d="M2.7937 138.148H47.4184V93.4478H2.7937V138.148ZM46.6633 137.392H3.54877V94.2041H46.6633V137.392Z" fill="#E8E7EC"/>
<path d="M5.58203 99.9883L9.58636 95.9771L10.1203 96.512L6.11594 100.523L5.58203 99.9883Z" fill="#A17FFD"/>
<path d="M5.58203 96.512L6.11594 95.9771L10.1203 99.9883L9.58636 100.523L5.58203 96.512Z" fill="#A17FFD"/>
<rect x="10.6465" y="120.752" width="8.117" height="12.9715" fill="#A17FFD"/>
<rect x="20.8777" y="115.155" width="8.117" height="18.5685" fill="#A17FFD"/>
<rect x="31.6752" y="110.958" width="8.117" height="22.7663" fill="#8043F9"/>
<path d="M7.77713 118.786C7.62611 118.786 7.4751 118.672 7.43735 118.521C7.36184 118.332 7.4751 118.105 7.66387 118.029C10.0423 117.235 12.0055 115.382 12.9116 113.075C12.9494 112.962 12.9871 112.886 13.0249 112.773C13.2891 112.054 13.6289 111.222 14.3462 110.806C14.9125 110.504 15.5544 110.504 16.1207 110.504C16.5359 110.504 16.989 110.504 17.4043 110.541C19.443 110.579 21.3306 110.655 23.2183 110.201C25.7856 109.634 27.7487 108.234 28.6171 106.381C28.6926 106.192 28.7681 106.041 28.8436 105.852C29.1079 105.209 29.3721 104.566 29.8629 104.075C30.769 103.28 31.9394 103.318 33.072 103.356C33.374 103.356 33.7138 103.394 34.0158 103.356C35.979 103.318 37.9044 102.297 39.0748 100.709C39.188 100.557 39.4523 100.52 39.6033 100.633C39.7544 100.747 39.7921 101.011 39.6788 101.163C38.3575 102.94 36.2055 104.075 34.0158 104.112C33.676 104.112 33.374 104.112 33.0342 104.112C32.0149 104.075 31.0333 104.037 30.3915 104.642C30.0139 105.02 29.7874 105.549 29.5609 106.117C29.4854 106.306 29.4099 106.495 29.3344 106.684C28.3528 108.764 26.2008 110.314 23.4071 110.957C21.4439 111.411 19.3675 111.336 17.4043 111.298C16.989 111.298 16.5737 111.26 16.1584 111.26C15.6676 111.26 15.1768 111.26 14.7615 111.487C14.2707 111.789 14.0065 112.432 13.7799 113.075C13.7422 113.189 13.7044 113.264 13.6667 113.378C12.6851 115.874 10.5709 117.878 7.9659 118.786C7.85264 118.786 7.81488 118.786 7.77713 118.786Z" fill="#8043F9"/>
<path d="M0.943791 96.8892H0.188721V90.8384H7.77718V91.5947H0.943791V96.8892Z" fill="#E8E7EC"/>
<path d="M50.552 96.8892H49.7969V91.5947H42.9635V90.8384H50.552V96.8892Z" fill="#E8E7EC"/>
<path d="M50.552 140.834H42.9635V140.077H49.7969V134.783H50.552V140.834Z" fill="#E8E7EC"/>
<path d="M7.77718 140.834H0.188721V134.783H0.943791V140.077H7.77718V140.834Z" fill="#E8E7EC"/>
<ellipse cx="194.393" cy="61.4917" rx="2.75601" ry="2.7607" fill="#8043F9"/>
<ellipse cx="205.454" cy="53.0583" rx="2.756" ry="2.76069" fill="#8043F9"/>
<ellipse cx="217.271" cy="60.7732" rx="2.75601" ry="2.7607" fill="#8043F9"/>
<ellipse cx="229.655" cy="49.3144" rx="2.75601" ry="2.7607" fill="#8043F9"/>
<path d="M194.619 61.7944L194.166 61.1893L205.455 52.6047L217.234 60.2817L229.39 49.0498L229.919 49.5793L217.309 61.2649L205.455 53.5123L194.619 61.7944Z" fill="#8043F9"/>
<path d="M230.334 31.5401H213.874C213.647 31.5401 213.496 31.3888 213.496 31.1619C213.496 30.935 213.647 30.7837 213.874 30.7837H230.334C230.561 30.7837 230.712 30.935 230.712 31.1619C230.712 31.3888 230.561 31.5401 230.334 31.5401Z" fill="#E8E7EC"/>
<path d="M204.058 26.6995H195.148C194.921 26.6995 194.77 26.5482 194.77 26.3213C194.77 26.0944 194.921 25.9431 195.148 25.9431H204.058C204.284 25.9431 204.435 26.0944 204.435 26.3213C204.435 26.5482 204.284 26.6995 204.058 26.6995Z" fill="#E8E7EC"/>
<path d="M123.378 44.2468H114.469C114.242 44.2468 114.091 44.0956 114.091 43.8687C114.091 43.6417 114.242 43.4905 114.469 43.4905H123.378C123.605 43.4905 123.756 43.6417 123.756 43.8687C123.756 44.0956 123.605 44.2468 123.378 44.2468Z" fill="#E8E7EC"/>
<path d="M123.378 46.5537H114.469C114.242 46.5537 114.091 46.4024 114.091 46.1755C114.091 45.9486 114.242 45.7974 114.469 45.7974H123.378C123.605 45.7974 123.756 45.9486 123.756 46.1755C123.756 46.4024 123.605 46.5537 123.378 46.5537Z" fill="#E8E7EC"/>
<path d="M204.058 34.1873H195.148C194.921 34.1873 194.77 34.036 194.77 33.8091C194.77 33.5822 194.921 33.4309 195.148 33.4309H204.058C204.284 33.4309 204.435 33.5822 204.435 33.8091C204.435 34.036 204.284 34.1873 204.058 34.1873Z" fill="#E8E7EC"/>
<path d="M230.334 34.1873H213.874C213.647 34.1873 213.496 34.036 213.496 33.8091C213.496 33.5822 213.647 33.4309 213.874 33.4309H230.334C230.561 33.4309 230.712 33.5822 230.712 33.8091C230.712 34.036 230.561 34.1873 230.334 34.1873Z" fill="#E8E7EC"/>
<path d="M222.783 37.0615H213.874C213.647 37.0615 213.496 36.9103 213.496 36.6834C213.496 36.4564 213.647 36.3052 213.874 36.3052H222.783C223.01 36.3052 223.161 36.4564 223.161 36.6834C223.161 36.9103 223.01 37.0615 222.783 37.0615Z" fill="#E8E7EC"/>
<rect x="187.635" y="23.6362" width="5.39874" height="5.40795" fill="#B678FD"/>
<rect x="187.635" y="31.124" width="5.39874" height="5.40795" fill="#8043F9"/>
<path d="M98.9519 7.90402C98.8009 7.90402 98.6499 7.82838 98.6122 7.67711C98.5366 7.48802 98.6499 7.26111 98.8387 7.18548L109.108 3.21461C109.296 3.13897 109.523 3.25243 109.598 3.44152C109.674 3.63061 109.561 3.85751 109.372 3.93315L99.1029 7.90402C99.0274 7.90402 98.9897 7.90402 98.9519 7.90402Z" fill="#E8E7EC"/>
<path d="M131.495 3.29017H114.242C113.336 3.29017 112.619 2.57163 112.619 1.66401C112.619 0.75638 113.336 0.0378418 114.242 0.0378418H131.495C132.401 0.0378418 133.119 0.75638 133.119 1.66401C133.157 2.53382 132.401 3.29017 131.495 3.29017Z" fill="#E8E7EC"/>
<path d="M100.198 46.4404C100.047 46.4404 99.8958 46.3648 99.858 46.2135C99.7825 46.0244 99.8958 45.7975 100.085 45.7219L110.316 41.751C110.504 41.6754 110.731 41.7888 110.807 41.9779C110.882 42.167 110.769 42.3939 110.58 42.4695L100.349 46.4404C100.273 46.4404 100.236 46.4404 100.198 46.4404Z" fill="#E8E7EC"/>
<path d="M132.741 41.7887H115.488C114.582 41.7887 113.865 41.0702 113.865 40.1625C113.865 39.2549 114.582 38.5364 115.488 38.5364H132.741C133.647 38.5364 134.365 39.2549 134.365 40.1625C134.365 41.0702 133.61 41.7887 132.741 41.7887Z" fill="#E8E7EC"/>
<path d="M36.0922 182.66C36.0167 182.66 35.979 182.66 35.9035 182.622C29.7119 179.067 24.9172 173.092 22.7653 166.209C20.6511 159.402 21.1419 151.725 24.1621 145.22C24.2376 145.031 24.4642 144.956 24.6529 145.031C24.8417 145.107 24.9172 145.334 24.8417 145.523C21.8969 151.876 21.4061 159.326 23.4448 165.982C25.5213 172.676 30.2027 178.5 36.2055 181.941C36.3943 182.055 36.432 182.282 36.3565 182.471C36.3565 182.584 36.2055 182.66 36.0922 182.66Z" fill="#E8E7EC"/>
<path d="M147.767 212.612C149.881 215.41 153.317 218.057 158.829 219.419C158.867 225.243 158.64 225.167 157.772 228.495C157.772 228.495 151.165 242.034 151.694 244.189C152.222 246.345 158.791 255.308 158.791 255.308C160.15 256.14 162.265 257.237 164.983 257.879C168.796 258.825 171.741 258.409 174.497 258.069C175.214 257.993 175.931 257.879 176.649 257.842C183.52 257.312 186.578 259.997 192.732 261.472C198.244 262.796 206.512 263.25 218.026 258.749V244C214.1 243.547 210.023 242.979 205.908 242.336C203.982 242.034 202.094 241.731 200.245 241.391C195.525 240.559 190.957 239.651 186.578 238.668C184.388 236.739 182.576 235.302 181.255 234.281C179.556 232.958 178.499 232.239 177.215 230.688C177.139 230.613 177.064 230.499 176.988 230.424C174.761 227.625 175.063 226.113 175.138 225.848C175.327 225.243 175.441 224.789 175.516 224.562C175.554 224.449 175.554 224.373 175.592 224.259C176.837 217.944 176.762 212.385 176.347 208.111C172.798 207.128 169.211 206.107 165.662 205.086C164.907 204.859 164.114 204.859 163.322 205.048L159.962 205.918C158.678 206.258 157.319 206.145 156.073 205.653L149.164 202.892C148.107 202.855 145.615 202.93 144.671 204.405C143.048 206.977 146.823 211.326 147.767 212.612Z" fill="#B678FD"/>
<ellipse cx="163.473" cy="208.49" rx="1.05711" ry="1.0589" fill="#1B0E41"/>
<path d="M172.76 207.09L178.234 208.414C179.027 208.603 179.556 209.397 179.442 210.191C178.952 213.708 177.215 222.293 172.496 221.272C167.777 220.251 169.815 211.666 170.872 208.187C171.099 207.393 171.93 206.901 172.76 207.09Z" fill="#8043F9"/>
<path d="M144.596 204.519C147.465 205.313 148.636 203.913 149.089 203.006L145.729 201.644C145.2 201.418 144.596 201.796 144.558 202.401C144.483 202.968 144.483 203.687 144.596 204.519Z" fill="#1B0E41"/>
<path d="M163.208 220.44C156.451 220.137 151.807 216.885 151.618 216.734C151.467 216.62 151.392 216.393 151.543 216.204C151.656 216.015 151.882 215.977 152.071 216.129C152.109 216.167 156.715 219.381 163.246 219.684C163.473 219.684 163.624 219.873 163.624 220.062C163.586 220.289 163.397 220.44 163.208 220.44Z" fill="#8043F9"/>
<path d="M186.238 264.271C186.314 265.481 187.295 266.54 188.466 266.426C198.281 266.729 205.719 267.031 215.308 267.334C216.365 267.372 217.347 266.88 217.876 265.972C219.235 263.59 215.497 262.493 218.857 259.619C218.97 259.543 219.046 259.43 219.159 259.354C219.688 258.749 221.613 256.48 222.632 253.72C222.821 254.476 223.085 255.308 223.425 256.253C225.917 263.098 232.75 266.124 242 265.405C234.261 265.367 228.295 257.653 225.162 252.509C223.576 249.938 222.746 248.009 222.746 248.009C222.255 246.799 221.311 245.627 219.801 244.568C219.386 244.265 218.857 244.114 218.329 244.076L213.836 243.811L210.891 243.622C204.851 243.244 204.775 252.736 205.19 257.728C205.304 259.354 204.095 260.754 202.472 260.867L188.466 261.813C187.182 261.699 186.163 262.985 186.238 264.271Z" fill="#B678FD"/>
<path d="M164.983 257.917C168.796 258.863 171.741 258.447 174.497 258.106L176.007 251.11L164.983 257.917Z" fill="#A17FFD"/>
<path d="M162.416 246.988L159.999 253.568L135.422 254.741C134.138 254.627 133.081 255.913 133.157 257.237C133.232 258.447 134.214 259.506 135.422 259.392C145.653 259.695 153.695 259.997 163.926 260.338C168.154 256.858 169.287 255.951 173.515 252.471" fill="#B678FD"/>
<path d="M156.828 254.022C156.639 254.022 156.451 253.871 156.451 253.644C156.451 253.417 156.602 253.266 156.828 253.266L159.735 253.228L162.076 245.475C162.151 245.286 162.34 245.173 162.529 245.21C162.718 245.286 162.831 245.475 162.793 245.664L160.301 253.946L156.828 254.022Z" fill="#8043F9"/>
<path d="M189.825 262.228C189.598 262.228 189.447 262.077 189.447 261.85C189.447 261.623 189.598 261.472 189.825 261.472C189.9 261.472 197.715 261.472 203.454 261.359C202.434 260.754 201.868 260.224 201.339 259.203C200.735 258.031 200.433 256.631 200.433 254.854C200.433 252.736 200.962 251.11 201.981 250.089C203.831 248.236 206.814 248.538 209.23 248.992C209.419 249.03 209.57 249.219 209.532 249.446C209.494 249.635 209.305 249.786 209.079 249.749C206.851 249.333 204.095 249.03 202.51 250.618C201.642 251.488 201.188 252.925 201.188 254.854C201.188 256.518 201.453 257.842 202.019 258.863C202.623 260.073 203.265 260.451 205.077 261.396C205.228 261.472 205.304 261.661 205.266 261.812C205.228 261.964 205.077 262.115 204.926 262.115C199.112 262.228 189.9 262.228 189.825 262.228Z" fill="#8043F9"/>
<path d="M173.515 237.231C173.515 242.866 179.782 247.442 187.484 247.442C193.147 247.442 198.017 244.984 200.207 241.429C195.488 240.597 190.92 239.689 186.54 238.706C184.35 236.777 182.538 235.34 181.217 234.319C179.518 232.995 178.461 232.277 177.177 230.726C177.102 230.651 177.026 230.537 176.951 230.462C174.799 232.315 173.515 234.659 173.515 237.231Z" fill="#8043F9"/>
<path d="M213.383 246.421C213.383 250.543 216.705 253.871 220.82 253.871C222.444 253.871 223.954 253.341 225.162 252.472C223.576 249.9 222.746 247.971 222.746 247.971C222.255 246.761 221.311 245.589 219.801 244.53C219.386 244.227 218.857 244.076 218.329 244.038L213.836 243.773C213.534 244.605 213.383 245.513 213.383 246.421Z" fill="#8043F9"/>
<path d="M59.424 74.728L59.1219 74.9171C58.1781 75.5222 56.9322 75.2953 56.2904 74.3498L50.0611 65.0088C49.457 64.0634 49.6836 62.8154 50.6274 62.1725L50.9294 61.9834C51.8733 61.3783 53.1191 61.6052 53.7609 62.5507L59.9903 71.8917C60.5943 72.8371 60.33 74.1229 59.424 74.728Z" fill="#E8E7EC"/>
<path d="M48.551 58.6933C48.098 58.9958 47.9847 59.6009 48.2867 60.0169L50.3632 63.1558C50.6652 63.6096 51.2693 63.723 51.6845 63.4205C52.1376 63.1179 52.2508 62.5129 51.9488 62.0969L49.8724 58.958C49.5703 58.5042 48.9663 58.3907 48.551 58.6933Z" fill="#E8E7EC"/>
<path fill-rule="evenodd" clip-rule="evenodd" d="M31.8262 50.7516C31.8262 56.8024 36.7719 61.7565 42.8124 61.7565C48.853 61.7565 53.7987 56.8024 53.7987 50.7516C53.7987 44.7007 48.853 39.7466 42.8124 39.7466C36.7719 39.7466 31.8262 44.7007 31.8262 50.7516ZM33.8649 50.7516C33.8649 45.7974 37.8667 41.7887 42.8124 41.7887C47.7582 41.7887 51.76 45.7974 51.76 50.7516C51.76 55.7057 47.7582 59.7144 42.8124 59.7144C37.8667 59.7144 33.8649 55.7057 33.8649 50.7516Z" fill="#E8E7EC"/>
<path d="M49.0417 49.6925C48.7397 49.6925 48.5132 49.5034 48.3999 49.2009C48.2489 48.6714 47.9846 48.142 47.6071 47.4991C45.8705 44.8518 42.2839 44.1711 39.6034 45.9107C38.9616 46.3267 38.4708 46.8183 38.0932 47.3856C37.8667 47.6882 37.4892 47.7638 37.1871 47.5369C36.8851 47.31 36.8096 46.9318 37.0361 46.6293C37.5269 45.9485 38.131 45.3435 38.9238 44.8518C40.5095 43.7929 42.3971 43.4147 44.247 43.7929C46.097 44.1711 47.7204 45.23 48.7397 46.8183C49.1928 47.5747 49.4948 48.1798 49.6836 48.8605C49.7968 49.2009 49.5703 49.579 49.2305 49.6925C49.155 49.6925 49.1173 49.6925 49.0417 49.6925Z" fill="#E8E7EC"/>
<path d="M156.776 51.843C156.776 51.843 154.545 53.1372 152.125 52.6578C149.705 52.2264 147.902 51.124 148.044 50.2132C148.187 49.3025 151.034 47.8645 152.695 49.3984C155.921 52.3702 156.776 51.843 156.776 51.843Z" fill="#1B0E41"/>
<path d="M141.314 49.1503C141.314 49.1503 143.103 51.4004 145.71 51.8825C148.316 52.3647 150.565 51.9897 150.718 50.9718C150.871 49.9539 148.623 47.3289 146.323 48.2396C141.979 50.0075 141.314 49.1503 141.314 49.1503Z" fill="#1B0E41"/>
</svg>
