<svg width="96" height="96" viewBox="0 0 96 96" fill="none" xmlns="http://www.w3.org/2000/svg">
<circle cx="48" cy="48" r="48" fill="#F4F4F4"/>
<path d="M48.3529 42.164V21.6985" stroke="#00C090" stroke-width="3.86567" stroke-linecap="round"/>
<path fill-rule="evenodd" clip-rule="evenodd" d="M79.3125 78.8611H16.6875C13.7134 78.8611 11.3032 76.4496 11.3032 73.4749V45.3353C11.3032 42.3607 13.7134 39.9492 16.6875 39.9492H79.3125C82.2862 39.9492 84.6968 42.3607 84.6968 45.3353V73.4749C84.6968 76.4496 82.2862 78.8611 79.3125 78.8611Z" fill="#8043F9"/>
<path fill-rule="evenodd" clip-rule="evenodd" d="M78.5881 69.2558V49.5547C76.5995 49.5547 74.9876 47.9423 74.9876 45.953H21.0125C21.0125 47.9423 19.4006 49.5547 17.412 49.5547V69.2558C19.4006 69.2558 21.0125 70.8682 21.0125 72.8575H74.9876C74.9876 70.8682 76.5995 69.2558 78.5881 69.2558Z" fill="#A17FFD"/>
<path fill-rule="evenodd" clip-rule="evenodd" d="M55.2576 59.4049C55.2576 63.4149 52.0083 66.6653 48.0001 66.6653C43.9915 66.6653 40.7422 63.4149 40.7422 59.4049C40.7422 55.3955 43.9915 52.145 48.0001 52.145C52.0083 52.145 55.2576 55.3955 55.2576 59.4049Z" fill="#8043F9"/>
<path fill-rule="evenodd" clip-rule="evenodd" d="M39.8806 9.14054C44.9762 12.4498 48.6198 19.8827 46.4754 22.9328C44.1307 26.2677 34.7001 24.6184 28.6441 20.0897C23.1606 15.9886 21.5074 8.44212 21.0418 5.2613C20.9354 4.53684 21.5837 3.9287 22.3008 4.07871C24.8138 4.60421 28.0505 5.3417 31.7866 6.34688C38.0698 8.03879 39.2641 8.74035 39.8806 9.14054Z" fill="#00C090"/>
<path d="M32.8273 12.8771H26.4759" stroke="#168069" stroke-width="0.705955" stroke-linecap="square"/>
<path d="M44.1186 20.64L25.0645 7.23152" stroke="#168069" stroke-width="0.705955" stroke-linecap="square"/>
<path d="M37.0615 14.9943L36.3558 10.0544" stroke="#168069" stroke-width="0.705955" stroke-linecap="square"/>
<path d="M38.473 17.1114H30.7102" stroke="#168069" stroke-width="0.705955" stroke-linecap="square"/>
<path fill-rule="evenodd" clip-rule="evenodd" d="M57.19 13.8201C51.7423 16.51 47.2538 23.4649 49.0264 26.745C50.9647 30.3314 60.5237 29.7978 67.0678 26.0098C72.9936 22.5797 75.5187 15.2784 76.3538 12.1744C76.5438 11.467 75.9708 10.7875 75.2417 10.8526C72.6842 11.0794 69.3832 11.4329 65.5556 11.9943C59.1175 12.938 57.8491 13.4945 57.19 13.8201Z" fill="#00C090"/>
<path d="M62.467 19.2286L68.1126 19.9343" stroke="#168069" stroke-width="0.705955" stroke-linecap="square"/>
<path d="M51.1757 24.8742L70.2298 14.9943" stroke="#168069" stroke-width="0.705955" stroke-linecap="square"/>
<path d="M61.0556 19.9342L58.2327 16.4057" stroke="#168069" stroke-width="0.705955" stroke-linecap="square"/>
<path d="M56.8214 22.0513L62.467 24.1685" stroke="#168069" stroke-width="0.705955" stroke-linecap="square"/>
<path fill-rule="evenodd" clip-rule="evenodd" d="M49.7961 37.1066L54.8284 40.6548H40.3125L46.3752 37.1066H49.7961Z" fill="#8043F9"/>
</svg>
