<?xml version="1.0" encoding="utf-8"?>
<!-- Generator: Adobe Illustrator 26.1.0, SVG Export Plug-In . SVG Version: 6.00 Build 0)  -->
<svg version="1.1" id="Layer_1" xmlns="http://www.w3.org/2000/svg" xmlns:xlink="http://www.w3.org/1999/xlink" x="0px" y="0px"
	 viewBox="0 0 203.3 103" style="enable-background:new 0 0 203.3 103;" xml:space="preserve">
<g>
	<path style="fill:#6838CC;" d="M182.4,103l2.4-16.9l1.9-13.5c0.8-5.8-3.3-11-9.1-11.7l-7.7-0.9h0l-26.2-3.1
		c-5.1-0.6-9.9,2.7-11.3,7.7l-1.1,5.5l-5.4,28.2L125,103H182.4z"/>
	<defs>
		<filter id="Adobe_OpacityMaskFilter" filterUnits="userSpaceOnUse" x="0" y="0" width="203.3" height="96.8">
			<feColorMatrix  type="matrix" values="1 0 0 0 0  0 1 0 0 0  0 0 1 0 0  0 0 0 1 0"/>
		</filter>
	</defs>
	
		<mask maskUnits="userSpaceOnUse" x="0" y="0" width="203.3" height="96.8" id="mask0_401_2011_00000004516147003088486850000005703064600345294774_">
		<path style="fill-rule:evenodd;clip-rule:evenodd;fill:#FFFFFF;filter:url(#Adobe_OpacityMaskFilter);" d="M241.7-86h-360v213
			c0-13.3,10.7-24,24-24h312c13.3,0,24,10.7,24,24V-86z"/>
	</mask>
	<g style="mask:url(#mask0_401_2011_00000004516147003088486850000005703064600345294774_);">
		<path style="fill:#FFD3CF;" d="M130.2,86.1l-40.2,9.5l-3.5,0.8c-1,0.2-2,0.4-3,0.4c-3.1,0-6.1-1.1-8.4-3.1
			c-3.2-2.7-4.9-6.7-4.6-10.8l2.9-45.7l26.1,1.7l-0.4,6.6L97.5,67l23.3-5.5l-2,5.2l6.4-1.5L130.2,86.1z"/>
		<path style="fill:#F2A098;" d="M130.2,86.1l-40.2,9.5c-0.7-0.6-1.4-1.2-2.1-1.9c-3.2-3.6-4.1-8.8-2.4-13.3l13.4-35L97.5,67
			l23.3-5.5l-2,5.2l6.4-1.5L130.2,86.1z"/>
		<path style="fill:#E8E7EC;" d="M29.9,60.6c-0.2,0-0.4-0.1-0.5-0.3L28,57.4c-0.1-0.3,0-0.6,0.2-0.7c0.3-0.1,0.6,0,0.7,0.2l1.4,2.9
			c0.1,0.3,0,0.6-0.2,0.7C30.1,60.6,30,60.6,29.9,60.6z"/>
		<path style="fill:#E8E7EC;" d="M25.6,51.9c-0.2,0-0.4-0.1-0.5-0.3l-2.9-5.8c-0.1-0.3,0-0.6,0.2-0.7c0.3-0.1,0.6,0,0.7,0.2l2.9,5.8
			c0.1,0.3,0,0.6-0.2,0.7C25.8,51.9,25.7,51.9,25.6,51.9z"/>
		<path style="fill:#E8E7EC;" d="M19.9,40.3c-0.2,0-0.4-0.1-0.5-0.3L18,37.2c-0.1-0.3,0-0.6,0.2-0.7c0.3-0.1,0.6,0,0.7,0.2l1.4,2.9
			c0.1,0.3,0,0.6-0.2,0.7C20,40.3,19.9,40.3,19.9,40.3z"/>
		<path style="fill:#A17FFD;" d="M159.7,10.3c-0.2,0-0.4-0.1-0.5-0.3l-3.5-7.9c-0.1-0.3,0-0.6,0.3-0.7c0.3-0.1,0.6,0,0.7,0.3
			l3.5,7.9c0.1,0.3,0,0.6-0.3,0.7C159.8,10.3,159.7,10.3,159.7,10.3z"/>
		<path style="fill:#A17FFD;" d="M174.1,9.5c0,0-0.1,0-0.1,0c-0.3-0.1-0.5-0.3-0.4-0.6l1.7-8.5c0.1-0.3,0.3-0.5,0.6-0.4
			c0.3,0.1,0.5,0.3,0.4,0.6l-1.7,8.5C174.6,9.4,174.4,9.5,174.1,9.5z"/>
		<path style="fill:#A17FFD;" d="M186.5,14.5c-0.1,0-0.2,0-0.3-0.1c-0.2-0.2-0.3-0.5-0.1-0.7l4.9-7.1c0.2-0.2,0.5-0.3,0.7-0.1
			c0.2,0.2,0.3,0.5,0.1,0.7l-4.9,7.1C186.9,14.4,186.7,14.5,186.5,14.5z"/>
		<path style="fill:#A17FFD;" d="M194.8,23.2c-0.2,0-0.4-0.1-0.5-0.3c-0.1-0.3,0-0.6,0.3-0.7l8-3.3c0.3-0.1,0.6,0,0.7,0.3
			c0.1,0.3,0,0.6-0.3,0.7l-8,3.3C194.9,23.2,194.9,23.2,194.8,23.2z"/>
		<path style="fill:#FFD3CF;" d="M142.3,42.6l5.3-9c0.9-1.7,0.3-3.9-1.4-4.8l-0.2-0.1c-1.7-0.9-3.9-0.3-4.8,1.4l-5.3,9
			c-0.9,1.7-0.3,3.9,1.4,4.8l0.2,0.1C139.2,44.9,141.4,44.3,142.3,42.6z"/>
		<path style="fill:#FFD3CF;" d="M137.6,36.7c-0.2-0.3-2.3-2.5-5.2-2.2c-2.9,0.3-5.4,3-5.6,6.6c-0.2,0.7-0.3,1.8-0.1,3.1
			c0.3,2,1.2,3.5,1.7,4.2c1.9,1.8,3.5,2.2,4.7,2.1c0,0,2.4-0.1,9.3-7.9"/>
		<path style="fill:#FFD3CF;" d="M107.8,31.5l5.3-9c0.9-1.7,0.3-3.9-1.4-4.8l-0.2-0.1c-1.7-0.9-3.9-0.3-4.8,1.4l-5.3,9
			c-0.9,1.7-0.3,3.9,1.4,4.8l0.2,0.1C104.8,33.8,106.9,33.2,107.8,31.5z"/>
		<path style="fill:#FFD3CF;" d="M103.1,25.6c-0.2-0.3-2.3-2.5-5.2-2.2c-2.9,0.3-5.4,3-5.6,6.6c-0.2,0.7-0.3,1.8-0.1,3.1
			c0.3,2,1.2,3.5,1.7,4.2c1.9,1.8,3.5,2.2,4.7,2.1c0,0,2.4-0.1,9.3-7.9"/>
		<path style="fill:#FFD3CF;" d="M91.5,43.1l-14.9-3.6c-3.4-0.8-5.6-4.3-4.7-7.7L76,14.9c0.8-3.4,4.3-5.5,7.7-4.7l14.9,3.6
			c3.4,0.8,5.6,4.3,4.7,7.7l-4.1,16.9C98.4,41.8,94.9,44,91.5,43.1z"/>
		<path style="fill:#8043F9;" d="M127.7,89L122,60.7l23.9-4.7c4.3-0.9,8.6,2,9.4,6.3l2.5,12.6c0.9,4.3-2,8.5-6.3,9.4L127.7,89z"/>
		<path style="fill:#1B0E41;" d="M171.9,41.9l-7.3-6.7l-5.8-4.2l-4.4-1.1c-0.4-0.7-1.9-4-0.8-8c1.1-3.7,3.7-5.6,4.4-6.1
			c1.4-0.7,3.7-1.7,6.7-1.9c5.8-0.3,10,2.9,11.1,3.8c1,0,4.5-0.1,7.6,2.5c1.7,1.4,2.6,3.1,3,4.1c3.1,0.8,5.4,3.2,5.6,6
			c0.2,2.4-1.1,4.3-1.5,4.7c4.2,2,6.9,6,6.7,10.2c-0.2,3.8-2.6,6.3-3.3,6.9c2.3,2.1,3.9,4.4,4.2,7.1c0.4,3.8-2.3,5.2-2,9.4
			c0.3,3.8,2.5,4.5,3.2,8c0.4,2.4,0.1,6-3.8,11c-2.8,3.1-4.9,3.6-6.3,3.5c-2.6-0.2-3.9-2.7-6.1-2.1c-1.8,0.4-1.9,2.2-3.5,2.3
			c-1.6,0.1-2-1.3-4.4-2.7c-3.5-1.9-5.6-0.4-7-2.1c-1.5-2-0.4-6.1-0.4-6.1c-2.5-0.1-4.6-1.8-5.1-4c-0.6-2.7,1.5-4.7,1.6-4.8
			c-0.6-1.3-1.4-3-2-5.1c0,0-0.8-3-0.9-5.8C161,56.4,164.7,48.9,171.9,41.9z"/>
		<path style="fill:#FFD3CF;" d="M166.6,38.3c-3-0.8-6,1-6.8,4l-3.9,14.9c-0.8,3,1,6,4,6.8c3,0.8,6-1,6.8-4l3.9-14.9
			C171.3,42.1,169.5,39,166.6,38.3z"/>
		<path style="fill:#FFD3CF;" d="M172.2,35.8c0,0,2.8-2.5,5.1,1.3c2.3,3.8-3.5,6.5-3.5,6.5c-0.1,0-1,0.3-1.8-0.1
			c-0.6-0.4-0.9-0.9-1-1.1C171.4,40.2,171.8,38,172.2,35.8z"/>
		<path style="fill:#D6B1AE;" d="M157.6,50.3l-0.9,3.6c1.1,0.4,3.1,1,5.7,0.7c3.1-0.3,5.3-1.7,6.2-2.4c0.7-2.7,1.4-5.5,2.2-8.2
			L157.6,50.3z"/>
		<path style="fill:#FFD3CF;" d="M157.2,51.3c-6-1.6-9.7-7.8-8.1-13.8l1.6-6.1c1.6-6,7.8-9.7,13.8-8.1c6,1.6,9.7,7.8,8.1,13.8
			l-1.6,6.1C169.5,49.3,163.2,52.9,157.2,51.3z"/>
		<ellipse style="fill:#1B0E41;" cx="161.9" cy="34.7" rx="1.3" ry="1.3"/>
		<ellipse style="fill:#1B0E41;" cx="156.1" cy="33.2" rx="1.3" ry="1.3"/>
		<path style="fill:#1B0E41;" d="M164.3,33.3c-0.1,0-0.3,0-0.4-0.1c-0.4-0.4-1-0.7-1.6-0.9c-0.5-0.1-1-0.2-1.5-0.1
			c-0.3,0-0.6-0.2-0.6-0.5c0-0.3,0.2-0.6,0.5-0.6c0.6-0.1,1.3,0,1.9,0.2c0.7,0.2,1.4,0.6,2,1.1c0.2,0.2,0.2,0.5,0,0.8
			C164.6,33.2,164.5,33.3,164.3,33.3z"/>
		<path style="fill:#1B0E41;" d="M158.6,31.6c-0.1,0-0.2,0-0.3-0.1c-0.5-0.4-1.1-0.6-1.6-0.7c-0.5-0.1-1-0.1-1.5,0
			c-0.3,0.1-0.6-0.1-0.6-0.4s0.1-0.6,0.4-0.6c0.6-0.1,1.3-0.1,1.9,0c0.7,0.1,1.5,0.4,2.1,0.9c0.2,0.2,0.3,0.5,0.1,0.7
			C158.9,31.5,158.8,31.6,158.6,31.6z"/>
		<path style="fill:#FFFFFF;" d="M156.2,43.1c1.8,0.5,3.6-0.6,4.1-2.4l-6.5-1.7C153.4,40.8,154.5,42.6,156.2,43.1z"/>
		<path style="fill:#1B0E41;" d="M160.9,22.4c0,0,1.9,10.3,11.3,13.5c9.4,3.2,6.4-6.9,6.4-6.9s-3.5-6.3-4.8-7
			c-1.3-0.7-7.4-1.3-8.1-2.1C164.9,19,160.9,22.4,160.9,22.4z"/>
		<path style="fill:#C9C9C9;" d="M150.9,33.9l-97,3.5l4.3-37.3l93.3,28.1c1.2,0.6,1.8,1.9,1.6,3.2C153,32.6,152.1,33.6,150.9,33.9z"
			/>
		<path style="fill:#E8E7EC;" d="M66.1,20c-1.2,10.3-6.7,18.1-12.2,17.4c-5.5-0.6-9.1-9.5-7.9-19.8C47.2,7.4,52.7-0.4,58.2,0.2
			C63.8,0.9,67.3,9.7,66.1,20z"/>
		<path style="fill:#FFD3CF;" d="M139.3,37.5l6.3-17.2c0.7-2-0.3-4.1-2.3-4.9l-0.2-0.1c-2-0.7-4.1,0.3-4.9,2.3L132,34.9
			c-0.7,2,0.3,4.1,2.3,4.9l0.2,0.1C136.4,40.5,138.6,39.5,139.3,37.5z"/>
		<path style="fill:#FFD3CF;" d="M132,36.4l6.3-17.2c0.7-2-0.3-4.1-2.3-4.9l-0.2-0.1c-2-0.7-4.1,0.3-4.9,2.3l-6.3,17.2
			c-0.7,2,0.3,4.1,2.3,4.9l0.2,0.1C129.1,39.3,131.3,38.3,132,36.4z"/>
		<path style="fill:#FFD3CF;" d="M119.3,33.5l6.3-17.2c0.7-2-0.3-4.1-2.3-4.9l-0.2-0.1c-2-0.7-4.1,0.3-4.9,2.3L112,30.8
			c-0.7,2,0.3,4.1,2.3,4.9l0.2,0.1C116.4,36.5,118.6,35.5,119.3,33.5z"/>
		<path style="fill:#FFD3CF;" d="M125.3,34.9l6.3-17.2c0.7-2-0.3-4.1-2.3-4.9l-0.2-0.1c-2-0.7-4.1,0.3-4.9,2.3l-6.3,17.2
			c-0.7,2,0.3,4.1,2.3,4.9l0.2,0.1C122.4,37.8,124.6,36.8,125.3,34.9z"/>
		<path style="fill:#FFD3CF;" d="M127.4,51.2l-14.3-5.4c-3.3-1.2-5-4.9-3.8-8.2l6.1-16.3c1.2-3.3,5-5,8.3-3.8l14.3,5.4
			c3.3,1.2,5,4.9,3.8,8.2l-6.1,16.3C134.5,50.8,130.7,52.5,127.4,51.2z"/>
		<path style="fill:#FFD3CF;" d="M103.8,18.2l2-7.9c0.5-2-0.8-4.1-2.8-4.5l-0.2,0c-2-0.5-4.1,0.8-4.6,2.8l-2,7.9
			c-0.5,2,0.8,4.1,2.8,4.5l0.2,0C101.3,21.5,103.3,20.2,103.8,18.2z"/>
		<path style="fill:#FFD3CF;" d="M96.4,17.4l2-7.9c0.5-2-0.8-4.1-2.8-4.5l-0.2,0c-2-0.5-4.1,0.8-4.6,2.8l-2,7.9
			c-0.5,2,0.8,4.1,2.8,4.5l0.2,0C93.9,20.7,95.9,19.4,96.4,17.4z"/>
		<path style="fill:#FFD3CF;" d="M90,17.4l2-7.9c0.5-2-0.8-4.1-2.8-4.5l-0.2,0c-2-0.5-4.1,0.8-4.6,2.8l-2,7.9
			c-0.5,2,0.8,4.1,2.8,4.5l0.2,0C87.4,20.7,89.5,19.4,90,17.4z"/>
		<path style="fill:#FFD3CF;" d="M83.4,16.8l2-7.9c0.5-2-0.8-4.1-2.8-4.5l-0.2,0c-2-0.5-4.1,0.8-4.6,2.8l-2,7.9
			c-0.5,2,0.8,4.1,2.8,4.5l0.2,0C80.9,20.1,83,18.8,83.4,16.8z"/>
		<path style="fill:#F2A098;" d="M88.9,44.7c-0.9,0-1.7-0.2-2.3-0.7c-0.2-0.2-0.5-0.4-0.6-0.6c-0.9,0.5-1.9,0.7-2.9,0.5
			c-2-0.4-3.5-2.1-4.4-3.5c-0.2-0.2-0.1-0.6,0.1-0.7c0.2-0.2,0.6-0.1,0.7,0.1c1.2,1.7,2.5,2.8,3.7,3c0.8,0.1,1.5,0,2.3-0.5
			c0-0.1,0-0.2,0-0.4c0-0.7,0.2-1.2,0.7-1.6c0.2-0.2,0.4-0.2,0.6-0.3c0.8-0.1,1,0.3,1.1,0.5c0.3,0.7-0.6,1.6-1.1,2.1
			c0.1,0.2,0.2,0.3,0.4,0.4c0.6,0.4,1.5,0.6,2.4,0.4c0.9-0.2,1.6-0.6,2-1.2c0.2-0.2,0.5-0.3,0.7-0.2c0.2,0.2,0.3,0.5,0.2,0.7
			c-0.5,0.8-1.5,1.4-2.7,1.6C89.5,44.7,89.2,44.7,88.9,44.7z"/>
		<path style="fill:#FFD3CF;" d="M106.4,95.5c-3.7,0-7.3-1.6-9.9-4.5c-3.2-3.6-4.1-8.8-2.4-13.3L112.5,30l24.5,9.4L127.5,64
			l28.1-6.7l6,25.4l-52.2,12.4C108.4,95.4,107.4,95.5,106.4,95.5z"/>
		<path style="fill:#8043F9;" d="M157.5,84.9l-5.6-28.3l23.9-4.7c4.3-0.9,8.6,2,9.4,6.3l2.5,12.6c0.9,4.3-2,8.5-6.3,9.4L157.5,84.9z
			"/>
		<path style="fill:#F2A098;" d="M125,71.1c-0.1,0-0.1,0-0.2,0c-0.3-0.1-0.4-0.4-0.3-0.7l5.3-13.9c0.1-0.3,0.4-0.4,0.7-0.3
			c0.3,0.1,0.4,0.4,0.3,0.7l-5.3,13.9C125.4,71,125.2,71.1,125,71.1z"/>
		<path style="fill:#F2A098;" d="M129.7,23.1c-0.1,0-0.1,0-0.2,0c-0.3-0.1-0.4-0.4-0.3-0.7l2.4-7.1c0.1-0.3,0.4-0.4,0.7-0.3
			c0.3,0.1,0.4,0.4,0.3,0.7l-2.4,7.1C130.1,23,129.9,23.1,129.7,23.1z"/>
		<path style="fill:#F2A098;" d="M136,25.2c-0.1,0-0.1,0-0.2,0c-0.3-0.1-0.4-0.4-0.3-0.7l2.4-7.1c0.1-0.3,0.4-0.4,0.7-0.3
			c0.3,0.1,0.4,0.4,0.3,0.7l-2.4,7.1C136.4,25.1,136.2,25.2,136,25.2z"/>
		<path style="fill:#F2A098;" d="M123.2,21.3c-0.1,0-0.1,0-0.2,0c-0.3-0.1-0.4-0.4-0.3-0.7l2.4-7.1c0.1-0.3,0.4-0.4,0.7-0.3
			c0.3,0.1,0.4,0.4,0.3,0.7l-2.4,7.1C123.7,21.2,123.5,21.3,123.2,21.3z"/>
		<path style="fill:#F2A098;" d="M84.1,14.6c0,0-0.1,0-0.1,0c-0.3-0.1-0.5-0.3-0.4-0.6l1.5-7.8c0.1-0.3,0.3-0.5,0.6-0.4
			c0.3,0.1,0.5,0.3,0.4,0.6l-1.5,7.8C84.6,14.4,84.4,14.6,84.1,14.6z"/>
		<path style="fill:#F2A098;" d="M90.1,14.8c0,0-0.1,0-0.1,0c-0.3-0.1-0.5-0.3-0.4-0.6l1.5-7.8c0.1-0.3,0.3-0.5,0.6-0.4
			C92,6,92.2,6.3,92.2,6.6l-1.5,7.8C90.6,14.6,90.4,14.8,90.1,14.8z"/>
		<path style="fill:#F2A098;" d="M96.9,15.5c0,0-0.1,0-0.1,0c-0.3-0.1-0.5-0.3-0.4-0.6l1.5-7.8c0.1-0.3,0.3-0.5,0.6-0.4
			C98.8,6.8,99,7,98.9,7.3l-1.5,7.8C97.3,15.4,97.1,15.5,96.9,15.5z"/>
		<path style="fill-rule:evenodd;clip-rule:evenodd;fill:#FFBC00;" d="M23.9,6.9c2.8,2.8,2.8,7.4,0,10.3c-2.4,2.4-6.1,2.8-8.9,1.1
			l-4.2,4.2l1.6,1.6l-2.3,2.3l-1.6-1.6l-2.3,2.3l1.6,1.6l-2.3,2.3l-1.6-1.6l-1.5,1.5L0,28.4l12.5-12.5c-1.7-2.8-1.4-6.5,1.1-8.9
			C16.4,4.1,21.1,4.1,23.9,6.9z M19,9.2c-0.7,0.7-0.7,1.9,0,2.7c0.7,0.7,1.9,0.7,2.7,0c0.7-0.7,0.7-1.9,0-2.7
			C20.9,8.5,19.7,8.5,19,9.2z"/>
		<path style="fill:#FFBC00;" d="M15,18.3l-4.2,4.2l1.6,1.6l-2.3,2.3l-1.6-1.6l-2.3,2.3l1.6,1.6l-2.3,2.3l-1.6-1.6l-1.5,1.5
			l-1.2-1.2L19,11.8c0.7,0.7,1.9,0.7,2.7,0c0.7-0.7,0.7-1.9,0-2.7l2.3-2.3c2.8,2.8,2.8,7.4,0,10.3C21.5,19.7,17.8,20,15,18.3z"/>
		<path style="fill:#FFBC00;" d="M35.4,72.6l-3.9,13.8c0,0,0,0,0,0.1c0,0,0,0,0,0.1l5.3,7.6c0.2,0.3,0.5,0.4,0.8,0.5
			c0.3,0.1,0.6,0,0.9-0.2l6.1-4.2l-4.2-6.1l4.1-2.8l4.2,6.1l6.1-4.2c0.3-0.2,0.4-0.5,0.5-0.8c0.1-0.3,0-0.6-0.2-0.9l-5.3-7.6
			c0,0-0.1-0.1-0.1-0.1L35.4,72.6z"/>
		<path style="fill:#FFBC00;" d="M52,69.7l-5.5-0.5l-4.5-6.5c-0.1-0.1-0.2-0.2-0.4-0.3s-0.3,0-0.5,0.1l-3,2.1
			C38,64.8,38,65,37.9,65.1c0,0.2,0,0.3,0.1,0.5l2.1,3.1l-6.1-0.6c-0.5,0-1,0.1-1.5,0.4c-0.5,0.3-0.8,0.7-0.9,1.2l-4.8,17.4
			c0,0.2,0,0.3,0.1,0.5c0.1,0.1,0.2,0.2,0.4,0.3l1.8,0.5c0.1,0,0.3,0,0.5-0.1c0.1-0.1,0.2-0.2,0.3-0.4l4.7-16.7l17.3,1.6
			c0.1,0,0.3,0,0.4-0.1l0,0c0.1-0.1,0.2-0.3,0.2-0.4l0.2-1.9c0-0.2,0-0.3-0.1-0.4C52.3,69.8,52.2,69.7,52,69.7z"/>
	</g>
</g>
</svg>
