<?xml version="1.0" encoding="utf-8"?>
<!-- Generator: Adobe Illustrator 26.1.0, SVG Export Plug-In . SVG Version: 6.00 Build 0)  -->
<svg version="1.1" id="Layer_1" xmlns="http://www.w3.org/2000/svg" xmlns:xlink="http://www.w3.org/1999/xlink" x="0px" y="0px"
	 viewBox="0 0 163.6 97" style="enable-background:new 0 0 163.6 97;" xml:space="preserve">
<g>
	<g>
		<defs>
			<path id="SVGID_1_" d="M0.2,8h163.4v77c0,6.6-5.4,12-12,12H0.2V8z"/>
		</defs>
		<clipPath id="SVGID_00000066473834838183401260000018032834408136820156_">
			<use xlink:href="#SVGID_1_"  style="overflow:visible;"/>
		</clipPath>
		<g style="clip-path:url(#SVGID_00000066473834838183401260000018032834408136820156_);">
			<circle style="fill:#8A52FA;" cx="104.1" cy="114.2" r="103.5"/>
			<path style="fill:#FFD3CF;" d="M104.7,81.3l-31.2,7.4l-2.7,0.6c-0.8,0.2-1.6,0.3-2.3,0.3c-2.4,0-4.7-0.8-6.5-2.4
				c-2.5-2.1-3.8-5.2-3.6-8.4l2.3-35.3L81,44.8l-0.3,5.1l-1.1,16.6l18.1-4.3l-1.6,4.1l4.9-1.2L104.7,81.3z"/>
			<path style="fill:#F2A098;" d="M104.7,81.3l-31.2,7.4c-0.6-0.4-1.1-0.9-1.6-1.5c-2.5-2.8-3.2-6.8-1.8-10.3l10.4-27l-1.1,16.6
				l18.1-4.3l-1.6,4.1l4.9-1.2L104.7,81.3z"/>
			<path style="fill:#E8E7EC;" d="M27,61.6c-0.2,0-0.3-0.1-0.4-0.2l-1.1-2.2c-0.1-0.2,0-0.4,0.2-0.6c0.2-0.1,0.5,0,0.6,0.2l1.1,2.2
				c0.1,0.2,0,0.4-0.2,0.6C27.2,61.6,27.1,61.6,27,61.6z"/>
			<path style="fill:#E8E7EC;" d="M23.7,54.9c-0.2,0-0.3-0.1-0.4-0.2l-2.2-4.5c-0.1-0.2,0-0.5,0.2-0.6s0.5,0,0.6,0.2l2.2,4.5
				c0.1,0.2,0,0.5-0.2,0.6C23.8,54.9,23.8,54.9,23.7,54.9z"/>
			<path style="fill:#E8E7EC;" d="M19.2,45.9c-0.2,0-0.3-0.1-0.4-0.2l-1.1-2.2c-0.1-0.2,0-0.4,0.2-0.6c0.2-0.1,0.5,0,0.6,0.2
				l1.1,2.2c0.1,0.2,0,0.4-0.2,0.6C19.4,45.9,19.3,45.9,19.2,45.9z"/>
			<path style="fill:#A17FFD;" d="M127.6,22.7c-0.2,0-0.3-0.1-0.4-0.2l-2.7-6.1c-0.1-0.2,0-0.5,0.2-0.5c0.2-0.1,0.5,0,0.5,0.2
				l2.7,6.1C128,22.4,127.9,22.7,127.6,22.7L127.6,22.7z"/>
			<path style="fill:#A17FFD;" d="M138.7,22.1L138.7,22.1c-0.3-0.1-0.5-0.3-0.4-0.5l1.3-6.5c0-0.2,0.3-0.4,0.5-0.3
				c0.2,0,0.4,0.3,0.3,0.5l-1.3,6.5C139.1,22,138.9,22.1,138.7,22.1z"/>
			<path style="fill:#A17FFD;" d="M148.4,25.9c-0.1,0-0.2,0-0.2-0.1c-0.2-0.1-0.2-0.4-0.1-0.6l3.8-5.5c0.1-0.2,0.4-0.2,0.6-0.1
				c0.2,0.1,0.2,0.4,0.1,0.6l-3.8,5.5C148.6,25.9,148.5,25.9,148.4,25.9z"/>
			<path style="fill:#A17FFD;" d="M154.8,32.7c-0.2,0-0.3-0.1-0.4-0.3c-0.1-0.2,0-0.5,0.2-0.5l6.2-2.6c0.2-0.1,0.5,0,0.5,0.2
				c0.1,0.2,0,0.5-0.2,0.5l-6.2,2.6C154.9,32.7,154.8,32.7,154.8,32.7z"/>
			<path style="fill:#FFD3CF;" d="M114.1,47.7l4.1-6.9c0.7-1.3,0.2-3-1.1-3.7L117,37c-1.3-0.7-3-0.2-3.7,1.1l-4.1,6.9
				c-0.7,1.3-0.2,3,1.1,3.7l0.1,0.1C111.7,49.5,113.4,49,114.1,47.7z"/>
			<path style="fill:#FFD3CF;" d="M110.4,43.1c-0.2-0.2-1.8-1.9-4-1.7s-4.2,2.3-4.4,5.1c-0.1,0.6-0.2,1.4-0.1,2.4
				c0.2,1.6,0.9,2.7,1.3,3.3c1.5,1.4,2.7,1.7,3.6,1.7c0,0,1.9-0.1,7.2-6.1"/>
			<path style="fill:#FFD3CF;" d="M87.4,39.1l4.1-6.9c0.7-1.3,0.2-3-1.1-3.7l-0.1-0.1c-1.3-0.7-3-0.2-3.7,1.1l-4.1,6.9
				c-0.7,1.3-0.2,3,1.1,3.7l0.1,0.1C85,40.9,86.7,40.4,87.4,39.1z"/>
			<path style="fill:#FFD3CF;" d="M83.8,34.6c-0.2-0.2-1.8-1.9-4-1.7s-4.2,2.3-4.4,5.1c-0.1,0.6-0.2,1.4-0.1,2.4
				c0.2,1.6,0.9,2.7,1.3,3.3c1.5,1.4,2.7,1.7,3.6,1.7c0,0,1.9-0.1,7.2-6.1"/>
			<path style="fill:#FFD3CF;" d="M74.8,48.1l-11.5-2.8c-2.7-0.6-4.3-3.3-3.7-6l3.2-13.1c0.6-2.6,3.3-4.3,6-3.6l11.5,2.8
				c2.7,0.6,4.3,3.3,3.7,6l-3.2,13.1C80.1,47.1,77.4,48.7,74.8,48.1z"/>
			<path style="fill:#8043F9;" d="M102.8,83.6l-4.4-21.9l18.5-3.7c3.4-0.7,6.6,1.5,7.3,4.9l1.9,9.7c0.7,3.4-1.5,6.6-4.9,7.3
				L102.8,83.6z"/>
			<path style="fill:#1B0E41;" d="M137.1,47.1l-5.7-5.2l-4.5-3.3l-3.4-0.9c-0.3-0.6-1.5-3.1-0.6-6.2c0.8-2.8,2.9-4.3,3.4-4.7
				c1.1-0.6,2.8-1.3,5.2-1.4c4.5-0.2,7.7,2.3,8.6,3c0.7,0,3.5-0.1,5.9,1.9c1.3,1.1,2,2.4,2.3,3.2c2.4,0.6,4.2,2.5,4.4,4.6
				c0.2,1.9-0.9,3.3-1.2,3.7c3.3,1.5,5.3,4.6,5.2,7.9c-0.1,2.9-2,4.9-2.6,5.4c1.8,1.6,3,3.4,3.2,5.5c0.3,2.9-1.8,4-1.5,7.3
				c0.2,2.9,2,3.5,2.4,6.2c0.3,1.9,0.1,4.7-2.9,8.5c-2.2,2.4-3.8,2.8-4.9,2.7c-2-0.2-3-2.1-4.8-1.7c-1.4,0.3-1.5,1.7-2.7,1.8
				c-1.2,0.1-1.6-1-3.4-2.1c-2.8-1.5-4.4-0.3-5.4-1.6c-1.2-1.5-0.3-4.7-0.3-4.7c-1.9-0.1-3.6-1.4-3.9-3.1c-0.4-2.1,1.2-3.6,1.2-3.7
				c-0.5-1-1.1-2.3-1.5-4c0,0-0.6-2.3-0.7-4.5C128.6,58.3,131.5,52.6,137.1,47.1z"/>
			<path style="fill:#6838CC;" d="M148.5,70.9L147,81.3l-4.4,31.9l-45-2.7l3.9-19.9l4.2-21.8l0.8-4.2c1-3.9,4.7-6.4,8.7-5.9
				l20.3,2.4l0,0l6,0.7C145.9,62.3,149.1,66.4,148.5,70.9z"/>
			<path style="fill:#FFD3CF;" d="M132.9,44.3c-2.3-0.6-4.7,0.8-5.3,3.1l-3,11.5c-0.6,2.3,0.8,4.7,3.1,5.3s4.7-0.8,5.3-3.1l3-11.5
				C136.6,47.3,135.2,44.9,132.9,44.3z"/>
			<path style="fill:#FFD3CF;" d="M137.3,42.4c0,0,2.1-1.9,3.9,1c1.8,2.9-2.7,5-2.7,5c-0.1,0-0.8,0.3-1.4-0.1
				c-0.5-0.3-0.7-0.7-0.7-0.8C136.6,45.8,137,44.1,137.3,42.4z"/>
			<path style="fill:#D6B1AE;" d="M126,53.7l-0.7,2.8c0.8,0.3,2.4,0.8,4.4,0.6c2.4-0.2,4.1-1.3,4.8-1.9c0.6-2.1,1.1-4.2,1.7-6.4
				L126,53.7z"/>
			<path style="fill:#FFD3CF;" d="M125.6,54.4c-4.7-1.2-7.5-6-6.3-10.7l1.2-4.7c1.2-4.7,6-7.5,10.7-6.3c4.7,1.2,7.5,6,6.3,10.7
				l-1.2,4.7C135.1,52.8,130.3,55.7,125.6,54.4z"/>
			<circle style="fill:#1B0E41;" cx="129.3" cy="41.6" r="1"/>
			<circle style="fill:#1B0E41;" cx="124.8" cy="40.4" r="1"/>
			<path style="fill:#1B0E41;" d="M131.2,40.5c-0.1,0-0.2,0-0.3-0.1c-0.3-0.3-0.8-0.5-1.2-0.7c-0.4-0.1-0.8-0.1-1.2-0.1
				c-0.2,0-0.4-0.1-0.5-0.4c0-0.2,0.1-0.4,0.4-0.5c0.5,0,1,0,1.5,0.1c0.6,0.2,1.1,0.5,1.5,0.9c0.2,0.2,0.2,0.4,0,0.6
				C131.4,40.4,131.3,40.5,131.2,40.5z"/>
			<path style="fill:#1B0E41;" d="M126.7,39.2c-0.1,0-0.2,0-0.2-0.1c-0.4-0.3-0.8-0.5-1.3-0.5c-0.4-0.1-0.8-0.1-1.2,0
				c-0.2,0-0.4-0.1-0.5-0.3c0-0.2,0.1-0.4,0.3-0.5c0.5-0.1,1-0.1,1.5,0c0.6,0.1,1.1,0.3,1.6,0.7c0.2,0.1,0.2,0.4,0.1,0.6
				C127,39.1,126.9,39.2,126.7,39.2z"/>
			<path style="fill:#FFFFFF;" d="M124.9,48.1c1.4,0.4,2.8-0.5,3.2-1.8l-5-1.3C122.7,46.3,123.5,47.7,124.9,48.1z"/>
			<path style="fill:#1B0E41;" d="M128.5,32c0,0,1.5,7.9,8.8,10.4s4.9-5.3,4.9-5.3s-2.7-4.9-3.7-5.4c-1-0.5-5.7-1-6.3-1.6
				C131.6,29.5,128.5,32,128.5,32z"/>
			<path style="fill:#C9C9C9;" d="M120.8,41l-75.1,2.7L49,14.9l72.3,21.8c0.9,0.5,1.4,1.5,1.3,2.4C122.4,40,121.7,40.7,120.8,41z"/>
			<path style="fill:#E8E7EC;" d="M55.1,30.2c-0.9,7.9-5.2,14-9.5,13.5s-7-7.3-6.1-15.3c0.9-7.9,5.2-14,9.5-13.5
				C53.3,15.4,56,22.2,55.1,30.2z"/>
			<path style="fill:#FFD3CF;" d="M111.8,43.8l4.9-13.3c0.6-1.5-0.2-3.2-1.8-3.8l-0.2-0.1c-1.5-0.6-3.2,0.2-3.8,1.7L106,41.6
				c-0.6,1.5,0.2,3.2,1.8,3.8l0.2,0.1C109.5,46.1,111.2,45.3,111.8,43.8z"/>
			<path style="fill:#FFD3CF;" d="M106.1,42.9l4.9-13.3c0.6-1.5-0.2-3.2-1.8-3.8l-0.2-0.1c-1.5-0.6-3.2,0.2-3.8,1.7l-4.9,13.3
				c-0.6,1.5,0.2,3.2,1.8,3.8l0.2,0.1C103.9,45.2,105.6,44.4,106.1,42.9z"/>
			<path style="fill:#FFD3CF;" d="M96.3,40.7l4.9-13.3c0.6-1.5-0.2-3.2-1.8-3.8l-0.2-0.1c-1.5-0.6-3.2,0.2-3.8,1.7l-4.9,13.3
				c-0.6,1.5,0.2,3.2,1.8,3.8l0.2,0.1C94,43,95.7,42.2,96.3,40.7z"/>
			<path style="fill:#FFD3CF;" d="M100.9,41.7l4.9-13.3c0.6-1.5-0.2-3.2-1.8-3.8l-0.2-0.1c-1.5-0.6-3.2,0.2-3.8,1.7l-4.9,13.3
				c-0.6,1.5,0.2,3.2,1.8,3.8l0.2,0.1C98.7,44,100.4,43.2,100.9,41.7z"/>
			<path style="fill:#FFD3CF;" d="M102.6,54.4l-11.1-4.1c-2.6-1-3.9-3.8-2.9-6.4l4.7-12.6c1-2.6,3.8-3.9,6.4-2.9l11.1,4.1
				c2.6,1,3.9,3.8,2.9,6.4L109,51.5C108,54,105.1,55.3,102.6,54.4z"/>
			<path style="fill:#FFD3CF;" d="M84.3,28.8l1.6-6.1c0.4-1.6-0.6-3.1-2.2-3.5h-0.2c-1.6-0.4-3.2,0.6-3.5,2.2l-1.6,6.1
				C78,29,79,30.6,80.6,31h0.2C82.3,31.4,83.9,30.4,84.3,28.8z"/>
			<path style="fill:#FFD3CF;" d="M78.5,28.2l1.6-6.1c0.4-1.6-0.6-3.1-2.2-3.5h-0.2c-1.6-0.4-3.2,0.6-3.5,2.2l-1.6,6.1
				c-0.4,1.6,0.6,3.1,2.2,3.5H75C76.6,30.7,78.2,29.7,78.5,28.2z"/>
			<path style="fill:#FFD3CF;" d="M73.6,28.2l1.6-6.1c0.4-1.6-0.6-3.1-2.2-3.5h-0.2c-1.6-0.4-3.2,0.6-3.5,2.2l-1.6,6.1
				c-0.4,1.6,0.6,3.1,2.2,3.5h0.2C71.6,30.7,73.2,29.7,73.6,28.2z"/>
			<path style="fill:#FFD3CF;" d="M68.5,27.7l1.6-6.1c0.4-1.6-0.6-3.1-2.2-3.5h-0.2c-1.6-0.4-3.2,0.6-3.5,2.2l-1.6,6.1
				c-0.4,1.6,0.6,3.1,2.2,3.5H65C66.5,30.3,68.1,29.3,68.5,27.7z"/>
			<path style="fill:#F2A098;" d="M72.7,49.3c-0.7,0-1.3-0.2-1.8-0.5c-0.2-0.1-0.4-0.3-0.5-0.5c-0.7,0.4-1.5,0.5-2.2,0.4
				c-1.5-0.3-2.7-1.6-3.4-2.7c-0.1-0.2-0.1-0.4,0.1-0.6c0.2-0.1,0.4-0.1,0.6,0.1c0.9,1.3,1.9,2.1,2.9,2.3c0.6,0.1,1.2,0,1.8-0.4
				c0-0.1,0-0.2,0-0.3c0-0.5,0.2-1,0.5-1.3c0.1-0.1,0.3-0.2,0.4-0.2c0.6-0.1,0.8,0.2,0.9,0.4c0.2,0.5-0.4,1.3-0.8,1.6
				c0.1,0.1,0.2,0.2,0.3,0.3c0.5,0.3,1.1,0.4,1.9,0.3c0.7-0.1,1.3-0.5,1.5-0.9c0.1-0.2,0.4-0.2,0.6-0.1c0.2,0.1,0.2,0.4,0.1,0.6
				c-0.4,0.6-1.2,1.1-2.1,1.3C73.2,49.3,73,49.3,72.7,49.3z"/>
			<path style="fill:#FFD3CF;" d="M86.3,88.6c-2.9,0-5.7-1.2-7.6-3.5c-2.5-2.8-3.2-6.8-1.8-10.3L91,38l18.9,7.2l-7.3,19l21.8-5.1
				l4.7,19.7l-40.5,9.6C87.8,88.5,87,88.6,86.3,88.6z"/>
			<path style="fill:#8043F9;" d="M125.9,80.4l-4.4-21.9l18.5-3.7c3.4-0.7,6.6,1.5,7.3,4.9l1.9,9.7c0.7,3.4-1.5,6.6-4.9,7.3
				L125.9,80.4z"/>
			<path style="fill:#F2A098;" d="M100.7,69.7L100.7,69.7c-0.3-0.1-0.4-0.3-0.3-0.5l4.1-10.7c0.1-0.2,0.3-0.3,0.5-0.2
				s0.3,0.3,0.2,0.5L101,69.5C101,69.6,100.8,69.7,100.7,69.7z"/>
			<path style="fill:#F2A098;" d="M104.3,32.6L104.3,32.6c-0.3-0.1-0.4-0.3-0.4-0.5l1.9-5.5c0.1-0.2,0.3-0.3,0.5-0.3
				c0.2,0.1,0.3,0.3,0.3,0.5l-1.9,5.5C104.7,32.5,104.5,32.6,104.3,32.6z"/>
			<path style="fill:#F2A098;" d="M109.2,34.2L109.2,34.2c-0.3-0.1-0.4-0.3-0.4-0.5l1.9-5.5c0.1-0.2,0.3-0.3,0.5-0.3
				c0.2,0.1,0.3,0.3,0.3,0.5l-1.9,5.5C109.5,34.1,109.4,34.2,109.2,34.2z"/>
			<path style="fill:#F2A098;" d="M99.3,31.2L99.3,31.2c-0.3-0.1-0.4-0.3-0.4-0.5l1.9-5.5c0.1-0.2,0.3-0.3,0.5-0.3
				c0.2,0.1,0.3,0.3,0.3,0.5l-1.9,5.5C99.7,31.1,99.5,31.2,99.3,31.2z"/>
			<path style="fill:#F2A098;" d="M69,26L69,26c-0.3-0.1-0.5-0.3-0.4-0.5l1.2-6c0-0.2,0.3-0.4,0.5-0.3c0.2,0,0.4,0.3,0.3,0.5l-1.2,6
				C69.4,25.9,69.2,26,69,26z"/>
			<path style="fill:#F2A098;" d="M73.7,26.1C73.6,26.1,73.6,26.1,73.7,26.1c-0.3-0.1-0.5-0.3-0.4-0.5l1.2-6c0-0.2,0.3-0.4,0.5-0.3
				c0.2,0,0.4,0.3,0.3,0.5l-1.2,6C74,26,73.9,26.1,73.7,26.1z"/>
			<path style="fill:#F2A098;" d="M78.9,26.7C78.9,26.7,78.8,26.7,78.9,26.7c-0.3-0.1-0.5-0.3-0.4-0.5l1.2-6c0-0.2,0.3-0.4,0.5-0.3
				c0.2,0,0.4,0.3,0.3,0.5l-1.2,6C79.3,26.6,79.1,26.7,78.9,26.7z"/>
			<path style="fill-rule:evenodd;clip-rule:evenodd;fill:#FFBC00;" d="M22.4,20.1c2.2,2.2,2.2,5.8,0,8c-1.9,1.9-4.8,2.1-6.9,0.8
				l-3.2,3.2l1.2,1.2L11.7,35l-1.2-1.2l-1.8,1.8l1.2,1.2l-1.8,1.7l-1.2-1.2l-1.1,1.1l-1.9-1.9l9.7-9.7c-1.3-2.2-1-5,0.8-6.9
				C16.6,17.9,20.2,17.9,22.4,20.1z M18.6,21.9c-0.6,0.6-0.6,1.5,0,2.1s1.5,0.6,2.1,0s0.6-1.5,0-2.1S19.1,21.3,18.6,21.9z"/>
			<path style="fill:#FFBC00;" d="M15.4,28.9l-3.2,3.2l1.2,1.2L11.6,35l-1.2-1.2l-1.8,1.8l1.2,1.2L8,38.5l-1.2-1.2l-1.1,1.1
				l-0.9-0.9l13.8-13.7c0.6,0.6,1.5,0.6,2.1,0s0.6-1.5,0-2.1l1.7-1.7c2.2,2.2,2.2,5.8,0,8C20.5,29.9,17.6,30.2,15.4,28.9z"/>
			<path style="fill:#FFBC00;" d="M31.3,70.9l-3,10.7l0,0l0,0l4.1,5.9c0.1,0.2,0.4,0.3,0.6,0.4s0.5,0,0.7-0.1l4.7-3.3l-3.3-4.7
				l3.2-2.2l3.3,4.7l4.7-3.3c0.2-0.1,0.3-0.4,0.4-0.6c0.1-0.3,0-0.5-0.1-0.7l-4.1-5.9c0,0,0-0.1-0.1-0.1L31.3,70.9z"/>
			<path style="fill:#FFBC00;" d="M44.2,68.7L40,68.3l-3.5-5c-0.1-0.1-0.2-0.2-0.3-0.2s-0.2,0-0.4,0.1l-2.4,1.6
				c-0.1,0.1-0.2,0.2-0.2,0.3c0,0.1,0,0.2,0.1,0.4l1.7,2.4l-4.7-0.4c-0.4,0-0.8,0.1-1.2,0.3c-0.4,0.2-0.6,0.6-0.7,1l-3.8,13.4
				c0,0.1,0,0.2,0,0.4c0.1,0.1,0.2,0.2,0.3,0.2l1.4,0.4c0.1,0,0.2,0,0.4,0c0.1-0.1,0.2-0.2,0.2-0.3L30.5,70L44,71.1
				c0.1,0,0.2,0,0.3-0.1l0,0c0.1-0.1,0.1-0.2,0.2-0.3l0.1-1.4c0-0.1,0-0.2-0.1-0.3C44.4,68.7,44.3,68.7,44.2,68.7z"/>
		</g>
	</g>
</g>
</svg>
