<?xml version="1.0" encoding="utf-8"?>
<!-- Generator: Adobe Illustrator 26.1.0, SVG Export Plug-In . SVG Version: 6.00 Build 0)  -->
<svg version="1.1" id="Layer_1" xmlns="http://www.w3.org/2000/svg" xmlns:xlink="http://www.w3.org/1999/xlink" x="0px" y="0px"
	 viewBox="0 0 152 97" style="enable-background:new 0 0 152 97;" xml:space="preserve">
<g>
	<g>
		<defs>
			<path id="SVGID_1_" d="M0.7,0H152v85c0,6.6-5.4,12-12,12H0.7V0z"/>
		</defs>
		<clipPath id="SVGID_00000115508559174515542690000013754073502018711443_">
			<use xlink:href="#SVGID_1_"  style="overflow:visible;"/>
		</clipPath>
		<defs>
			<filter id="Adobe_OpacityMaskFilter" filterUnits="userSpaceOnUse" x="1" y="2" width="230" height="221">
				<feColorMatrix  type="matrix" values="1 0 0 0 0  0 1 0 0 0  0 0 1 0 0  0 0 0 1 0"/>
			</filter>
		</defs>
		
			<mask maskUnits="userSpaceOnUse" x="1" y="2" width="230" height="221" id="mask0_401_2140_00000165230694500095941680000000365760670896749738_">
			<g style="filter:url(#Adobe_OpacityMaskFilter);">
				<defs>
					<path id="SVGID_00000138554380127444478260000008542553489096296873_" d="M0.7,0H152v85c0,6.6-5.4,12-12,12H0.7V0z"/>
				</defs>
				
					<clipPath id="SVGID_00000083785737524211680130000005457471008762623405_" style="clip-path:url(#SVGID_00000115508559174515542690000013754073502018711443_);">
					<use xlink:href="#SVGID_00000138554380127444478260000008542553489096296873_"  style="overflow:visible;"/>
				</clipPath>
				<path style="clip-path:url(#SVGID_00000083785737524211680130000005457471008762623405_);fill:#FFFFFF;" d="M-163-1h303
					c6.6,0,12,5.4,12,12v74c0,6.6-5.4,12-12,12h-303c-6.6,0-12-5.4-12-12V11C-175,4.4-169.6-1-163-1z"/>
			</g>
		</mask>
		
			<g style="clip-path:url(#SVGID_00000115508559174515542690000013754073502018711443_);mask:url(#mask0_401_2140_00000165230694500095941680000000365760670896749738_);">
			<circle style="fill:#8A52FA;" cx="127.5" cy="119.5" r="103.5"/>
			<path style="fill:#FFD3CF;" d="M89.7,87.5v34c0,4.6-2.6,8.9-6.7,11c-1.8,0.9-3.7,1.3-5.6,1.3c-2.6,0-5.1-0.8-7.2-2.3l-48.3-35
				l14.5-20L65,97.2v-9.8L89.7,87.5z"/>
			<path style="fill:#F2A098;" d="M86.4,87.9l-0.1,19.8L65,94.9v-7.4h18.3L86.4,87.9z"/>
			<path style="fill:#FFD3CF;" d="M44.3,78.9c0,0,0.1-2.5-7.1-10.2l-6.4,4.1c-0.3,0.2-2.8,2.1-2.8,5c0,3,2.5,5.8,6.1,6.4
				c0.7,0.2,1.8,0.5,3.1,0.4c0,0,2.5,0.8,2.9,0.5s5.3-1.5,5.3-1.5L44.3,78.9z"/>
			<path style="fill:#A17FFD;" d="M60.8,81.9c0-3.6,0.6-15.3,14.9-26.1c8.5-6.4,18.1-7,26.7-7.6c8.4-0.5,17.5-0.9,25.6,2
				c11.3,4.1,17.3,31.9,16.2,32c0,0-17.9,1.9-24,2.4l5.6,39.7H82.6V82.4C75.4,82.2,68.1,82.1,60.8,81.9z"/>
			<path style="fill:#FFD3CF;" d="M116.6,21.5c0,0,4.5-0.7,4.4,4.8s-8,4.5-8,4.5l-2.1-3.1L116.6,21.5z"/>
			<path style="fill:#FFD3CF;" d="M115.4,19.1l-3.7,15.3c0,0.1,0,0.1,0,0.2c0,0.1,0,0.1,0,0.2c0,0.4,0,0.8,0,1.2
				c0,1.6,0,3.2-0.1,4.9c0,3.5-0.1,7.1-0.1,10.6c-0.9,2.7-3.4,4.5-6.2,4.4c-3-0.1-5.5-2.4-6-5.5l0.3-3.8l0.4-5.9
				c-0.6-0.3-1.3-0.7-2.2-1.2h-0.1c0,0,0,0-0.1,0c-8.6-4.5,0-22,0-22C110.1,4,115.4,19.1,115.4,19.1z"/>
			<path style="fill:#1B0E41;" d="M108.1,8.4c0,0-4.3-10-11.3-5s-3.4,13.5,0.9,14s8.9-1.7,8.9-1.7c0.3,0.3,1.3,1.4,3.1,1.6
				c1.5,0.2,2.7-0.4,3.1-0.6c-0.2,0.3-0.7,1-0.7,2.1c0,1.8,1.4,2.9,1.6,3.1c-0.4,1.5-0.7,3-1.1,4.5h1.5l2.7-4.8c0,0,5.7-3,2.6-10.8
				c-2.2-5.5-6.4-2.1-6.4-2.1S112.6,4.4,108.1,8.4z"/>
			<ellipse style="fill:#1B0E41;" cx="104.5" cy="22.6" rx="1.2" ry="1.2"/>
			<ellipse style="fill:#1B0E41;" cx="98.9" cy="21.5" rx="1.2" ry="1.2"/>
			<path style="fill:#1B0E41;" d="M106.3,21.5l-2.7-1.3c-0.3-0.1-0.4-0.5-0.3-0.8s0.5-0.4,0.8-0.3l2.7,1.3c0.3,0.1,0.4,0.5,0.3,0.8
				C106.9,21.5,106.6,21.6,106.3,21.5z"/>
			<path style="fill:#1B0E41;" d="M100.8,19.6l-3,0.3c-0.3,0-0.6-0.2-0.6-0.5s0.2-0.6,0.5-0.6l3-0.3c0.3,0,0.6,0.2,0.6,0.5
				C101.4,19.3,101.1,19.6,100.8,19.6z"/>
			<path style="fill:#F2A098;" d="M111.7,34.4c0,0.1,0,0.1,0,0.2c0,0.9,0,0.6-0.1,4.5c-2,2.2-4,3.3-5.2,3.8
				c-2.1,0.9-3.3,0.9-3.7,0.8c-1.3-0.1-2.3-0.6-2.9-0.9c0-0.7,0.1-1.4,0.1-2.1c1,0.3,2.3,0.4,4.1-0.1
				C108.4,39.2,111.5,35,111.7,34.4z"/>
			<path style="fill:#FFFFFF;" d="M98.4,32.9c1.3,0.2,2.5-0.7,2.7-1.9l-4.6-0.7C96.3,31.5,97.2,32.7,98.4,32.9z"/>
			<path style="fill:#FFD3CF;" d="M29.5,98.6L15,97.1c-3-0.3-5.1-3-4.8-5.9l1.5-14.5c0.3-3,3-5.1,5.9-4.8l14.5,1.5
				c3,0.3,5.1,3,4.8,5.9l-1.5,14.5C35.1,96.8,32.5,98.9,29.5,98.6z"/>
			<path style="fill:#1B0E41;" d="M16.9,101.7c-2.7,0.4-5.3-1.5-5.7-4.3L6.1,62.1c-0.4-2.7,1.5-5.3,4.3-5.7l14.2-2
				c2.7-0.4,5.3,1.5,5.7,4.3L35.4,94c0.4,2.7-1.5,5.3-4.3,5.7L16.9,101.7z"/>
			<path style="fill:#FFFFFF;" d="M24.9,56l-14.2,2c-1.8,0.3-3.1,2-2.9,3.8l5.1,35.4c0.3,1.8,2,3.1,3.8,2.9l14.2-2
				c1.8-0.3,3.1-2,2.9-3.8l-5.1-35.4C28.4,57,26.7,55.7,24.9,56z"/>
			<path style="fill-rule:evenodd;clip-rule:evenodd;fill:#1B0E41;" d="M12.6,97.3c0.3,1.8,1.8,3.1,3.6,3.1c0.1,0,0.2,0,0.3,0
				c0.1,0,0.1,0,0.2,0l14.2-2c1.9-0.3,3.3-2.1,3.1-4.1l-5.1-35.4c-0.1-0.9-0.6-1.8-1.4-2.4c-0.8-0.6-1.7-0.8-2.7-0.7l-14.2,2
				c-1.9,0.3-3.3,2.1-3.1,4.1L12.6,97.3z M24.9,56.2c0.1,0,0.3,0,0.4,0c0.7,0,1.3,0.2,1.9,0.7c0.7,0.5,1.1,1.2,1.2,2.1l5.1,35.4
				c0.2,1.8-1,3.3-2.7,3.5l-14.2,2c-1.8,0.2-3.3-1-3.6-2.7L8,61.8c-0.2-1.8,1-3.3,2.7-3.5L24.9,56.2z"/>
			<path style="fill:#1B0E41;" d="M23.2,55.2l-11.1,1.6c-0.9,0.1-1.6,1-1.4,1.9c0.1,0.9,1,1.6,1.9,1.4l11.1-1.6
				c0.9-0.1,1.6-1,1.4-1.9C24.9,55.6,24.1,55,23.2,55.2z"/>
			<path style="fill:#FFD3CF;" d="M14.7,70.5l-9-2.7c-1.7-0.4-3.5,0.6-3.9,2.3v0.2c-0.4,1.7,0.6,3.5,2.3,3.9l9,2.7
				c1.7,0.4,3.5-0.6,3.9-2.3v-0.2C17.4,72.7,16.4,71,14.7,70.5z"/>
			<path style="fill:#FFD3CF;" d="M14.7,77.1l-9-2.7C4,73.9,2.2,75,1.8,76.7v0.2c-0.4,1.7,0.6,3.5,2.3,3.9l9,2.7
				c1.7,0.4,3.5-0.6,3.9-2.3V81C17.4,79.3,16.4,77.6,14.7,77.1z"/>
			<path style="fill:#FFD3CF;" d="M14,83.4l-9-2.7c-1.7-0.4-3.5,0.6-3.9,2.3v0.2c-0.4,1.7,0.6,3.5,2.3,3.9l9,2.7
				c1.7,0.4,3.5-0.6,3.9-2.3v-0.2C16.7,85.6,15.7,83.9,14,83.4z"/>
			<path style="fill:#FFD3CF;" d="M14.7,89.5l-9-2.7c-1.7-0.4-3.5,0.6-3.9,2.3v0.2c-0.4,1.7,0.6,3.5,2.3,3.9l9,2.7
				c1.7,0.4,3.5-0.6,3.9-2.3v-0.2C17.4,91.7,16.4,90,14.7,89.5z"/>
			<path style="fill:#FFD3CF;" d="M74.8,70.1c-0.3,0.2-2.9,2-3,4.9s2.2,5.9,5.8,6.6c0.7,0.3,1.8,0.6,3.1,0.6c2.1,0,3.7-0.7,4.5-1.1
				c2.1-1.7,2.7-3.2,2.8-4.4c0,0,0.3-2.5-6.6-10.5"/>
			<path style="fill:#FFD3CF;" d="M37.2,68.8l-8.5-6.2c-1.6-1.1-3.9-0.7-5,1l-0.1,0.2c-1.1,1.6-0.7,3.9,1,5l8.5,6.2
				c1.6,1.1,3.9,0.7,5-1l0.1-0.2C39.3,72.1,38.9,69.8,37.2,68.8z"/>
			<path style="fill:#8F7676;" d="M73.7,67.7c-0.1,0-0.1,0-0.2,0L67.1,64c-0.2-0.1-0.3-0.4-0.2-0.6c0.1-0.2,0.4-0.3,0.6-0.2l6.4,3.7
				c0.2,0.1,0.3,0.4,0.2,0.6C74,67.6,73.8,67.7,73.7,67.7z"/>
			<path style="fill-rule:evenodd;clip-rule:evenodd;fill:#F2A098;" d="M34.5,101.3c0,0.2,0.2,0.4,0.4,0.4c0,0,0,0,0-0.1
				c1.8-0.3,4.3-1,5.6-2.8c0.7-0.9,0.9-2,0.9-3.2c0.4,0,0.8-0.1,1.1-0.3c0.9-0.5,1.7-1.6,2.1-2.9c0.4-1.3,0.2-2.5-0.3-3.4
				c-0.1-0.2-0.4-0.3-0.6-0.2c-0.2,0.1-0.3,0.4-0.2,0.6c0.4,0.7,0.5,1.7,0.2,2.7s-0.9,1.9-1.6,2.3c-0.3,0.1-0.5,0.2-0.8,0.2
				c-0.2-0.7-0.8-2.1-1.5-2.2c-0.3,0-0.6,0.1-0.9,0.8c0,0.2-0.1,0.4,0,0.7c0.1,0.6,0.5,1.1,1.2,1.4c0.1,0.1,0.3,0.1,0.5,0.2
				c0.1,1.1-0.1,2-0.7,2.8c-0.9,1.2-2.7,2.1-5,2.4C34.7,100.8,34.5,101.1,34.5,101.3z M39.8,93.6L39.8,93.6c0.2,0.2,0.4,0.5,0.5,0.9
				c-0.2-0.1-0.4-0.3-0.5-0.7l0,0V93.6C39.7,93.6,39.8,93.6,39.8,93.6z"/>
			<path style="fill:#FFD3CF;" d="M74.3,96.8l-12.4-7.5c-2.5-1.5-3.4-4.9-1.8-7.4l7.5-12.4c1.5-2.5,4.9-3.4,7.4-1.8l12.4,7.5
				c2.5,1.5,3.4,4.9,1.8,7.4L81.7,95C80.1,97.5,76.8,98.3,74.3,96.8z"/>
			<path style="fill:#FFD3CF;" d="M76.1,68.2L56,56.4c-1.5-0.9-3.5-0.4-4.4,1.1l-0.1,0.2c-0.9,1.5-0.4,3.5,1.1,4.4L72.8,74
				c1.5,0.9,3.5,0.4,4.4-1.1l0.1-0.2C78.1,71.2,77.6,69.2,76.1,68.2z"/>
			<path style="fill:#FFD3CF;" d="M75.1,74.6l-13.2-8c-1.5-0.9-3.5-0.4-4.4,1.1l-0.1,0.2c-0.9,1.5-0.4,3.5,1.1,4.4l13.2,8
				c1.5,0.9,3.5,0.4,4.4-1.1l0.1-0.2C77.1,77.5,76.6,75.5,75.1,74.6z"/>
			<path style="fill:#FFD3CF;" d="M73.6,81.3l-13.2-8c-1.5-0.9-3.5-0.4-4.4,1.1l0,0.2c-0.9,1.4-0.5,3.4,1,4.3l13.2,8
				c1.5,0.9,3.5,0.4,4.4-1.1l0.1-0.2C75.6,84.2,75.1,82.2,73.6,81.3z"/>
			<path style="fill:#FFD3CF;" d="M72.1,88L59,79.9c-1.5-0.9-3.5-0.4-4.4,1V81c-0.9,1.5-0.5,3.5,1,4.4l13.1,8.1
				c1.5,0.9,3.5,0.4,4.4-1l0.1-0.1C74.1,90.9,73.6,88.9,72.1,88z"/>
			<path style="fill:#FFD3CF;" d="M81.4,66.2l-8.3-6.6c-1.6-1.2-3.9-0.8-5,0.8L68,60.5c-1.2,1.6-0.8,3.9,0.8,5l8.3,6.6
				c1.6,1.2,3.9,0.8,5-0.8l0.1-0.2C83.3,69.7,83,67.4,81.4,66.2z"/>
			<path style="fill:#F2A098;" d="M64.8,68.9c-0.1,0-0.1,0-0.2,0l-4.4-2.6c-0.2-0.1-0.3-0.4-0.2-0.6s0.4-0.3,0.6-0.2l4.4,2.6
				c0.2,0.1,0.3,0.4,0.2,0.6C65.1,68.9,64.9,68.9,64.8,68.9z"/>
			<path style="fill:#F2A098;" d="M72.2,65.8c-0.1,0-0.2,0-0.2,0l-4.4-2.7c-0.2-0.1-0.3-0.4-0.1-0.6c0.1-0.2,0.4-0.3,0.6-0.1
				l4.4,2.7c0.2,0.1,0.3,0.4,0.1,0.6C72.5,65.8,72.4,65.8,72.2,65.8z"/>
			<path style="fill:#F2A098;" d="M9.4,75.8H9.3l-4.9-1.6c-0.2-0.1-0.4-0.3-0.3-0.6c0.1-0.2,0.3-0.4,0.6-0.3L9.6,75
				c0.2,0.1,0.4,0.3,0.3,0.6C9.7,75.7,9.6,75.8,9.4,75.8z"/>
			<path style="fill:#F2A098;" d="M8.7,82.2H8.6l-4.9-1.6c-0.2-0.1-0.4-0.3-0.3-0.6c0.1-0.3,0.3-0.4,0.6-0.3l4.9,1.6
				c0.2,0.1,0.4,0.3,0.3,0.6C9.1,82,8.9,82.2,8.7,82.2z"/>
			<path style="fill:#F2A098;" d="M8.3,88.6H8.2L3.3,87C3,86.9,2.9,86.7,3,86.4c0.1-0.2,0.3-0.4,0.6-0.3l4.9,1.6
				c0.2,0.1,0.4,0.3,0.3,0.6C8.7,88.4,8.5,88.6,8.3,88.6z"/>
			<path style="fill:#F2A098;" d="M62.8,74.6c-0.1,0-0.1,0-0.2,0L58.2,72c-0.2-0.1-0.3-0.4-0.2-0.6s0.4-0.3,0.6-0.2l4.4,2.6
				c0.2,0.1,0.3,0.4,0.2,0.6C63.2,74.5,63,74.6,62.8,74.6z"/>
			<path style="fill:#F2A098;" d="M62.3,81.9c-0.1,0-0.1,0-0.2,0l-4.4-2.6c-0.2-0.1-0.3-0.4-0.2-0.6s0.4-0.3,0.6-0.2l4.4,2.6
				c0.2,0.1,0.3,0.4,0.2,0.6C62.6,81.8,62.4,81.9,62.3,81.9z"/>
			<path style="fill:#FFD3CF;" d="M144.3,82.2v34c0,4.4-2.4,8.5-6.2,10.7c-1.9,1.1-4,1.6-6.1,1.6c-2.2,0-4.4-0.6-6.3-1.8L72.9,95.5
				l12.6-21.3l34.1,20.2V82.2H144.3z"/>
			<rect x="119.6" y="82.2" style="fill:#F2A098;" width="24.7" height="3"/>
			<path style="fill:#F2A098;" d="M75.3,105.1c-0.1,0-0.2,0-0.3-0.1L59.6,94.3c-0.2-0.1-0.3-0.4-0.1-0.6c0.1-0.2,0.4-0.3,0.6-0.1
				l15.5,10.7c0.2,0.1,0.3,0.4,0.1,0.6C75.6,105,75.5,105.1,75.3,105.1z"/>
			<path style="fill:#1B0E41;" d="M107.6,30.5c0,0-2.7,1.5-5.5,1c-2.9-0.5-5-1.8-4.9-2.9c0.2-1.1,3.6-2.8,5.5-1
				C106.6,31.2,107.6,30.5,107.6,30.5z"/>
			<path style="fill:#1B0E41;" d="M89.2,27.3c0,0,2.1,2.7,5.2,3.2c3.1,0.6,5.8,0.1,6-1.1s-2.5-4.3-5.2-3.2
				C90,28.3,89.2,27.3,89.2,27.3z"/>
		</g>
	</g>
</g>
</svg>
