<?xml version="1.0" encoding="utf-8"?>
<!-- Generator: Adobe Illustrator 26.1.0, SVG Export Plug-In . SVG Version: 6.00 Build 0)  -->
<svg version="1.1" id="Layer_1" xmlns="http://www.w3.org/2000/svg" xmlns:xlink="http://www.w3.org/1999/xlink" x="0px" y="0px"
	 viewBox="0 0 167.2 124" style="enable-background:new 0 0 167.2 124;" xml:space="preserve">
<g>
	<g>
		<path style="fill:#A17FFD;" d="M138.4,108.6V94.2l28.1,0.1c0.3,0,0.5-0.1,0.5-0.1c1.3-0.1-5.7-32.8-18.9-37.6
			c-9.4-3.4-20-3-29.8-2.3c-10.1,0.7-21.2,1.4-31.1,8.9C70.5,75.9,69.8,89.6,69.8,93.8c7.8,0.2,15.5,0.4,23.3,0.5l5.6-9.5
			L138.4,108.6z"/>
		<polygon style="fill:#FFD3CF;" points="95.2,116.5 83.9,109.8 89.5,100.3 74.7,100.3 74.7,111.8 41.3,87.5 24.4,111 42.3,124 
			95.2,124 		"/>
		<polygon style="fill:#A17FFD;" points="107.8,124 103.5,121.5 103.5,124 		"/>
		<polygon style="fill:#A17FFD;" points="103.5,121.5 95.2,116.5 95.2,124 103.5,124 		"/>
		<path style="fill:#FFD3CF;" d="M95.2,94.4c-0.7,0-1.4,0-2.1,0l-3.5,6l5.7,0V94.4z"/>
		<path style="fill:#FFD3CF;" d="M142.8,124h24.4V94.2l-0.6,0c-3.1,0.3-21,2.2-27.6,2.7L142.8,124z"/>
		<polygon style="fill:#FFD3CF;" points="95.2,116.5 95.2,100.3 89.5,100.3 83.9,109.8 		"/>
		<path style="fill:#FFD3CF;" d="M95.2,100.3l8.3,0v21.1l4.3,2.6h35L139,97c6.5-0.5,24.4-2.4,27.6-2.7l-28.1-0.1v14.4L98.7,84.8
			l-5.6,9.5c0.7,0,1.4,0,2.1,0V100.3z"/>
		<polygon style="fill:#FFD3CF;" points="103.5,100.3 95.2,100.3 95.2,116.5 103.5,121.5 		"/>
	</g>
	<defs>
		<filter id="Adobe_OpacityMaskFilter" filterUnits="userSpaceOnUse" x="0" y="0" width="167.2" height="122.1">
			<feColorMatrix  type="matrix" values="1 0 0 0 0  0 1 0 0 0  0 0 1 0 0  0 0 0 1 0"/>
		</filter>
	</defs>
	
		<mask maskUnits="userSpaceOnUse" x="0" y="0" width="167.2" height="122.1" id="mask0_401_2057_00000007401099813020390650000004055755533681436288_">
		<path style="fill-rule:evenodd;clip-rule:evenodd;fill:#FFFFFF;filter:url(#Adobe_OpacityMaskFilter);" d="M242-65h-360v213
			c0-13.3,10.7-24,24-24h312c13.3,0,24,10.7,24,24V-65z"/>
	</mask>
	<g style="mask:url(#mask0_401_2057_00000007401099813020390650000004055755533681436288_);">
		<path style="fill:#F2A098;" d="M95.7,99.6l-0.4,19.8l-20.5-12.9v-7.3h17.9L95.7,99.6z"/>
		<path style="fill:#FFD3CF;" d="M50.5,90.3c0,0,0.2-2.9-8.3-12l-7.4,4.9c-0.4,0.3-3.2,2.4-3.2,5.9c0,3.5,2.9,6.8,7.1,7.5
			c0.8,0.3,2.1,0.6,3.6,0.5c0,0,2.9,0.9,3.4,0.6c0.5-0.4,6.2-1.7,6.2-1.7L50.5,90.3z"/>
		<path style="fill:#FFD3CF;" d="M134.9,22.9c0,0,5.3-0.8,5.1,5.6c-0.2,6.5-9.3,5.3-9.3,5.3l-2.4-3.7L134.9,22.9z"/>
		<path style="fill:#FFD3CF;" d="M133.5,20l-4.3,18c0,0.1,0,0.2,0,0.2c0,0.1,0,0.2,0,0.3c0,0.5,0,0.9,0,1.4c0,1.9-0.1,3.8-0.1,5.7
			c-0.1,4.2-0.1,8.3-0.2,12.5c-1,3.2-4,5.3-7.2,5.2c-3.5-0.1-6.4-2.8-7-6.5l0.3-4.5l0.5-6.9l0,0c-0.7-0.4-1.5-0.8-2.6-1.4
			c-0.1,0-0.1-0.1-0.2-0.1c-0.1,0-0.1-0.1-0.1-0.1c-10-5.3,0-25.9,0-25.9C127.3,2.4,133.5,20,133.5,20z"/>
		<path style="fill:#1B0E41;" d="M124.9,7.5c0,0-5-11.8-13.2-5.9c-8.1,5.9-4,15.8,1,16.4c5,0.6,10.4-2,10.4-2
			c0.3,0.4,1.5,1.6,3.6,1.8c1.8,0.2,3.1-0.5,3.6-0.7c-0.3,0.4-0.8,1.2-0.8,2.4c-0.1,2.2,1.7,3.4,1.8,3.6c-0.4,1.8-0.8,3.5-1.3,5.3
			h1.7l3.1-5.6c0,0,6.6-3.5,3-12.7c-2.6-6.5-7.4-2.4-7.4-2.4S130.2,2.8,124.9,7.5z"/>
		<ellipse style="fill:#1B0E41;" cx="120.7" cy="24.2" rx="1.4" ry="1.4"/>
		<ellipse style="fill:#1B0E41;" cx="114.2" cy="22.8" rx="1.4" ry="1.4"/>
		<path style="fill:#1B0E41;" d="M122.8,22.9l-3.2-1.5c-0.3-0.2-0.5-0.6-0.3-0.9l0,0c0.2-0.3,0.6-0.5,0.9-0.3l3.2,1.5
			c0.3,0.2,0.5,0.6,0.3,0.9l0,0C123.6,22.9,123.1,23.1,122.8,22.9z"/>
		<path style="fill:#1B0E41;" d="M116.4,20.7l-3.5,0.4c-0.4,0.1-0.7-0.2-0.7-0.6l0,0c-0.1-0.4,0.2-0.7,0.6-0.7l3.5-0.4
			c0.4-0.1,0.7,0.2,0.7,0.6l0,0C117.1,20.3,116.8,20.6,116.4,20.7z"/>
		<path style="fill:#F2A098;" d="M129.2,38c0,0.1,0,0.2,0,0.2c0,1.1-0.1,0.7-0.1,5.3c-2.3,2.6-4.6,3.9-6,4.4c-2.4,1.1-3.8,1-4.3,0.9
			c-1.5-0.1-2.7-0.7-3.4-1.1c0.1-0.8,0.1-1.7,0.2-2.5c1.2,0.4,2.7,0.5,4.8-0.1C125.3,43.7,128.9,38.8,129.2,38z"/>
		<path style="fill:#FFFFFF;" d="M113.7,36.3c1.5,0.2,2.9-0.8,3.1-2.3l-5.4-0.8C111.2,34.7,112.2,36.1,113.7,36.3z"/>
		<path style="fill:#FFD3CF;" d="M33.3,113.4l-16.9-1.8c-3.5-0.4-6-3.5-5.6-7l1.8-17c0.4-3.5,3.5-6,6.9-5.6l16.9,1.8
			c3.5,0.4,6,3.5,5.6,7l-1.8,17C39.8,111.3,36.7,113.8,33.3,113.4z"/>
		<path style="fill:#1B0E41;" d="M18.6,117.1c-3.2,0.5-6.2-1.8-6.7-5L6,70.5c-0.5-3.2,1.8-6.3,5-6.7l16.6-2.4c3.2-0.5,6.2,1.8,6.7,5
			l5.9,41.6c0.5,3.2-1.8,6.3-5,6.7L18.6,117.1z"/>
		<path style="fill:#FFFFFF;" d="M27.9,63.4l-16.6,2.4c-2.1,0.3-3.6,2.3-3.4,4.5l5.9,41.6c0.3,2.2,2.3,3.6,4.5,3.4l16.6-2.4
			c2.1-0.3,3.6-2.3,3.4-4.5l-5.9-41.6C32,64.6,30,63,27.9,63.4z"/>
		<path style="fill-rule:evenodd;clip-rule:evenodd;fill:#1B0E41;" d="M13.5,111.8c0.3,2.1,2.1,3.6,4.2,3.6c0.1,0,0.2,0,0.3,0
			c0.1,0,0.2,0,0.2,0l16.6-2.4c2.3-0.4,3.8-2.5,3.6-4.8l-5.9-41.6c-0.2-1.1-0.7-2.1-1.6-2.8c-0.9-0.7-2-0.9-3.1-0.8l-16.6,2.4
			c-2.3,0.4-3.8,2.5-3.6,4.8L13.5,111.8z M27.9,63.6c0.2-0.1,0.4-0.1,0.5-0.1c0.8,0,1.5,0.3,2.2,0.8c0.8,0.6,1.3,1.4,1.4,2.4
			l5.9,41.6c0.2,2.1-1.2,3.9-3.1,4.2l-16.6,2.4c-2,0.2-3.8-1.2-4.1-3.2L8.1,70.2c-0.2-2.1,1.2-3.9,3.1-4.2L27.9,63.6z"/>
		<path style="fill:#1B0E41;" d="M25.9,62.4L13,64.3c-1,0.2-1.8,1.2-1.7,2.2l0,0c0.2,1.1,1.2,1.8,2.2,1.7l12.9-1.8
			c1-0.2,1.8-1.2,1.7-2.2l0,0C27.9,63,26.9,62.3,25.9,62.4z"/>
		<path style="fill:#FFD3CF;" d="M16,80.5L5.5,77.2c-2-0.5-4,0.7-4.5,2.7l-0.1,0.2c-0.5,2,0.7,4.1,2.7,4.5l10.5,3.2
			c2,0.5,4-0.7,4.5-2.7l0.1-0.2C19.1,83,17.9,81,16,80.5z"/>
		<path style="fill:#FFD3CF;" d="M16,88.2L5.5,85c-2-0.5-4,0.7-4.5,2.7l-0.1,0.2c-0.5,2,0.7,4.1,2.7,4.5l10.5,3.2
			c2,0.5,4-0.7,4.5-2.7l0.1-0.2C19.1,90.8,17.9,88.7,16,88.2z"/>
		<path style="fill:#FFD3CF;" d="M15.2,95.6L4.7,92.4c-2-0.5-4,0.7-4.5,2.7l-0.1,0.2c-0.5,2,0.7,4.1,2.7,4.5l10.5,3.2
			c2,0.5,4-0.7,4.5-2.7l0.1-0.2C18.4,98.2,17.2,96.1,15.2,95.6z"/>
		<path style="fill:#FFD3CF;" d="M16,102.8L5.5,99.6c-2-0.5-4,0.7-4.5,2.7l-0.1,0.2c-0.5,2,0.7,4.1,2.7,4.5l10.5,3.2
			c2,0.5,4-0.7,4.5-2.7l0.1-0.2C19.1,105.3,17.9,103.3,16,102.8z"/>
		<path style="fill:#FFD3CF;" d="M86.1,80c-0.4,0.3-3.4,2.3-3.5,5.8c-0.2,3.4,2.6,6.9,6.8,7.8c0.8,0.3,2.1,0.7,3.6,0.7
			c2.5,0.1,4.3-0.8,5.2-1.3c2.4-2,3.1-3.8,3.3-5.2c0,0,0.3-2.9-7.8-12.3l0,0"/>
		<path style="fill:#FFD3CF;" d="M42.3,78.4l-10-7.3c-1.9-1.3-4.5-0.8-5.8,1.2l-0.2,0.2c-1.3,1.9-0.8,4.5,1.2,5.9l10,7.3
			c1.9,1.3,4.5,0.8,5.8-1.2l0.2-0.2C44.7,82.3,44.2,79.7,42.3,78.4z"/>
		<path style="fill:#8F7676;" d="M84.8,77.1c-0.1,0-0.2,0-0.3-0.1l-7.4-4.4c-0.3-0.2-0.3-0.5-0.2-0.7c0.2-0.3,0.5-0.3,0.7-0.2
			l7.4,4.4c0.3,0.2,0.3,0.5,0.2,0.7C85.1,77,84.9,77.1,84.8,77.1z"/>
		<path style="fill-rule:evenodd;clip-rule:evenodd;fill:#F2A098;" d="M39.1,116.6c0.1,0.3,0.3,0.5,0.5,0.5c0,0,0.1,0,0.1-0.1
			c2.1-0.3,5-1.2,6.6-3.3c0.8-1.1,1.1-2.3,1-3.8c0.5-0.1,0.9-0.2,1.3-0.4c1.1-0.6,2-1.9,2.4-3.4c0.4-1.5,0.3-3-0.4-4
			c-0.2-0.3-0.5-0.4-0.7-0.2c-0.3,0.2-0.4,0.5-0.2,0.7c0.5,0.8,0.6,2,0.3,3.2c-0.3,1.2-1,2.3-1.9,2.7c-0.3,0.2-0.6,0.3-0.9,0.3
			c-0.3-0.8-0.9-2.4-1.8-2.5c-0.3-0.1-0.7,0.1-1,0.9c-0.1,0.3-0.1,0.5,0,0.8c0.2,0.7,0.6,1.3,1.4,1.6c0.2,0.1,0.4,0.2,0.6,0.2
			c0.2,1.3-0.1,2.4-0.8,3.3c-1,1.4-3.1,2.4-5.8,2.8C39.3,116,39.1,116.3,39.1,116.6z M45.2,107.6C45.2,107.6,45.3,107.5,45.2,107.6
			c0.2,0.2,0.4,0.6,0.6,1c-0.3-0.2-0.5-0.4-0.6-0.8v-0.1L45.2,107.6C45.2,107.6,45.2,107.6,45.2,107.6z"/>
		<path style="fill:#FFD3CF;" d="M104.1,121.9l-33.1-19.4c-2.9-1.8-3.9-5.7-2.1-8.7l8.8-14.6c1.8-3,5.7-4,8.6-2.1l14.5,8.9
			c2.9,1.8,3.9,5.7,2.1,8.7l8.8,17.4C109.8,114.9,107,123.7,104.1,121.9z"/>
		<path style="fill:#FFD3CF;" d="M87.7,77.8L64.1,63.8c-1.7-1.1-4-0.5-5.1,1.3l-0.1,0.2c-1,1.7-0.5,4.1,1.3,5.1l23.5,13.9
			c1.7,1.1,4,0.5,5.1-1.3l0.1-0.2C90,81.2,89.4,78.9,87.7,77.8z"/>
		<path style="fill:#FFD3CF;" d="M86.5,85.3l-15.4-9.4c-1.7-1.1-4-0.5-5.1,1.3l-0.1,0.2c-1,1.7-0.5,4.1,1.3,5.1l15.4,9.4
			c1.7,1.1,4,0.5,5.1-1.3l0.1-0.2C88.8,88.6,88.2,86.3,86.5,85.3z"/>
		<path style="fill:#FFD3CF;" d="M84.7,93.2l-15.4-9.4c-1.7-1.1-4-0.5-5.1,1.3l-0.1,0.2c-1,1.7-0.5,4.1,1.3,5.1l15.4,9.4
			c1.7,1.1,4,0.5,5.1-1.3l0.1-0.2C87,96.5,86.5,94.2,84.7,93.2z"/>
		<path style="fill:#FFD3CF;" d="M83,100.9l-15.3-9.5c-1.7-1.1-4-0.5-5.1,1.2l-0.1,0.2c-1.1,1.7-0.5,4.1,1.2,5.2l17.8,10.8
			c1.7,1.1,1.5-0.7,2.6-2.4l0.1-0.2C85.3,104.4,84.7,102,83,100.9z"/>
		<path style="fill:#FFD3CF;" d="M93.7,75.4l-9.6-7.8c-1.8-1.4-4.5-0.9-5.8,0.9l-0.2,0.2c-1.4,1.8-0.9,4.5,0.9,5.9l9.6,7.8
			c1.8,1.4,4.5,0.9,5.8-0.9l0.2-0.2C96,79.5,95.6,76.8,93.7,75.4z"/>
		<path style="fill:#F2A098;" d="M73.5,78.6c-0.1,0-0.2,0-0.3-0.1L68,75.5c-0.3-0.2-0.3-0.5-0.2-0.7c0.2-0.3,0.5-0.3,0.7-0.2
			l5.2,3.1c0.3,0.2,0.3,0.5,0.2,0.7C73.8,78.5,73.6,78.6,73.5,78.6z"/>
		<path style="fill:#F2A098;" d="M83.1,75c-0.1,0-0.2,0-0.3-0.1l-5.2-3.1c-0.3-0.2-0.3-0.5-0.2-0.7c0.2-0.3,0.5-0.3,0.7-0.2l5.2,3.1
			c0.3,0.2,0.3,0.5,0.2,0.7C83.5,74.9,83.3,75,83.1,75z"/>
		<path style="fill:#F2A098;" d="M9.8,86.7c-0.1,0-0.1,0-0.2,0l-5.8-1.8c-0.3-0.1-0.4-0.4-0.3-0.7c0.1-0.3,0.4-0.4,0.7-0.3l5.8,1.8
			c0.3,0.1,0.4,0.4,0.3,0.7C10.2,86.5,10,86.7,9.8,86.7z"/>
		<path style="fill:#F2A098;" d="M9,94.1c-0.1,0-0.1,0-0.2,0l-5.8-1.8c-0.3-0.1-0.4-0.4-0.3-0.7c0.1-0.3,0.4-0.4,0.7-0.3l5.8,1.8
			c0.3,0.1,0.4,0.4,0.3,0.7C9.4,94,9.2,94.1,9,94.1z"/>
		<path style="fill:#F2A098;" d="M8.6,101.7c-0.1,0-0.1,0-0.2,0l-5.8-1.8c-0.3-0.1-0.4-0.4-0.3-0.7c0.1-0.3,0.4-0.4,0.7-0.3l5.8,1.8
			c0.3,0.1,0.4,0.4,0.3,0.7C9,101.5,8.8,101.7,8.6,101.7z"/>
		<path style="fill:#F2A098;" d="M72.1,86.3c-0.1,0-0.2,0-0.3-0.1l-5.2-3.1c-0.3-0.2-0.3-0.5-0.2-0.7c0.2-0.3,0.5-0.3,0.7-0.2
			l5.2,3.1c0.3,0.2,0.3,0.5,0.2,0.7C72.5,86.2,72.3,86.3,72.1,86.3z"/>
		<path style="fill:#F2A098;" d="M71.5,94.8c-0.1,0-0.2,0-0.3-0.1L66,91.7c-0.3-0.2-0.3-0.5-0.2-0.7c0.2-0.3,0.5-0.3,0.7-0.2
			l5.2,3.1c0.3,0.2,0.3,0.5,0.2,0.7C71.8,94.7,71.6,94.8,71.5,94.8z"/>
		<rect x="138.3" y="94.2" style="fill:#F2A098;" width="28.8" height="3.5"/>
		<path style="fill:#F2A098;" d="M86.7,121.1c-0.1,0-0.2-0.1-0.3-0.1l-18-12.6c-0.3-0.2-0.3-0.5-0.2-0.7c0.2-0.3,0.5-0.3,0.7-0.2
			l18,12.6c0.3,0.2,0.3,0.5,0.2,0.7C87,121,86.9,121.1,86.7,121.1z"/>
		<path style="fill:#1B0E41;" d="M124.4,33.5c0,0-3.1,1.8-6.5,1.1c-3.4-0.6-5.9-2.1-5.7-3.4c0.2-1.3,4.2-3.3,6.5-1.1
			C123.2,34.2,124.4,33.5,124.4,33.5z"/>
		<path style="fill:#1B0E41;" d="M102.9,29.7c0,0,2.5,3.1,6.1,3.8s6.7,0.1,7-1.3c0.2-1.4-2.9-5.1-6.1-3.8
			C103.8,30.9,102.9,29.7,102.9,29.7z"/>
	</g>
</g>
</svg>
