<svg width="229" height="270" viewBox="0 0 229 270" fill="none" xmlns="http://www.w3.org/2000/svg">
<path d="M176.962 78.9816H176.219V74.103H180.126V74.8456H176.962V78.9816Z" fill="#E8E7EC"/>
<path d="M180.126 110.113H176.219V105.234H176.962V109.37H180.126V110.113Z" fill="#E8E7EC"/>
<path d="M209.468 91.3749C209.405 91.3749 209.345 91.36 209.286 91.3266C209.107 91.2264 209.044 90.9999 209.145 90.8217L216.379 77.9978C216.479 77.8196 216.706 77.7565 216.884 77.8567C217.063 77.957 217.126 78.1834 217.026 78.3617L209.791 91.1855C209.725 91.308 209.598 91.3749 209.468 91.3749Z" fill="#B678FD"/>
<path d="M209.468 91.3748C209.383 91.3748 209.293 91.3451 209.223 91.282L202.769 85.672C202.613 85.5384 202.598 85.3045 202.732 85.1485C202.866 84.9926 203.104 84.9778 203.256 85.1114L209.71 90.7214C209.866 90.855 209.881 91.0889 209.747 91.2449C209.676 91.334 209.572 91.3748 209.468 91.3748Z" fill="#B678FD"/>
<path d="M196.985 91.3748C196.884 91.3748 196.784 91.334 196.713 91.256C196.572 91.1075 196.583 90.8699 196.732 90.7325L202.762 85.1226C202.91 84.9815 203.148 84.9926 203.286 85.1411C203.427 85.2896 203.416 85.5272 203.267 85.6646L197.237 91.2746C197.167 91.3414 197.074 91.3748 196.985 91.3748Z" fill="#B678FD"/>
<path d="M196.985 91.3748C196.918 91.3748 196.847 91.3562 196.788 91.3191L186.486 84.8143C186.312 84.7029 186.259 84.4765 186.371 84.302C186.479 84.1275 186.709 84.0755 186.884 84.1869L197.185 90.6916C197.36 90.803 197.412 91.0295 197.301 91.204C197.226 91.3154 197.107 91.3748 196.985 91.3748Z" fill="#B678FD"/>
<path d="M182.1 96.079C182.051 96.079 182.007 96.0715 181.958 96.053C181.769 95.975 181.676 95.7597 181.754 95.5703L186.338 84.3615C186.416 84.1721 186.631 84.0793 186.821 84.1573C187.011 84.2353 187.104 84.4506 187.025 84.6399L182.442 95.8488C182.386 95.9936 182.245 96.079 182.1 96.079Z" fill="#B678FD"/>
<path d="M228.732 78.9816H227.989V74.8456H224.829V74.103H228.732V78.9816Z" fill="#E8E7EC"/>
<path d="M228.732 110.113H224.829V109.37H227.989V105.234H228.732V110.113Z" fill="#E8E7EC"/>
<path d="M211.323 103.048H204.706C204.502 103.048 204.334 102.881 204.334 102.676C204.334 102.472 204.502 102.305 204.706 102.305H211.323C211.528 102.305 211.695 102.472 211.695 102.676C211.695 102.881 211.528 103.048 211.323 103.048Z" fill="#E8E7EC"/>
<path d="M211.323 105.049H204.706C204.502 105.049 204.334 104.882 204.334 104.678C204.334 104.473 204.502 104.306 204.706 104.306H211.323C211.528 104.306 211.695 104.473 211.695 104.678C211.695 104.882 211.528 105.049 211.323 105.049Z" fill="#E8E7EC"/>
<path d="M220.777 103.048H214.16C213.955 103.048 213.788 102.881 213.788 102.676C213.788 102.472 213.955 102.305 214.16 102.305H220.777C220.981 102.305 221.149 102.472 221.149 102.676C221.149 102.881 220.981 103.048 220.777 103.048Z" fill="#E8E7EC"/>
<path d="M220.777 105.049H214.16C213.955 105.049 213.788 104.882 213.788 104.678C213.788 104.473 213.955 104.306 214.16 104.306H220.777C220.981 104.306 221.149 104.473 221.149 104.678C221.149 104.882 220.981 105.049 220.777 105.049Z" fill="#E8E7EC"/>
<path d="M211.323 107.05H204.706C204.502 107.05 204.334 106.883 204.334 106.679C204.334 106.475 204.502 106.308 204.706 106.308H211.323C211.528 106.308 211.695 106.475 211.695 106.679C211.695 106.883 211.528 107.05 211.323 107.05Z" fill="#E8E7EC"/>
<ellipse cx="182.1" cy="95.7075" rx="2.18218" ry="2.17939" fill="#8043F9"/>
<ellipse cx="186.512" cy="84.4987" rx="2.18218" ry="2.17939" fill="#8043F9"/>
<ellipse cx="196.985" cy="91.0036" rx="2.18219" ry="2.17939" fill="#8043F9"/>
<ellipse cx="209.468" cy="91.0036" rx="2.18218" ry="2.17939" fill="#8043F9"/>
<ellipse cx="216.702" cy="78.1796" rx="2.18219" ry="2.17939" fill="#8043F9"/>
<path d="M222.717 100.564H205.052C203.877 100.564 202.914 99.6023 202.914 98.429C202.914 97.2558 203.877 96.2942 205.052 96.2942H222.717C223.892 96.2942 224.855 97.2558 224.855 98.429C224.855 99.6023 223.892 100.564 222.717 100.564Z" fill="#E8E7EC"/>
<ellipse cx="203.014" cy="85.3935" rx="2.18217" ry="2.17939" fill="#8043F9"/>
<path fill-rule="evenodd" clip-rule="evenodd" d="M33.5171 59.9685H80.7483L80.7446 0.319336H33.5171V59.9685ZM80.0011 59.226H34.2606V1.06189H80.0011V59.226Z" fill="#E8E7EC"/>
<path d="M145.251 7.97128C145.155 7.97128 145.062 7.93415 144.987 7.86361C144.842 7.71881 144.842 7.48491 144.987 7.34011L148.917 3.41573C149.062 3.27093 149.296 3.27093 149.441 3.41573C149.586 3.56052 149.586 3.79443 149.441 3.93923L145.512 7.86361C145.441 7.93415 145.344 7.97128 145.251 7.97128Z" fill="#FF2D3D"/>
<path d="M149.181 7.97128C149.084 7.97128 148.991 7.93415 148.917 7.86361L144.987 3.93923C144.842 3.79443 144.842 3.56052 144.987 3.41573C145.132 3.27093 145.367 3.27093 145.512 3.41573L149.445 7.3364C149.59 7.4812 149.59 7.7151 149.445 7.8599C149.37 7.93415 149.274 7.97128 149.181 7.97128Z" fill="#FF2D3D"/>
<path d="M156.527 29.2381C155.638 29.175 154.921 29.0562 154.37 28.878C153.82 28.6998 153.411 28.5364 153.14 28.3879L153.768 26.6318C154.162 26.8285 154.642 27.0067 155.203 27.1664C155.764 27.326 156.404 27.4077 157.118 27.4077C157.969 27.4077 158.556 27.2815 158.883 27.029C159.211 26.7766 159.374 26.4424 159.374 26.0229C159.374 25.7407 159.307 25.4919 159.17 25.284C159.032 25.0761 158.843 24.8905 158.597 24.7308C158.352 24.5712 158.058 24.4227 157.72 24.289C157.382 24.1553 157.006 24.0105 156.601 23.8657C156.218 23.7321 155.839 23.5762 155.463 23.4054C155.088 23.2346 154.75 23.0192 154.445 22.7668C154.14 22.5143 153.898 22.2099 153.716 21.8534C153.53 21.497 153.437 21.0589 153.437 20.5428C153.437 19.6926 153.69 18.9686 154.196 18.3709C154.701 17.7731 155.478 17.3907 156.527 17.2162V15.1482H158.449V17.1419C159.04 17.1902 159.571 17.2756 160.04 17.3907C160.508 17.5095 160.876 17.6209 161.151 17.7323L160.69 19.5627C160.333 19.429 159.91 19.2991 159.423 19.1765C158.936 19.054 158.378 18.9909 157.75 18.9909C157.084 18.9909 156.586 19.1097 156.251 19.351C155.917 19.5924 155.753 19.9228 155.753 20.3386C155.753 20.5837 155.802 20.7916 155.902 20.9587C155.999 21.1257 156.147 21.2742 156.344 21.4005C156.541 21.5304 156.783 21.6529 157.066 21.7718C157.348 21.8906 157.668 22.0094 158.028 22.1319C158.534 22.3287 159.01 22.5366 159.463 22.7519C159.913 22.9673 160.304 23.2197 160.638 23.5093C160.973 23.7989 161.233 24.1405 161.423 24.534C161.612 24.9276 161.709 25.3954 161.709 25.9375C161.709 26.7506 161.456 27.4523 160.95 28.0426C160.445 28.6329 159.612 29.0153 158.452 29.1861V31.4955H156.53V29.2381H156.527Z" fill="#FFBC00"/>
<path d="M181.163 20.6839C181.471 19.2694 182.059 18.2075 182.929 17.4984C183.798 16.7892 184.91 16.4365 186.267 16.4365C186.81 16.4365 187.267 16.4737 187.646 16.5479C188.022 16.6222 188.401 16.7261 188.784 16.8635L188.304 18.6753C188.007 18.5639 187.698 18.4748 187.371 18.408C187.044 18.3412 186.672 18.3078 186.252 18.3078C185.412 18.3078 184.769 18.5194 184.319 18.9463C183.869 19.3696 183.557 19.9525 183.386 20.6913H187.583L187.285 22.2618H183.159C183.148 22.4104 183.14 22.5477 183.14 22.6777C183.14 22.8076 183.14 22.9413 183.14 23.0749C183.14 23.1975 183.14 23.3163 183.14 23.4276C183.14 23.539 183.148 23.6615 183.159 23.7989H186.988L186.672 25.388H183.36C183.557 26.3013 183.899 26.9362 184.386 27.3001C184.873 27.6639 185.479 27.8458 186.207 27.8458C186.676 27.8458 187.107 27.8013 187.501 27.7159C187.895 27.6305 188.271 27.508 188.628 27.3446L189.088 29.1379C188.806 29.2752 188.404 29.4052 187.888 29.5351C187.371 29.6651 186.776 29.7282 186.111 29.7282C184.62 29.7282 183.471 29.3458 182.672 28.5847C181.869 27.8198 181.345 26.7543 181.099 25.388H179.601V23.7989H180.951C180.94 23.6615 180.932 23.539 180.932 23.4276C180.932 23.3163 180.932 23.2012 180.932 23.0749C180.932 22.9413 180.932 22.8039 180.932 22.6702C180.932 22.5366 180.94 22.3992 180.951 22.2656H179.601V20.6951H181.163V20.6839Z" fill="#FFBC00"/>
<path d="M157.259 35.572H144.88V9.90942H156.753C156.958 9.90942 157.125 10.0765 157.125 10.2807C157.125 10.4849 156.958 10.652 156.753 10.652H145.623V34.8295H157.259C157.463 34.8295 157.631 34.9965 157.631 35.2007C157.631 35.4049 157.463 35.572 157.259 35.572Z" fill="#E8E7EC"/>
<path d="M198.204 35.572H186.33C186.126 35.572 185.958 35.4049 185.958 35.2007C185.958 34.9965 186.126 34.8295 186.33 34.8295H197.46V10.652H185.825C185.62 10.652 185.453 10.4849 185.453 10.2807C185.453 10.0765 185.62 9.90942 185.825 9.90942H198.204V35.572Z" fill="#E8E7EC"/>
<path d="M20.5579 111.216C20.4129 111.216 20.2791 111.134 20.2159 110.993L19.3237 108.951C19.2419 108.762 19.3274 108.543 19.517 108.461C19.7066 108.379 19.9259 108.465 20.0077 108.654L20.8999 110.696C20.9817 110.885 20.8962 111.104 20.7066 111.186C20.6583 111.208 20.6063 111.216 20.5579 111.216Z" fill="#E8E7EC"/>
<path fill-rule="evenodd" clip-rule="evenodd" d="M14.398 97.679C14.4612 97.8201 14.595 97.9017 14.74 97.9017C14.7921 97.9017 14.8404 97.8906 14.8887 97.872C15.0783 97.7904 15.1638 97.5713 15.082 97.382L13.4389 93.6246C13.3571 93.4353 13.1378 93.3499 12.9482 93.4316C12.7586 93.5133 12.6731 93.7323 12.7549 93.9217L14.398 97.679ZM17.6843 105.194C17.7475 105.335 17.8813 105.416 18.0263 105.416C18.0746 105.416 18.1267 105.405 18.175 105.387C18.3646 105.305 18.4501 105.086 18.3683 104.897L16.7252 101.139C16.6434 100.95 16.4241 100.865 16.2345 100.946C16.0449 101.028 15.9594 101.247 16.0412 101.436L17.6843 105.194Z" fill="#E8E7EC"/>
<path d="M11.4573 90.3871C11.3124 90.3871 11.1785 90.3054 11.1153 90.1644L10.2231 88.1223C10.1413 87.933 10.2268 87.7139 10.4164 87.6323C10.606 87.5506 10.8254 87.636 10.9071 87.8253L11.7994 89.8673C11.8811 90.0567 11.7956 90.2757 11.606 90.3574C11.5577 90.376 11.5094 90.3871 11.4573 90.3871Z" fill="#E8E7EC"/>
<path d="M5.68761 63.9339C5.48686 63.9339 5.31957 63.7705 5.31586 63.57L5.27496 61.3424C5.27125 61.1382 5.43482 60.9674 5.63928 60.9637C5.84375 60.96 6.01475 61.1233 6.01847 61.3275L6.05936 63.5552C6.06308 63.7594 5.89951 63.9302 5.69505 63.9339C5.69133 63.9339 5.69133 63.9339 5.68761 63.9339Z" fill="#E8E7EC"/>
<path d="M5.53895 55.9847C5.3382 55.9847 5.17091 55.8213 5.1672 55.6209L5.05939 49.8958C5.05567 49.6916 5.21924 49.5208 5.42371 49.5171C5.63932 49.5171 5.79918 49.6767 5.8029 49.8809L5.9107 55.606C5.91442 55.8102 5.75085 55.981 5.54639 55.9847C5.54267 55.9847 5.53895 55.9847 5.53895 55.9847Z" fill="#E8E7EC"/>
<path d="M5.32335 44.5347C5.12261 44.5347 4.95532 44.3713 4.9516 44.1708L4.91071 41.9432C4.90699 41.739 5.07056 41.5682 5.27503 41.5645C5.48321 41.5682 5.6505 41.7241 5.65421 41.9283L5.69511 44.156C5.69882 44.3602 5.53525 44.5309 5.33079 44.5347C5.32707 44.5347 5.32335 44.5347 5.32335 44.5347Z" fill="#E8E7EC"/>
<path d="M28.6806 34.1722H26.4501C26.2457 34.1722 26.0784 34.0052 26.0784 33.801C26.0784 33.5968 26.2457 33.4297 26.4501 33.4297H28.6806C28.8851 33.4297 29.0524 33.5968 29.0524 33.801C29.0524 34.0052 28.8888 34.1722 28.6806 34.1722Z" fill="#E8E7EC"/>
<path d="M23.387 34.1722H20.32C20.1155 34.1722 19.9482 34.0052 19.9482 33.801C19.9482 33.5968 20.1155 33.4297 20.32 33.4297H23.387C23.5914 33.4297 23.7587 33.5968 23.7587 33.801C23.7587 34.0052 23.5914 34.1722 23.387 34.1722Z" fill="#E8E7EC"/>
<path d="M17.2529 34.1722H15.0224C14.8179 34.1722 14.6506 34.0052 14.6506 33.801C14.6506 33.5968 14.8179 33.4297 15.0224 33.4297H17.2529C17.4574 33.4297 17.6247 33.5968 17.6247 33.801C17.6247 34.0052 17.4574 34.1722 17.2529 34.1722Z" fill="#E8E7EC"/>
<ellipse cx="11.9444" cy="159.949" rx="5.96292" ry="5.95526" fill="#FFBC00"/>
<path d="M13.2344 164.761L13.0448 164.045C13.818 163.84 14.5169 163.417 15.0634 162.827C15.8329 161.995 16.2344 160.915 16.1898 159.782C16.1452 158.65 15.6619 157.603 14.8329 156.834C14.0002 156.066 12.9146 155.665 11.7845 155.71C10.6507 155.754 9.60232 156.237 8.83279 157.065C8.49822 157.425 8.23055 157.837 8.04096 158.286L7.35693 157.997C7.57999 157.469 7.89598 156.987 8.28632 156.563C9.19339 155.587 10.4239 155.023 11.7548 154.971C13.0894 154.919 14.357 155.39 15.3348 156.292C16.3125 157.195 16.8775 158.427 16.9296 159.756C16.9816 161.086 16.5095 162.355 15.6061 163.332C14.963 164.026 14.1414 164.52 13.2344 164.761Z" fill="#BD8B00"/>
<path d="M11.6507 161.769C11.3681 161.75 11.1376 161.709 10.9629 161.654C10.7882 161.598 10.6544 161.546 10.5688 161.498L10.7696 160.937C10.896 161 11.0484 161.056 11.2269 161.108C11.4053 161.16 11.6098 161.186 11.8402 161.186C12.1116 161.186 12.3012 161.145 12.4053 161.063C12.5094 160.982 12.5614 160.874 12.5614 160.74C12.5614 160.651 12.5391 160.569 12.4945 160.503C12.4499 160.436 12.3904 160.376 12.3124 160.324C12.2343 160.272 12.1414 160.224 12.0298 160.183C11.922 160.139 11.8031 160.094 11.673 160.046C11.5503 160.001 11.4276 159.953 11.3086 159.897C11.1897 159.842 11.0781 159.775 10.9815 159.693C10.8848 159.612 10.8068 159.515 10.7473 159.4C10.6878 159.285 10.6581 159.147 10.6581 158.98C10.6581 158.709 10.7399 158.475 10.8997 158.286C11.0596 158.097 11.3086 157.97 11.6469 157.915V157.254H12.264V157.892C12.4536 157.907 12.6246 157.933 12.7733 157.974C12.922 158.011 13.041 158.048 13.1302 158.082L12.9815 158.668C12.8663 158.624 12.7325 158.583 12.5763 158.546C12.4202 158.505 12.2417 158.487 12.041 158.487C11.8291 158.487 11.6692 158.524 11.5614 158.602C11.4536 158.68 11.4016 158.784 11.4016 158.917C11.4016 158.995 11.4164 159.062 11.4499 159.114C11.4834 159.166 11.528 159.214 11.5912 159.255C11.6544 159.296 11.7324 159.337 11.8217 159.374C11.9109 159.411 12.015 159.452 12.1302 159.489C12.2938 159.552 12.4462 159.619 12.5875 159.686C12.7325 159.756 12.8551 159.834 12.9629 159.927C13.0707 160.02 13.1525 160.128 13.2157 160.254C13.2789 160.38 13.3087 160.529 13.3087 160.703C13.3087 160.963 13.2269 161.186 13.067 161.375C12.9035 161.564 12.6395 161.687 12.2678 161.743V162.481H11.6507V161.769Z" fill="#BD8B00"/>
<ellipse cx="6.16361" cy="77.9606" rx="5.96292" ry="5.95527" fill="#FFBC00"/>
<path d="M6.16744 82.9431C5.99272 82.9431 5.818 82.9356 5.64327 82.9171C2.90717 82.6312 0.914571 80.1771 1.1971 77.4445C1.33465 76.1227 1.9815 74.9309 3.01498 74.0918C4.04845 73.2528 5.34959 72.8666 6.67303 73.004C7.61356 73.1005 8.50206 73.4607 9.24184 74.0436L8.78087 74.6265C8.15261 74.1327 7.39795 73.8245 6.59496 73.7428C5.46483 73.624 4.36072 73.9545 3.47967 74.6673C2.59861 75.3802 2.04842 76.3938 1.93317 77.5187C1.81421 78.6437 2.14507 79.7501 2.85884 80.63C3.57261 81.5099 4.58749 82.0594 5.71391 82.1745C6.20462 82.2265 6.69162 82.1931 7.16746 82.0743L7.3459 82.7945C6.963 82.8948 6.56894 82.9431 6.16744 82.9431Z" fill="#BD8B00"/>
<path d="M6.01479 77.5932H7.06686V78.1724H6.01479C6.01479 78.3431 6.00736 78.5214 5.99249 78.7144C5.97762 78.9038 5.95903 79.0857 5.92929 79.2565H7.55757V79.8579H5.13002C5.24898 79.2565 5.30846 78.6921 5.30846 78.1724H4.77686V77.5932H5.30846V77.2033C5.30846 76.9026 5.34192 76.6576 5.40884 76.4608C5.47575 76.264 5.56869 76.1118 5.68765 75.9967C5.80661 75.8816 5.94788 75.7999 6.11517 75.7554C6.28246 75.7071 6.4609 75.6848 6.65793 75.6848C6.82522 75.6848 6.9702 75.6997 7.10031 75.7331C7.22671 75.7628 7.35311 75.8073 7.47207 75.8556L7.29362 76.4348C7.10775 76.3494 6.90328 76.3011 6.68395 76.2974C6.57986 76.2974 6.48692 76.3086 6.40513 76.3345C6.32335 76.3605 6.25272 76.4051 6.19324 76.4719C6.13747 76.5387 6.09286 76.6241 6.0594 76.7392C6.02595 76.8506 6.01108 76.9917 6.01108 77.1625L6.01479 77.5932Z" fill="#BD8B00"/>
<ellipse cx="37.9522" cy="190.212" rx="5.96292" ry="5.95526" fill="#FFBC00"/>
<path d="M34.9077 194.159C34.4541 193.81 34.0638 193.386 33.7515 192.9C33.034 191.779 32.7924 190.446 33.0787 189.146C33.3649 187.847 34.1382 186.733 35.2608 186.017C36.3835 185.3 37.7181 185.059 39.0193 185.345C40.3204 185.63 41.4357 186.403 42.1531 187.524C42.6624 188.319 42.9375 189.236 42.9413 190.175L42.1978 190.179C42.194 189.38 41.9598 188.601 41.5249 187.921C40.9115 186.967 39.9672 186.31 38.8594 186.069C37.7516 185.827 36.6177 186.031 35.6623 186.64C34.7069 187.253 34.0489 188.196 33.8073 189.302C33.5657 190.409 33.7701 191.545 34.3798 192.495C34.6437 192.911 34.9746 193.271 35.3649 193.568L34.9077 194.159Z" fill="#BD8B00"/>
<path d="M36.6213 189.291C36.7217 188.838 36.9076 188.497 37.1864 188.27C37.4652 188.044 37.8221 187.929 38.2533 187.929C38.428 187.929 38.573 187.94 38.6957 187.966C38.8184 187.992 38.9373 188.022 39.06 188.066L38.9076 188.645C38.8147 188.608 38.7143 188.582 38.6102 188.56C38.5061 188.538 38.3872 188.526 38.2533 188.526C37.9857 188.526 37.7775 188.593 37.6362 188.731C37.4912 188.868 37.3909 189.054 37.3388 189.288H38.6808L38.5879 189.789H37.2682C37.2645 189.837 37.2607 189.882 37.2607 189.922C37.2607 189.963 37.2607 190.008 37.2607 190.049C37.2607 190.09 37.2607 190.127 37.2607 190.16C37.2607 190.197 37.2607 190.234 37.2682 190.279H38.495L38.3946 190.788H37.3351C37.3983 191.081 37.5061 191.281 37.6622 191.4C37.8184 191.515 38.0117 191.575 38.2459 191.575C38.3946 191.575 38.5321 191.56 38.6585 191.534C38.7849 191.508 38.9039 191.467 39.0191 191.415L39.1678 191.987C39.0786 192.031 38.9485 192.072 38.7812 192.113C38.6139 192.154 38.4243 192.176 38.2124 192.176C37.7366 192.176 37.3686 192.054 37.112 191.809C36.8555 191.564 36.6882 191.222 36.6102 190.788H36.1306V190.279H36.5618C36.5581 190.234 36.5544 190.197 36.5544 190.16C36.5544 190.127 36.5544 190.086 36.5544 190.049C36.5544 190.004 36.5544 189.963 36.5544 189.919C36.5544 189.874 36.5544 189.833 36.5618 189.789H36.1306V189.288L36.6213 189.291Z" fill="#BD8B00"/>
<path d="M50.5025 47.516H41.7143C41.5098 47.516 41.3425 47.3489 41.3425 47.1447C41.3425 46.9405 41.5098 46.7734 41.7143 46.7734H50.5025C50.707 46.7734 50.8743 46.9405 50.8743 47.1447C50.8743 47.3489 50.7107 47.516 50.5025 47.516Z" fill="#E8E7EC"/>
<path d="M50.5025 50.1705H41.7143C41.5098 50.1705 41.3425 50.0035 41.3425 49.7993C41.3425 49.5951 41.5098 49.428 41.7143 49.428H50.5025C50.707 49.428 50.8743 49.5951 50.8743 49.7993C50.8743 50.0035 50.7107 50.1705 50.5025 50.1705Z" fill="#E8E7EC"/>
<path d="M50.5025 52.8251H41.7143C41.5098 52.8251 41.3425 52.658 41.3425 52.4538C41.3425 52.2496 41.5098 52.0825 41.7143 52.0825H50.5025C50.707 52.0825 50.8743 52.2496 50.8743 52.4538C50.8743 52.658 50.7107 52.8251 50.5025 52.8251Z" fill="#E8E7EC"/>
<path d="M67.3652 80.2252L72.856 107.763C73.607 111.524 76.4026 114.55 80.0978 115.593C81.6852 116.038 83.3209 116.09 84.8785 115.782C86.9529 115.37 88.886 114.319 90.3768 112.712L123.872 76.6535L108.883 62.7678L89.0013 84.1719L87.4176 76.2377L67.3652 80.2252Z" fill="#FFD3CF"/>
<path d="M102.831 66.0165C102.831 66.0165 102.306 64.0413 106.931 56.627L112.782 58.9511C113.065 59.0811 115.37 60.1801 115.853 62.5488C116.34 64.9324 114.779 67.6316 111.965 68.6934C111.414 69.0053 110.585 69.384 109.518 69.5659C109.518 69.5659 107.63 70.6277 107.217 70.4532C106.805 70.2788 102.619 70.1005 102.619 70.1005L102.831 66.0165Z" fill="#FFD3CF"/>
<path d="M118.024 79.5606L129.537 75.9964C131.879 75.2724 133.203 72.7626 132.478 70.4235L128.909 58.9251C128.184 56.5861 125.671 55.2643 123.329 55.9883L111.816 59.5526C109.474 60.2766 108.15 62.7864 108.875 65.1254L112.444 76.6238C113.169 78.9629 115.682 80.2846 118.024 79.5606Z" fill="#FFD3CF"/>
<path d="M128.757 80.0619C131.062 79.9357 132.831 77.9642 132.705 75.6623L131.095 46.1607C130.969 43.8588 128.995 42.0916 126.69 42.2178L114.82 42.8638C112.515 42.99 110.745 44.9615 110.872 47.2634L112.481 76.765C112.608 79.0669 114.582 80.8342 116.887 80.708L128.757 80.0619Z" fill="#1B0E41"/>
<path d="M114.894 44.2523L126.764 43.6063C128.296 43.5246 129.616 44.7053 129.701 46.2349L131.311 75.7365C131.392 77.2661 130.21 78.5842 128.679 78.6696L116.809 79.3156C115.277 79.3973 113.957 78.2166 113.872 76.687L112.262 47.1854C112.18 45.6557 113.362 44.3377 114.894 44.2523Z" fill="white"/>
<path d="M116.162 43.3057L125.4 42.8045C126.162 42.7637 126.82 43.3503 126.861 44.1114C126.902 44.8725 126.314 45.5297 125.552 45.5705L116.314 46.0717C115.552 46.1126 114.894 45.526 114.853 44.7648C114.812 44.0037 115.4 43.3466 116.162 43.3057Z" fill="#1B0E41"/>
<path d="M128.147 64.7654L135.006 61.0972C136.311 60.4661 137.898 61.0156 138.53 62.3224L138.597 62.4598C139.229 63.763 138.679 65.3483 137.37 65.9795L130.511 69.6477C129.206 70.2789 127.619 69.7294 126.987 68.4225L126.92 68.2851C126.288 66.982 126.842 65.3966 128.147 64.7654Z" fill="#FFD3CF"/>
<path d="M128.578 69.8035L135.437 66.1353C136.742 65.5042 138.329 66.0536 138.961 67.3605L139.028 67.4979C139.66 68.8011 139.11 70.3864 137.801 71.0176L130.943 74.6858C129.638 75.317 128.05 74.7675 127.418 73.4606L127.351 73.3232C126.723 72.0163 127.273 70.431 128.578 69.8035Z" fill="#FFD3CF"/>
<path d="M106.931 56.627L112.838 50.1817C113.987 49.027 115.876 49.0196 117.032 50.1668L117.154 50.2857C118.31 51.4329 118.318 53.319 117.169 54.4736L111.262 60.919C110.113 62.0737 108.225 62.0811 107.069 60.9338L106.946 60.815C105.79 59.6678 105.782 57.7817 106.931 56.627Z" fill="#FFD3CF"/>
<path fill-rule="evenodd" clip-rule="evenodd" d="M109.039 81.6286C110.225 82.7128 111.968 82.9838 113.407 82.9838C113.562 82.9838 113.713 82.9802 113.858 82.9768C113.922 82.9753 113.985 82.9738 114.046 82.9727C114.254 82.9615 114.411 82.787 114.399 82.5828C114.388 82.3749 114.214 82.219 114.009 82.2301C112.046 82.3341 110.459 81.9294 109.541 81.0866C108.957 80.5482 108.619 79.8168 108.541 78.9183C108.667 78.8589 108.79 78.7884 108.901 78.7104C109.377 78.3763 109.648 77.901 109.667 77.3775C109.674 77.1771 109.637 77.01 109.556 76.8652C109.251 76.3491 108.927 76.3157 108.708 76.3788C108.102 76.5533 107.879 77.7859 107.808 78.3726C107.574 78.4097 107.336 78.3985 107.124 78.3317C106.451 78.1201 105.808 77.5075 105.407 76.6944C105.02 75.911 104.927 75.0682 105.154 74.437C105.225 74.244 105.124 74.0323 104.931 73.9618C104.738 73.8913 104.526 73.9915 104.455 74.1846C104.154 75.0125 104.258 76.0484 104.741 77.0211C105.232 78.0087 106.039 78.7661 106.901 79.0371C107.187 79.1262 107.5 79.1522 107.812 79.1151C107.931 80.1435 108.34 80.9901 109.039 81.6286ZM108.63 77.9679C108.697 77.6634 108.79 77.3441 108.879 77.1733C108.89 77.1919 108.901 77.2105 108.916 77.229C108.916 77.2296 108.917 77.2308 108.917 77.2328C108.92 77.2429 108.93 77.2727 108.927 77.3441C108.916 77.6226 108.771 77.8305 108.63 77.9679Z" fill="#8F7676"/>
<path d="M130.615 57.8522C130.485 57.8522 130.359 57.7817 130.288 57.6591C130.188 57.4809 130.255 57.2544 130.433 57.1542L134.173 55.0936C134.355 54.9934 134.578 55.0602 134.679 55.2384C134.779 55.4166 134.712 55.6431 134.534 55.7433L130.794 57.8039C130.738 57.8373 130.675 57.8522 130.615 57.8522Z" fill="#8F7676"/>
<path d="M132.188 62.8866C132.058 62.8866 131.931 62.8161 131.861 62.6935C131.76 62.5153 131.827 62.2889 132.006 62.1886L135.746 60.128C135.928 60.0278 136.151 60.0946 136.251 60.2728C136.352 60.451 136.285 60.6775 136.106 60.7778L132.366 62.8383C132.311 62.8718 132.251 62.8866 132.188 62.8866Z" fill="#8F7676"/>
<path d="M133.53 68.029C133.4 68.029 133.273 67.9584 133.203 67.8359C133.102 67.6577 133.169 67.4312 133.348 67.331L137.088 65.2704C137.27 65.1701 137.493 65.237 137.593 65.4152C137.694 65.5934 137.627 65.8199 137.448 65.9201L133.708 67.9807C133.653 68.0141 133.593 68.029 133.53 68.029Z" fill="#8F7676"/>
<path d="M86.7783 60.2693C86.6928 61.3943 86.4474 62.4561 85.9716 63.3695C85.4772 64.3311 84.7299 65.1367 83.663 65.7011C83.6407 65.7122 83.6184 65.7234 83.5998 65.7345C83.5626 65.7531 83.5292 65.7716 83.4957 65.7902C82.7411 66.1875 82.1351 66.5068 81.6481 66.7629V66.7778L82.005 71.6415L82.2355 74.8048C81.8897 77.3517 79.767 79.2749 77.2986 79.3566C75.0383 79.4346 72.9379 77.9495 72.2167 75.7144C72.1758 72.7962 72.1349 69.8742 72.0941 66.9523C72.0717 65.612 72.0532 64.2717 72.0346 62.9314C72.0271 62.5972 72.0234 62.2631 72.0234 61.9289C72.0197 61.8769 72.0197 61.8175 72.0197 61.7507C72.016 61.7024 72.016 61.6468 72.016 61.5873L68.9788 48.912C68.9788 48.912 73.332 36.4706 83.663 47.4937C83.663 47.4937 86.269 52.8141 86.7374 57.8375C86.8192 58.6617 86.8378 59.4822 86.7783 60.2693Z" fill="#FFD3CF"/>
<path d="M75.0531 40.1126C75.0531 40.1126 78.5997 31.8183 84.3693 35.9654C90.1426 40.1126 87.2057 47.0925 83.6592 47.4972C80.1127 47.9019 76.265 46.0827 76.265 46.0827C76.042 46.3277 75.1758 47.2188 73.7334 47.397C72.4694 47.5529 71.514 47.0703 71.2018 46.892C71.3839 47.1371 71.7929 47.7534 71.8077 48.6111C71.8337 50.1221 70.6218 51.0429 70.4917 51.1394C70.7966 52.3869 71.0977 53.6344 71.4025 54.8819H70.1571L67.9564 50.9352C67.9564 50.9352 63.2574 48.4588 65.8299 42.0358C67.6515 37.4839 71.0977 40.3168 71.0977 40.3168C71.0977 40.3168 71.3059 36.7748 75.0531 40.1126Z" fill="#1B0E41"/>
<path d="M79.901 44.7127C79.901 44.7127 80.5032 48.4218 79.901 49.7027C79.2987 50.9836 78.176 51.288 77.6295 51.6593C77.0831 52.0306 76.8563 53.137 76.0868 54.8597C75.3172 56.5824 75.9009 65.0401 71.8265 65.6304C67.7521 66.2244 67.6963 49.6099 67.6963 49.6099L68.1573 43.5172C68.1573 43.5172 73.0235 42.2178 73.9343 42.4182C74.8451 42.6187 79.901 44.7127 79.901 44.7127Z" fill="#1B0E41"/>
<path d="M80.6928 50.1818C80.6928 50.1818 78.9938 46.792 75.3581 49.5357C71.7224 52.2795 76.202 57.0355 76.202 57.0355L79.3136 56.913L80.6928 50.1818Z" fill="#FFD3CF"/>
<ellipse cx="83.689" cy="51.0244" rx="0.951691" ry="0.950464" fill="#1B0E41"/>
<path d="M84.2727 49.3241L82.031 50.412C81.7968 50.5271 81.5105 50.4268 81.3953 50.1929C81.2801 49.959 81.3804 49.6731 81.6146 49.558L83.8563 48.4702C84.0905 48.3551 84.3768 48.4553 84.492 48.6892C84.6072 48.9232 84.5106 49.209 84.2727 49.3241Z" fill="#1B0E41"/>
<path d="M80.0272 47.5197C80.0272 47.5197 78.2167 46.0346 77.607 45.9678C77.0011 45.901 75.9453 45.448 76.2687 46.0792C76.5922 46.7103 76.3803 47.2487 76.3505 47.8576C76.3394 48.0915 76.41 48.3142 76.4992 48.5036L76.3208 48.4665C76.6145 48.8266 76.8338 49.0085 76.8338 49.0085L78.1572 53.3265L79.3729 53.5864C79.3394 52.3055 79.3022 51.0208 79.2688 49.7362C79.3394 49.7065 79.6666 49.5543 80.0234 49.2573V47.5197H80.0272Z" fill="#1B0E41"/>
<path d="M79.2243 53.5603L79.3655 55.5132C79.3767 55.9179 79.1982 56.3114 79.4919 57.0354C79.9046 58.0564 80.544 58.4908 80.8302 58.6802C81.2986 58.9883 81.834 59.1071 82.3805 58.9215C83.15 58.6579 83.7262 57.8002 84.4623 57.429C84.6667 57.325 84.8786 57.2433 85.098 57.1839C85.2281 57.1468 85.3582 57.1245 85.4957 57.106C85.6036 57.0911 85.7151 57.0837 85.8266 57.08C85.9381 57.08 86.0459 57.0837 86.1537 57.0948C86.2876 57.106 86.4177 57.1282 86.5404 57.1579C86.7523 57.2099 86.953 57.2879 87.1389 57.3844C87.2541 57.4438 87.3619 57.5107 87.466 57.5849C87.6408 57.7111 87.7969 57.8596 87.9344 58.023C88.0199 58.1195 88.0943 58.2272 88.1649 58.3386C88.2802 58.5205 88.3768 58.7173 88.4512 58.9326C88.4921 59.0552 88.533 59.1851 88.5553 59.3188C88.5553 59.3225 88.5553 59.3262 88.5553 59.3299C88.5925 59.5564 88.6408 59.8794 88.6817 60.2692C88.8006 61.409 89.2096 65.3149 87.8378 67.1415C87.3025 67.8544 86.2653 67.9769 84.1872 68.222C81.9083 68.4893 80.7708 68.6266 80.0756 68.04C78.8637 67.019 78.6704 64.9027 78.3692 61.6467C78.1239 58.9735 78.0235 54.9377 78.1536 53.3152C78.2057 52.8066 78.6257 53.0331 79.2243 53.5603Z" fill="#1B0E41"/>
<path d="M86.7784 60.2693C85.1204 60.3435 84.8899 58.1716 84.8899 58.1716L86.7375 57.8374C86.8193 58.6616 86.8379 59.4822 86.7784 60.2693Z" fill="white"/>
<path d="M89.1984 56.5638C89.1984 56.5638 88.7114 57.9709 87.7969 58.1529C86.8861 58.3348 86.0347 57.9153 85.8935 57.221C85.7559 56.523 86.3916 54.8559 87.295 55.6319C89.0088 57.1059 89.1984 56.5638 89.1984 56.5638Z" fill="#1B0E41"/>
<path d="M82.3284 57.492C82.3284 57.492 83.6035 58.6318 84.9864 58.4685C86.3693 58.3014 87.4251 57.596 87.3396 56.8905C87.2541 56.1851 85.6593 54.856 84.6816 55.9141C82.8191 57.9301 82.3284 57.492 82.3284 57.492Z" fill="#1B0E41"/>
<path d="M150.876 83.8119C151.158 83.9455 153.456 85.0631 153.917 87.4318C154.385 89.8191 152.802 92.5034 149.984 93.5467C149.43 93.8511 148.597 94.2261 147.534 94.4006C145.816 94.6828 144.422 94.3041 143.716 94.0553C141.813 92.9341 141.114 91.7571 140.868 90.803C140.868 90.803 140.359 88.8241 145.043 81.4431" fill="#FFD3CF"/>
<path d="M151.475 81.7179C151.367 81.7179 151.259 81.6696 151.185 81.5805C151.054 81.4209 151.08 81.187 151.24 81.057L155.999 77.2106C156.159 77.0806 156.393 77.1066 156.523 77.2663C156.653 77.4259 156.627 77.6598 156.467 77.7898L151.709 81.6362C151.638 81.6919 151.556 81.7179 151.475 81.7179Z" fill="#8F7676"/>
<path d="M154.605 105.561L163.869 97.861C165.754 96.2942 166.014 93.4688 164.445 91.5864L156.735 82.3342C155.166 80.4519 152.337 80.192 150.452 81.7587L141.188 89.459C139.303 91.0258 139.043 93.8512 140.612 95.7336L148.322 104.986C149.891 106.868 152.72 107.128 154.605 105.561Z" fill="#FFD3CF"/>
<path d="M149.575 82.4604L164.642 70.2863C165.757 69.3581 167.426 69.5141 168.356 70.6242L168.452 70.743C169.382 71.8568 169.226 73.5238 168.114 74.452L153.047 86.6262C151.932 87.5543 150.263 87.3984 149.333 86.2883L149.237 86.1695C148.307 85.0557 148.46 83.3849 149.575 82.4604Z" fill="#FFD3CF"/>
<path d="M151.177 87.5319L160.954 79.3713C162.069 78.4431 163.739 78.599 164.668 79.7091L164.765 79.8279C165.694 80.9418 165.538 82.6088 164.426 83.537L154.649 91.6976C153.534 92.6258 151.865 92.4699 150.935 91.3598L150.839 91.241C149.909 90.1271 150.062 88.4601 151.177 87.5319Z" fill="#FFD3CF"/>
<path d="M153.248 92.8561L163.025 84.6955C164.14 83.7673 165.809 83.9232 166.739 85.0333L166.835 85.1522C167.765 86.266 167.609 87.933 166.497 88.8612L156.72 97.0218C155.605 97.95 153.935 97.7941 153.006 96.684L152.909 96.5652C151.98 95.4551 152.132 93.7843 153.248 92.8561Z" fill="#FFD3CF"/>
<path d="M155.237 98.0799L164.947 89.8376C166.055 88.902 167.727 89.0393 168.664 90.1457L168.761 90.2608C169.698 91.3672 169.56 93.038 168.452 93.9736L158.742 102.216C157.634 103.152 155.962 103.014 155.025 101.908L154.928 101.793C153.987 100.686 154.129 99.0155 155.237 98.0799Z" fill="#FFD3CF"/>
<path d="M145.039 81.4432L150.995 75.0424C152.151 73.8951 154.04 73.9025 155.188 75.0609L155.307 75.1835C156.456 76.3381 156.449 78.2242 155.289 79.3714L149.333 85.7722C148.177 86.9195 146.289 86.9121 145.14 85.7537L145.021 85.6312C143.876 84.4728 143.883 82.5904 145.039 81.4432Z" fill="#FFD3CF"/>
<path d="M158.876 81.6696C158.768 81.6696 158.661 81.6213 158.586 81.5322C158.456 81.3725 158.482 81.1386 158.642 81.0087L161.962 78.3244C162.122 78.1944 162.356 78.2204 162.486 78.3801C162.616 78.5397 162.59 78.7736 162.43 78.9036L159.11 81.5879C159.04 81.6399 158.958 81.6696 158.876 81.6696Z" fill="#8F7676"/>
<path d="M152.408 80.0138C152.3 80.0138 152.192 79.9655 152.118 79.8764C151.988 79.7168 152.014 79.4829 152.173 79.3529L155.497 76.6686C155.657 76.5387 155.891 76.5646 156.021 76.7243C156.151 76.8839 156.125 77.1178 155.965 77.2478L152.642 79.9321C152.571 79.9841 152.489 80.0138 152.408 80.0138Z" fill="#8F7676"/>
<path d="M161.181 86.0543C161.073 86.0543 160.965 86.006 160.891 85.9169C160.761 85.7573 160.787 85.5234 160.947 85.3934L164.267 82.7091C164.426 82.5792 164.661 82.6052 164.791 82.7648C164.921 82.9245 164.895 83.1584 164.735 83.2883L161.415 85.9726C161.345 86.0246 161.263 86.0543 161.181 86.0543Z" fill="#8F7676"/>
<path d="M162.549 91.9279C162.441 91.9279 162.333 91.8796 162.259 91.7905C162.129 91.6308 162.155 91.3969 162.315 91.267L165.635 88.5827C165.794 88.4527 166.029 88.4787 166.159 88.6384C166.289 88.798 166.263 89.0319 166.103 89.1619L162.783 91.8462C162.713 91.9019 162.631 91.9279 162.549 91.9279Z" fill="#8F7676"/>
<path d="M116.664 110.343L113.853 98.4586L93.9531 103.148L100.593 131.227C101.41 134.684 103.964 137.465 107.34 138.579C108.388 138.924 109.47 139.091 110.541 139.091C112.924 139.091 115.269 138.259 117.143 136.678L143.619 114.323L131.348 97.9463L116.664 110.343Z" fill="#8043F9"/>
<path d="M142.631 88.4194L131.348 97.9464L143.619 114.323L155.832 104.013L142.631 88.4194Z" fill="#FFD3CF"/>
<path d="M101.139 75.3912C94.4588 72.9593 86.9605 73.3009 79.9827 73.7539C72.8636 74.2142 55.5845 73.8504 48.5584 79.1448C45.0342 81.7994 42.5546 84.5951 40.8073 87.2906C36.6214 93.7508 37.0861 102.175 41.8631 108.212L54.6514 124.37V136.644H99.2246L94.6112 103.864C99.7376 103.46 114.519 101.882 114.519 101.882C115.463 101.807 110.489 78.7958 101.139 75.3912Z" fill="#8043F9"/>
<path d="M55.1123 136.596C54.9078 136.596 54.7442 136.433 54.7405 136.229L54.2833 102.041C54.2795 101.837 54.4431 101.667 54.6513 101.667H54.655C54.8595 101.667 55.0231 101.83 55.0268 102.034L55.484 136.221C55.4877 136.425 55.3242 136.596 55.116 136.596C55.1123 136.596 55.1123 136.596 55.1123 136.596Z" fill="#5D31B5"/>
<ellipse cx="107.846" cy="264.352" rx="85.2505" ry="5.41321" fill="#E8E7EC"/>
<path d="M80.7857 251.732C80.6853 251.732 80.5886 251.692 80.5143 251.614C80.373 251.465 80.3842 251.227 80.5329 251.09L84.9381 246.988C85.0868 246.846 85.3248 246.854 85.4623 247.006C85.6036 247.155 85.5924 247.392 85.4437 247.53L81.0385 251.632C80.9678 251.699 80.8749 251.732 80.7857 251.732Z" fill="#8374AD"/>
<path d="M83.7114 253.782C83.6111 253.782 83.5144 253.741 83.4401 253.663C83.2988 253.515 83.3099 253.277 83.4586 253.14L87.8639 249.037C88.0126 248.896 88.2505 248.903 88.3881 249.056C88.5294 249.204 88.5182 249.442 88.3695 249.579L83.9642 253.682C83.8936 253.748 83.8007 253.782 83.7114 253.782Z" fill="#8374AD"/>
<path d="M54.6551 136.644H99.2283L155.121 238.277C156.482 240.75 154.69 243.776 151.865 243.776H113.634C112.054 243.776 110.645 242.777 110.124 241.288L88.02 178.071L87.7151 240.082C87.704 242.124 86.0423 243.776 83.9976 243.776H55.9451C53.8596 243.776 52.1793 242.061 52.2276 239.978L54.6551 136.644Z" fill="#A17FFD"/>
<path d="M95.7971 262.603H60.2129V243.78H78.8117C79.7894 245.655 81.1835 247.886 83.1278 249.984C87.626 254.833 92.4365 256.117 94.89 256.526C95.1242 256.778 95.8975 257.691 96.154 259.288C96.1689 259.392 96.1837 259.496 96.1949 259.596C96.3585 261.118 95.9272 262.28 95.7971 262.603Z" fill="#1B0E41"/>
<path d="M95.7971 262.603H60.2129V259.596H96.1949C96.3585 261.118 95.9272 262.28 95.7971 262.603Z" fill="#8043F9"/>
<path d="M141.958 251.732C141.857 251.732 141.761 251.692 141.686 251.614C141.545 251.465 141.556 251.227 141.705 251.09L146.11 246.988C146.259 246.846 146.497 246.854 146.634 247.006C146.775 247.155 146.764 247.392 146.616 247.53L142.21 251.632C142.14 251.699 142.047 251.732 141.958 251.732Z" fill="#8374AD"/>
<path d="M144.883 253.782C144.783 253.782 144.686 253.741 144.612 253.663C144.471 253.515 144.482 253.277 144.631 253.14L149.036 249.037C149.184 248.896 149.422 248.903 149.56 249.056C149.701 249.204 149.69 249.442 149.541 249.579L145.136 253.682C145.065 253.748 144.973 253.782 144.883 253.782Z" fill="#8374AD"/>
<path d="M156.969 262.603H121.385V243.78H139.984C140.961 245.655 142.355 247.886 144.3 249.984C148.798 254.833 153.608 256.117 156.062 256.526C156.296 256.778 157.069 257.691 157.326 259.288C157.341 259.392 157.356 259.496 157.367 259.596C157.53 261.118 157.099 262.28 156.969 262.603Z" fill="#1B0E41"/>
<path d="M156.969 262.603H121.385V259.596H157.367C157.53 261.118 157.099 262.28 156.969 262.603Z" fill="#8043F9"/>
<path d="M174.516 20.1752H166.72C166.516 20.1752 166.348 20.0081 166.348 19.8039C166.348 19.5997 166.516 19.4326 166.72 19.4326H174.516C174.72 19.4326 174.888 19.5997 174.888 19.8039C174.888 20.0081 174.724 20.1752 174.516 20.1752Z" fill="#BDBDBD"/>
<path d="M172.438 22.8669C172.341 22.8669 172.248 22.8297 172.174 22.7592C172.029 22.6144 172.029 22.3805 172.174 22.2357L174.605 19.8076L172.174 17.3794C172.029 17.2346 172.029 17.0007 172.174 16.8559C172.319 16.7111 172.553 16.7111 172.698 16.8559L175.393 19.5477C175.538 19.6925 175.538 19.9264 175.393 20.0712L172.698 22.7629C172.627 22.8297 172.534 22.8669 172.438 22.8669Z" fill="#BDBDBD"/>
<path d="M175.133 27.129H167.337C167.133 27.129 166.965 26.962 166.965 26.7577C166.965 26.5535 167.133 26.3865 167.337 26.3865H175.133C175.337 26.3865 175.505 26.5535 175.505 26.7577C175.505 26.962 175.337 27.129 175.133 27.129Z" fill="#BDBDBD"/>
<path d="M169.415 29.8208C169.319 29.8208 169.226 29.7836 169.151 29.7131L166.456 27.0214C166.311 26.8766 166.311 26.6427 166.456 26.4979L169.151 23.8061C169.296 23.6613 169.531 23.6613 169.676 23.8061C169.821 23.9509 169.821 24.1848 169.676 24.3296L167.244 26.7577L169.676 29.1859C169.821 29.3307 169.821 29.5646 169.676 29.7094C169.605 29.7874 169.512 29.8208 169.415 29.8208Z" fill="#BDBDBD"/>
<path d="M202.91 144.697V174.024C202.91 177.195 200.334 179.768 197.159 179.768H143.82C140.642 179.768 138.069 177.195 138.069 174.024V144.697C138.069 141.527 140.642 138.954 143.82 138.954H197.159C200.334 138.954 202.91 141.527 202.91 144.697Z" fill="#B678FD"/>
<rect x="138.069" y="158.817" width="64.8412" height="9.90562" fill="#1B0E41"/>
<path d="M152.27 144.315H148.118C146.5 144.315 145.192 145.622 145.192 147.237V150.222C145.192 151.837 146.5 153.144 148.118 153.144H152.27C153.887 153.144 155.196 151.837 155.196 150.222V147.237C155.196 145.626 153.887 144.315 152.27 144.315Z" fill="#FFBC00"/>
<ellipse cx="183.81" cy="148.733" rx="4.65437" ry="4.64837" fill="#8E70DE"/>
<ellipse cx="189.103" cy="148.733" rx="4.65435" ry="4.64837" fill="#8E70DE"/>
<path d="M188.464 148.733C188.464 150.318 187.672 151.718 186.456 152.553C185.241 151.714 184.449 150.318 184.449 148.733C184.449 147.151 185.241 145.748 186.456 144.913C187.672 145.748 188.464 147.148 188.464 148.733Z" fill="#8043F9"/>
<path fill-rule="evenodd" clip-rule="evenodd" d="M0.364258 37.7848H9.05585V29.8135H0.364258V37.7848ZM8.31606 37.0422H1.11148V30.556H8.31606V37.0422Z" fill="#E8E7EC"/>
<path d="M3.99996 36.0287L0.509196 31.4991C0.3828 31.3357 0.41254 31.1018 0.576112 30.9793C0.739683 30.8531 0.97017 30.8828 1.09657 31.0461L4.06687 34.8963L11.9518 26.8247C12.0967 26.6762 12.3309 26.6762 12.4759 26.8173C12.6246 26.9621 12.6246 27.196 12.4834 27.3408L3.99996 36.0287Z" fill="#00C090"/>
<path fill-rule="evenodd" clip-rule="evenodd" d="M48.0379 7.8563C51.8558 5.75117 56.183 5.42816 60.053 6.61253C63.778 7.74492 67.0866 10.2696 69.1089 13.9341C73.2428 21.4116 70.5104 30.8531 63.0233 34.978C55.5362 39.1066 46.0825 36.3777 41.9523 28.9002C37.8184 21.4227 40.5508 11.9812 48.0379 7.8563ZM46.1978 26.5612C49.0379 31.6996 55.5325 33.5709 60.6775 30.738C65.8226 27.9015 67.7 21.4153 64.8561 16.2806C63.5066 13.8338 61.3318 12.1334 58.8708 11.3203C56.1496 10.4218 53.0789 10.6112 50.38 12.1C45.2349 14.9365 43.3576 21.4227 46.1978 26.5612Z" fill="#8043F9"/>
<path d="M69.1089 13.9339C73.2391 21.4114 70.5104 30.8529 63.0233 34.9778L60.6775 30.7341C65.8226 27.9013 67.6999 21.4114 64.8597 16.273C63.5103 13.83 61.3355 12.1295 58.8745 11.3127L60.053 6.60864C63.7779 7.74475 67.0865 10.2694 69.1089 13.9339Z" fill="#B678FD"/>
<path d="M56.0083 39.8787H42.0713C40.9449 39.8787 40.0229 40.7994 40.0229 41.9244C40.0229 43.0494 40.9449 43.9701 42.0713 43.9701H56.0083C57.1348 43.9701 58.0567 43.0494 58.0567 41.9244C58.0604 40.7994 57.1385 39.8787 56.0083 39.8787Z" fill="#E8E7EC"/>
<path d="M28.0337 117.086L27.74 117.178L27.3386 117.301L26.9371 117.423L23.8738 118.37L12.9777 121.741L11.5019 122.198L10.2602 122.584L10.0297 122.655L9.25647 122.892C8.84755 123.018 8.54271 123.319 8.39401 123.69C8.32709 123.861 8.29363 124.043 8.30107 124.233C8.30479 124.351 8.32337 124.47 8.36055 124.585L8.40888 124.741L8.86613 126.215L12.829 138.987C13.0521 139.7 13.8105 140.101 14.5242 139.878L33.3015 134.068C34.0152 133.845 34.4167 133.087 34.1937 132.375L33.0747 128.77L25.3943 131.146C24.1787 131.521 22.8887 130.841 22.5132 129.631L22.1452 128.447L22.0225 128.046L21.8998 127.645L21.6247 126.754C21.4388 126.159 21.5095 125.543 21.7734 125.031C22.0076 124.574 22.3905 124.195 22.8849 123.976C22.9667 123.939 23.0522 123.906 23.1415 123.88L29.7475 121.834L30.149 121.712L30.5505 121.589L30.8256 121.504L29.7326 117.977C29.5059 117.264 28.7475 116.863 28.0337 117.086Z" fill="#BDBDBD"/>
<path fill-rule="evenodd" clip-rule="evenodd" d="M31.5764 122.332C31.766 122.339 31.9445 122.383 32.1118 122.461C32.4426 122.614 32.714 122.907 32.833 123.282L33.7252 126.159C33.8404 126.538 33.7847 126.928 33.5988 127.243C33.5096 127.403 33.3832 127.541 33.2307 127.652C33.1118 127.737 32.9817 127.808 32.833 127.852L32.7995 127.864L25.1154 130.24C24.4016 130.462 23.6432 130.061 23.4202 129.349L22.9741 127.915L22.8514 127.515L22.7287 127.114L22.528 126.471C22.3049 125.758 22.7064 125.001 23.4202 124.778L29.227 122.981L30.6731 122.532L31.0746 122.409L31.1006 122.402L31.1341 122.391C31.2828 122.346 31.4315 122.328 31.5764 122.332ZM26.6024 127.778C26.9593 127.667 27.16 127.288 27.0485 126.932L26.9147 126.501C26.8031 126.145 26.4239 125.944 26.0671 126.055L25.7473 126.156L25.6395 126.189C25.4871 126.237 25.3682 126.334 25.2827 126.453C25.1637 126.616 25.1265 126.828 25.1897 127.036L25.3235 127.466C25.4351 127.823 25.8143 128.023 26.1711 127.912L26.6024 127.778Z" fill="#BDBDBD"/>
<path fill-rule="evenodd" clip-rule="evenodd" d="M167.605 40.0904C167.668 40.2241 167.802 40.3057 167.943 40.3057C167.995 40.3057 168.047 40.2946 168.099 40.2723L168.222 40.2166C168.412 40.1349 168.493 39.9122 168.408 39.7265C168.322 39.5409 168.099 39.4592 167.913 39.5446L167.791 39.6003C167.601 39.682 167.519 39.9048 167.605 40.0904ZM159.828 44.0036C159.687 44.0036 159.553 43.922 159.49 43.7883C159.404 43.6027 159.486 43.3799 159.675 43.2982L163.735 41.4493C163.921 41.3639 164.144 41.4455 164.229 41.6312C164.315 41.8168 164.233 42.0396 164.044 42.1213L159.984 43.9702C159.932 43.9925 159.88 44.0036 159.828 44.0036ZM151.37 47.4788C151.434 47.6162 151.567 47.6978 151.709 47.6978C151.761 47.6978 151.813 47.6867 151.865 47.6607L155.924 45.8118C156.114 45.7301 156.196 45.5073 156.11 45.3217C156.025 45.136 155.802 45.0544 155.616 45.1397L151.556 46.9887C151.367 47.0704 151.285 47.2931 151.37 47.4788ZM143.251 51.1804C143.315 51.3141 143.448 51.3957 143.59 51.3957C143.642 51.3957 143.694 51.3846 143.746 51.3623L147.805 49.5134C147.995 49.4317 148.077 49.2089 147.991 49.0233C147.906 48.8377 147.683 48.756 147.497 48.8414L143.437 50.6903C143.248 50.772 143.166 50.9948 143.251 51.1804Z" fill="#E8E7EC"/>
<path fill-rule="evenodd" clip-rule="evenodd" d="M93.2952 31.1872C93.3658 31.2392 93.4439 31.2651 93.5256 31.2651C93.6372 31.2651 93.745 31.2169 93.8156 31.1241C93.942 30.9644 93.9123 30.7305 93.7524 30.6043L90.2431 27.8531C90.0832 27.7269 89.849 27.7566 89.7226 27.9162C89.5962 28.0759 89.6259 28.3098 89.7858 28.436L93.2952 31.1872ZM100.544 36.7675C100.463 36.7675 100.384 36.7415 100.314 36.6895L96.8045 33.9383C96.6446 33.8121 96.6149 33.5782 96.7413 33.4185C96.8677 33.2589 97.1019 33.2292 97.2618 33.3554L100.771 36.1066C100.931 36.2328 100.961 36.4667 100.834 36.6264C100.764 36.7192 100.656 36.7675 100.544 36.7675ZM107.563 42.2698C107.481 42.2698 107.403 42.2438 107.333 42.1918L103.823 39.4406C103.663 39.3144 103.634 39.0805 103.76 38.9209C103.886 38.7612 104.121 38.7315 104.28 38.8577L107.79 41.6089C107.95 41.7351 107.979 41.969 107.853 42.1287C107.782 42.2215 107.671 42.2698 107.563 42.2698Z" fill="#E8E7EC"/>
<path fill-rule="evenodd" clip-rule="evenodd" d="M205.542 119.012C205.613 119.116 205.728 119.172 205.847 119.172C205.918 119.172 205.992 119.15 206.059 119.109L206.472 118.827C206.643 118.712 206.684 118.482 206.568 118.311C206.453 118.14 206.223 118.099 206.052 118.214L205.639 118.496C205.468 118.612 205.427 118.845 205.542 119.012ZM198.501 124.229C198.382 124.229 198.267 124.173 198.197 124.069C198.081 123.902 198.122 123.668 198.293 123.553L201.966 121.025C202.133 120.91 202.368 120.951 202.483 121.121C202.598 121.288 202.557 121.522 202.386 121.637L198.713 124.166C198.646 124.207 198.572 124.229 198.501 124.229ZM190.851 129.126C190.921 129.23 191.037 129.286 191.156 129.286C191.226 129.286 191.301 129.267 191.367 129.223L195.04 126.694C195.211 126.579 195.252 126.345 195.137 126.178C195.022 126.007 194.788 125.966 194.62 126.082L190.947 128.61C190.776 128.725 190.735 128.959 190.851 129.126ZM183.505 134.183C183.575 134.287 183.691 134.342 183.81 134.342C183.88 134.342 183.955 134.324 184.022 134.279L187.695 131.751C187.866 131.636 187.906 131.402 187.791 131.235C187.676 131.064 187.442 131.023 187.274 131.138L183.602 133.667C183.431 133.782 183.39 134.016 183.505 134.183Z" fill="#E8E7EC"/>
<path fill-rule="evenodd" clip-rule="evenodd" d="M185.724 45.6188C185.795 45.6782 185.88 45.7079 185.966 45.7079C186.07 45.7079 186.174 45.6671 186.248 45.578C186.382 45.422 186.364 45.1881 186.207 45.0545L182.825 42.1474C182.668 42.0174 182.434 42.0323 182.3 42.1882C182.167 42.3441 182.185 42.5781 182.341 42.7117L185.724 45.6188ZM192.728 51.5221C192.643 51.5221 192.557 51.4924 192.486 51.433L189.103 48.5259C188.947 48.3922 188.929 48.1583 189.063 48.0024C189.196 47.8465 189.431 47.8316 189.587 47.9616L192.97 50.8686C193.126 51.0023 193.144 51.2362 193.011 51.3921C192.936 51.4775 192.832 51.5221 192.728 51.5221ZM199.252 57.2434C199.323 57.3029 199.408 57.3326 199.494 57.3326C199.598 57.3326 199.702 57.288 199.776 57.2026C199.91 57.0467 199.892 56.8128 199.736 56.6791L196.353 53.772C196.197 53.6421 195.962 53.6569 195.828 53.8129C195.695 53.9688 195.713 54.2027 195.869 54.3364L199.252 57.2434ZM206.015 63.0539C206.085 63.1133 206.171 63.143 206.256 63.143C206.36 63.143 206.464 63.0985 206.539 63.0131C206.673 62.8571 206.654 62.6232 206.498 62.4896L203.115 59.5825C202.959 59.4488 202.724 59.4674 202.591 59.6233C202.457 59.7793 202.475 60.0132 202.632 60.1468L206.015 63.0539Z" fill="#E8E7EC"/>
<path d="M125.511 63.1762L125.66 62.2035C125.66 62.2035 123.281 59.3112 123.177 59.3149C123.073 59.3187 118.846 60.1689 118.679 60.2766C118.511 60.3842 117.389 61.4275 117.389 61.4275L117.526 62.4262L117.809 63.3878L118.961 64.8915L120.523 65.5524C120.523 65.5524 122.166 65.4039 122.318 65.4187C122.474 65.4299 123.608 65.1774 123.757 65.1551C123.905 65.1328 124.998 64.42 124.998 64.42L125.511 63.1762Z" fill="white"/>
<path d="M124.857 63.1949C124.838 63.2877 124.797 63.4176 124.768 63.503C124.768 63.5068 124.768 63.5068 124.768 63.5068C124.463 64.4015 123.686 64.9733 122.913 64.9325C122.296 64.9028 121.887 64.4906 121.716 64.3941C121.63 64.4832 121.296 64.9399 120.764 65.055C119.991 65.2258 119.061 64.68 118.63 63.6516C118.619 63.6144 118.563 63.4028 118.556 63.3657L117.812 63.3842C118.002 63.9486 118.511 64.9213 118.916 65.3297C118.916 65.3297 118.916 65.3334 118.92 65.3371C118.924 65.3409 118.931 65.3446 118.935 65.352C119.009 65.4337 119.091 65.5116 119.184 65.5822C119.188 65.5859 119.188 65.5859 119.188 65.5859C119.578 65.9126 120.032 66.1651 120.53 66.3136C120.649 66.3507 120.757 66.4138 120.838 66.503L121.5 67.2195C121.664 67.4014 121.95 67.394 122.106 67.2047L122.838 66.3099C123.377 66.1428 123.864 65.8532 124.273 65.4819C124.288 65.4782 124.296 65.4708 124.303 65.4597C124.307 65.4597 124.307 65.456 124.31 65.456C124.415 65.3706 124.504 65.274 124.582 65.1775C124.589 65.1664 124.597 65.1589 124.604 65.1515L124.619 65.1404C125.125 64.55 125.433 63.9894 125.511 63.1726L124.857 63.1949Z" fill="#8043F9"/>
<path d="M127.162 59.9202C127.154 60.982 126.396 61.5686 126.266 61.6837C126.08 61.8582 125.876 62.029 125.664 62.2035L125.158 62.2184C125.169 62.1701 125.177 62.1664 125.173 62.0884C125.154 61.4424 124.478 60.8966 123.47 60.6108C122.931 60.4585 122.303 60.3769 121.634 60.3954C119.705 60.4474 118.165 61.2902 118.191 62.2815C118.191 62.3223 118.203 62.3706 118.206 62.4114L117.533 62.43C117.355 62.2926 117.173 62.1404 117.013 61.9548C115.883 60.659 116.403 59.1442 116.459 59.0031C116.634 58.5353 116.868 58.1678 117.084 57.893C117.697 57.1245 118.53 56.6455 119.392 56.1554C120.236 55.6765 120.418 55.6728 120.612 55.4018C120.935 54.9451 120.857 54.3473 120.649 53.7904C120.563 53.5528 120.876 53.3523 121.095 53.5083C121.712 53.9315 122.351 54.7112 121.582 55.903C121.582 55.903 121.753 56.0701 122.455 55.3424C122.563 55.231 122.753 55.2198 122.876 55.3164C123.842 56.0923 124.634 56.6789 125.188 57.0799C125.299 57.1616 125.411 57.2433 125.515 57.3138C126.076 57.7185 126.519 58.0861 126.838 58.695C126.95 58.914 127.173 59.341 127.162 59.9202Z" fill="#8043F9"/>
<path d="M125.508 57.3064C125.102 58.5762 124.396 59.7048 123.467 60.6108C122.928 60.4585 122.299 60.3769 121.63 60.3954C119.701 60.4474 118.162 61.2902 118.188 62.2815C118.188 62.3223 118.199 62.3706 118.203 62.4114L117.53 62.43C117.351 62.2926 117.169 62.1404 117.009 61.9548C115.879 60.659 116.4 59.1442 116.455 59.0031C116.63 58.5353 116.864 58.1678 117.08 57.893C117.693 57.1245 118.526 56.6455 119.389 56.1554C120.232 55.6765 120.415 55.6728 120.608 55.4018C120.931 54.9451 120.853 54.3473 120.645 53.7904C120.56 53.5528 120.872 53.3523 121.091 53.5083C121.708 53.9315 122.348 54.7112 121.578 55.903C121.578 55.903 121.749 56.0701 122.452 55.3424C122.56 55.231 122.749 55.2198 122.872 55.3164C123.838 56.0923 124.63 56.6789 125.184 57.0799C125.292 57.1542 125.404 57.2321 125.508 57.3064Z" fill="#A17FFD"/>
<ellipse rx="0.353158" ry="0.48636" transform="matrix(0.999628 -0.0272656 0.0273359 0.999626 122.346 61.7849)" fill="#8043F9"/>
<ellipse rx="0.353154" ry="0.48636" transform="matrix(0.999628 -0.0272659 0.0273356 0.999626 120.859 61.8257)" fill="#8043F9"/>
<path d="M123.686 62.6378C123.66 62.7083 123.329 63.5214 122.619 63.6291C122.121 63.7034 121.515 63.4175 121.497 63.0982C121.482 62.8568 121.798 62.5673 122.095 62.5524C122.378 62.5376 122.478 62.7826 122.805 62.8606C123.106 62.9274 123.411 62.816 123.686 62.6378Z" fill="#8043F9"/>
<path d="M119.601 62.7492C119.63 62.8197 120.002 63.6143 120.72 63.6774C121.221 63.7219 121.813 63.4027 121.813 63.0871C121.816 62.8457 121.482 62.5747 121.184 62.5747C120.902 62.5747 120.813 62.8235 120.493 62.92C120.195 63.0091 119.883 62.9126 119.601 62.7492Z" fill="#8043F9"/>
<path d="M125.511 54.418L132.37 50.7498C133.675 50.1187 135.262 50.6681 135.894 51.975L135.961 52.1124C136.593 53.4156 136.043 55.0009 134.735 55.6321L127.876 59.3003C126.571 59.9315 124.983 59.382 124.351 58.0751L124.285 57.9377C123.656 56.6345 124.206 55.0492 125.511 54.418Z" fill="#FFD3CF"/>
<path d="M126.578 59.7642L133.437 56.096C134.742 55.4648 136.329 56.0143 136.961 57.3212L137.028 57.4586C137.66 58.7618 137.11 60.3471 135.801 60.9783L128.943 64.6465C127.638 65.2777 126.05 64.7282 125.418 63.4213L125.351 63.2839C124.723 61.9807 125.273 60.3954 126.578 59.7642Z" fill="#FFD3CF"/>
</svg>
